<?xml version="1.0" encoding="UTF-8" standalone="no"?>
<!-- Created with Inkscape (http://www.inkscape.org/) -->

<svg
   width="36.638523mm"
   height="73.000053mm"
   viewBox="0 0 36.638523 73.000053"
   version="1.1"
   id="svg1"
   xml:space="preserve"
   xmlns="http://www.w3.org/2000/svg"
   xmlns:svg="http://www.w3.org/2000/svg"><defs
     id="defs1" /><g
     id="layer7"
     transform="translate(-871.60336,-247.55302)"><path
       id="path27"
       style="display:inline;opacity:1;fill:#d4aa00;fill-opacity:1;fill-rule:evenodd;stroke-width:0.352787;stroke-linecap:round;stroke-linejoin:round"
       d="m 889.93328,247.55788 c -0.95357,0.0219 -1.77427,0.1444 -1.86268,0.27915 0.24262,0.24918 0.60933,0.48622 2.32043,0.40399 2.70146,0.31589 0.34079,0.54183 -1.08365,0.22889 -1.56246,-0.0166 -4.21682,1.06627 -3.45914,2.3872 1.11296,-0.15208 -0.15259,-0.86311 1.50808,-0.88772 1.83259,-0.17885 0.0948,0.15687 1.01971,0.9545 2.18537,0.42089 -0.26171,-1.69497 1.60957,-0.99498 -0.24531,0.7945 0.53982,1.18791 1.30722,1.29866 0.39929,0.73015 0.78524,0.24089 0.53723,-0.51677 0.86096,0.12935 0.61269,1.55717 -0.11942,1.3221 0.9609,1.77195 -1.07195,0.50773 -0.96931,1.98328 0.17312,1.53687 -1.73042,1.12451 -2.868,0.46268 -0.6794,-0.47286 0.92188,2.15348 1.88572,1.81594 -1.47483,0.91994 -0.13095,0.33394 0.0412,0.89505 -0.12749,0.10046 -0.1763,0.14521 -0.1747,0.1543 10e-5,2.7e-4 5.2e-4,0 0,0 0.034,0.0149 0.7497,-0.44274 0.65378,-0.23972 1.44677,-0.71902 1.68675,-2.1279 1.89294,-3.07121 -0.0982,-0.11365 0.49163,-1.28691 1.14836,-2.44595 -0.20855,-0.20499 -0.59918,-1.85338 0.83791,-2.38485 -0.10718,-1.33331 -0.93778,-0.89344 -1.56491,-1.32791 -0.62066,-0.26344 -1.70724,-0.34046 -2.66074,-0.31772 z m -3.71356,3.88968 c -0.0252,0.34414 -0.8303,-0.5107 0.0124,0.84107 0.47876,0.56873 0.22611,-0.78997 -0.0124,-0.84107 z m 12.48566,4.50812 c -0.17656,0 -0.26585,0.60991 0.10383,0.91771 l -2.4e-4,2.9e-4 0.0818,0.0801 0.15458,-0.0889 c -0.0874,-0.67943 -0.23089,-0.91023 -0.34039,-0.90856 z m -8.0809,1.46671 c -1.17396,0.0254 0.78868,0.51962 1.23885,1.02696 0.37613,-0.0526 0.11371,-0.84606 -0.52995,-1.00823 -0.30931,-0.0161 -0.54119,-0.0218 -0.7089,-0.0184 z m 8.61697,2.74848 c -0.009,8e-5 -0.013,0 -0.0187,0.009 0,1.16862 -1.20477,1.84413 -1.15892,2.77502 -0.15874,0.9621 -1.08395,1.66983 -1.40524,1.3734 0.33171,0.37383 -0.42028,0.55615 -0.23902,1.24517 -0.40183,1.07147 -0.26123,-0.85306 -1.56497,0.41318 0.57341,0.61312 0.70208,1.2649 -0.33728,0.54067 -0.41687,0.36455 0.38197,0.96838 -0.27095,1.52305 -0.22409,0.46876 0.0713,2.32178 0.72265,0.60774 0.16913,0.80427 -0.56879,1.13799 0.27036,1.83936 -0.48992,0.36695 1.07371,1.57344 0.0627,1.29709 -1.50232,-0.45994 0.34112,1.66793 -0.48835,0.93401 -1.01317,-0.55445 0.11574,0.73923 0.22571,1.10686 -0.56671,-0.0388 0.0743,1.35621 -0.80862,1.48247 1.08904,0.64061 2.88044,-2.88837 2.58491,-0.38309 0.66358,0.19285 0.11138,-2.04227 -0.16595,-2.75278 0.0285,-0.0239 0.0568,-0.0511 0.0819,-0.0788 -0.007,-0.0218 -0.0102,-0.0442 -0.0155,-0.0652 0.12815,-0.22434 0.24899,-0.45227 0.36252,-0.68402 0.40065,-1.74202 -0.4044,-4.98532 1.48413,-3.82435 0.21249,0.11561 0.76344,1.49008 1.01361,0.352 0.34084,-0.71944 -0.0715,-1.62338 0.16901,-2.64317 -0.37271,-0.30095 -0.16435,-3.02737 -0.82662,-1.82862 -1.85722,2.08447 0.0155,-2.3969 0.38538,-0.78577 0.59594,-0.26618 0.14647,-2.45359 -0.0617,-2.45099 z m -17.54559,3.85619 c -0.22127,0.007 -0.41355,0.57046 -0.0324,1.26893 -0.27917,1.2236 0.23296,0.95472 -0.4743,1.41307 0.50771,0.60858 -1.70579,0.71319 -1.65665,1.32928 0.42095,1.30056 -1.6677,0.48235 -0.94371,1.65636 1.67054,0.0698 0.40858,0.71964 -0.27079,1.14298 -0.20642,1.34933 -2.24411,2.06672 -0.60869,3.06898 0.87038,-0.10902 0.46329,-0.33092 0.85941,-1.25542 0.8524,-1.14787 1.28829,-1.42102 1.89583,-2.0268 0.94914,0.28557 0.36255,-2.19092 1.76394,-1.71297 1.20246,-0.52454 -0.8324,-1.8646 -0.2329,-3.48865 0.0863,-1.01548 -0.11652,-1.39875 -0.29988,-1.39576 z m 22.63548,4.51229 c -0.2079,0 -0.33409,0.44097 -0.63167,0.72489 -0.202,1.08295 0.42552,1.93276 -0.40215,2.7503 -0.01,0 -0.013,0 -0.0151,0 l -3.1e-4,2e-4 h -2.4e-4 l -3.6e-4,3.4e-4 v 2.2e-4 l -2.5e-4,2.9e-4 v 3.1e-4 2.6e-4 3.1e-4 2.7e-4 3e-4 c 0.01,0.022 0.27505,0.14701 0.26955,0.0239 0.80519,-0.32842 2.60969,-0.39904 1.68816,-1.53349 -1.28033,-0.26884 0.61294,-2.08803 -0.47711,-1.52515 -0.18994,-0.32449 -0.32136,-0.44353 -0.43026,-0.4427 z m -4.9053,0.23596 c -0.11659,-3.2e-4 -0.17557,0.25499 0.0533,1.00248 0.47322,-0.33714 0.13514,-1.00191 -0.0533,-1.00248 z m -16.87994,0.51786 c -0.13163,0.007 -0.38766,0.27558 -0.79568,1.06167 0.72095,0.39387 1.10743,-1.07515 0.79568,-1.06167 z m 21.82137,4.26065 c -0.72187,0.14853 -2.65762,0.0779 -2.66296,1.49381 0.65448,-0.0611 0.83789,0.79324 0.86244,1.08426 0.48797,-0.49447 1.85177,-0.85828 2.855,-1.28849 0.43623,-0.89946 -1.16117,0.34211 -2.11252,0.36191 -2.27188,-0.5716 2.50156,-1.281 1.05804,-1.65149 z m 3.20112,0.19621 c -0.49487,0 0.40727,0.76322 -0.64731,1.42554 0.231,0.74017 -0.43044,0.93136 -0.52506,2.0577 0.28183,-0.15611 0.42836,-0.52044 0.71437,-0.7152 1.16105,-0.16698 1.36579,-1.68255 0.89823,-2.68202 -0.20874,-0.0589 -0.34846,-0.0849 -0.44023,-0.0855 z m -30.38289,0.31471 c -0.20745,-0.0102 -0.25406,0.12843 0.30826,0.5736 v 2.7e-4 c 0.83116,-0.1232 0.0375,-0.55615 -0.30826,-0.57387 z m -0.16093,0.65301 c -0.36923,0.0216 -1.16376,1.29426 -0.63124,1.6732 0.80372,-0.0153 0.28981,-0.72416 0.78234,-1.10491 0.061,-0.42052 -0.0171,-0.57627 -0.1511,-0.56829 z m 28.32053,0.85354 c -0.12552,-0.009 -0.44219,0.0996 -1.01915,0.38171 -2.48741,0.0429 -0.42777,1.05346 0.0815,1.56523 0.70825,1.24732 0.31993,-0.46923 0.84609,0.0778 0.18848,0.91218 0.35627,0.2126 0.47597,0.92004 -1.23361,-0.0799 -0.71631,0.37364 -0.64854,1.11778 0.54784,-0.23877 1.32733,-0.76162 0.89905,-1.78157 0.72952,-1.08493 -0.69238,-0.98699 -1.24072,-0.99817 2.28242,-0.56264 0.71131,-0.47131 -0.60168,-0.23258 0.83463,-0.46987 1.48331,-1.03552 1.20714,-1.05037 z m -8.34344,0.12325 c 0.1135,1.04822 -1.0429,-0.65583 -1.02532,0.64875 -1.1443,1.87409 0.007,-0.48733 -1.04731,0.59198 0.25334,0.59676 -0.1792,0.94619 -0.41473,2.09825 -0.82311,1.21273 0.79238,-0.41709 1.41899,-0.20232 0.47038,-0.67954 -0.38285,1.08769 -0.17415,1.42541 0.12121,1.06125 0.9868,1.75454 0.93076,2.88068 0.82629,0.90176 0.98203,2.10713 1.99985,2.06872 0.49801,0.51951 -0.67565,-2.24263 0.15931,-1.27193 -0.25185,-1.15333 -0.4876,-2.86716 -0.4876,-4.33941 -0.10992,-1.10675 -0.72033,-2.83095 -1.3598,-3.90013 z m 3.46132,0.29762 c -1.47105,0.2601 -0.55358,0.7223 0.01,1.28594 0.23798,-1.06825 -1.37408,0.13262 -0.01,-1.28594 z m -0.73644,1.33113 c -0.19763,0 -0.31533,0.27967 -0.10441,0.98511 -2.6e-4,0.41106 0.83596,-0.20871 0.61819,-0.47133 -0.13149,-0.31395 -0.35002,-0.51155 -0.51378,-0.51378 z m -2.1652,0.87915 c 0.12059,0.23688 0.25241,0.81691 0.3059,1.96185 -1.58968,0.0899 -1.28674,-1.04993 -0.3059,-1.96185 z m 1.54927,0.42234 c -0.56531,-0.0116 -0.13187,1.92453 0.13091,1.94357 v -3e-4 l 0.18132,0.0102 0.0426,-0.23429 c 0.89324,-1.23661 -0.61639,-0.31747 0.13706,-1.42624 -0.21379,-0.20485 -0.37415,-0.29109 -0.49139,-0.29355 z m 0.0102,2.26219 c -0.0323,0.0151 0.028,1.67623 0.11463,2.13187 1.66207,0.0503 -0.0704,-0.69634 -0.0316,-1.26148 -0.0443,-0.63978 -0.0702,-0.87636 -0.0824,-0.87039 z m 1.35953,1.29646 c 0.49047,1.08214 -2.54719,1.49036 -0.44397,1.85769 1.28577,-0.29895 1.57913,-0.73188 0.44397,-1.85769 z m -28.7551,0.36167 c -0.13785,0.007 -0.2166,0.24444 0.0873,0.84329 -0.15825,0.46073 0.32008,-0.0719 0.17985,-0.28497 0.0678,-0.33543 -0.12963,-0.56373 -0.26755,-0.55832 z m 9.03499,0.0356 c -0.0957,0 -0.16823,0.12333 -0.18764,0.43022 -0.56996,0.01 1.02215,0.61211 0.72923,1.37829 0.67505,0.25121 -0.14393,-1.81185 -0.54159,-1.80851 z m 14.4725,0.68094 c -1.58201,0.2516 -1.30498,1.07689 -1.69305,1.28278 0.95481,0.18968 1.66375,-0.8738 1.69305,-1.28278 z m -16.53658,1.06228 c -0.49042,-0.0222 -1.12119,1.73977 -0.88096,1.81152 0.67048,-0.27714 1.11367,-0.49136 1.2377,-1.29566 -0.0924,-0.36282 -0.21931,-0.50944 -0.35674,-0.51586 z m 10.4906,0.0851 c -0.37703,0.01 -0.76762,1.28055 -0.99303,2.22444 -0.6114,1.87502 -0.97782,4.92091 -3.62538,3.30043 -0.95792,-0.11548 -5.38025,-1.27646 -3.28996,-0.0582 1.28091,-1.21469 1.20274,0.97188 2.20737,0.48425 0.29703,1.00875 2.3386,-0.13814 1.1298,1.32812 0.85034,0.26353 1.83853,0.45948 1.63295,0.87236 -1.3333,0.68155 0.73769,0.0548 0.0512,0.61481 -0.51361,1.01817 -1.00215,1.34799 0.14112,2.1631 1.058,1.16784 -1.84193,-1.5039 -1.22869,0.62311 0.7558,0.2144 0.44689,1.87063 -0.0694,2.45977 0.24528,0.18558 1.70997,0.56401 1.37913,1.19342 0.96158,-0.39251 -0.0435,0.22601 0.83481,0.65403 h 3.5e-4 c 0.13244,0.0471 0.41238,-1.64872 -0.27071,-1.76832 0.44992,-0.40045 -0.11905,-2.18012 0.49781,-2.18915 -1.12091,-0.35985 0.58946,-0.8578 -0.76824,-1.02221 0.43972,-0.47756 1.08938,-0.35053 1.35197,-1.41888 0.55713,-0.22247 -0.0307,-2.21058 0.70552,-1.99567 -0.25367,0.12129 -0.13608,0.16404 0.11548,0.23505 0.0491,-0.0504 0.0914,-0.0756 0.10174,-0.0765 h 2.5e-4 0.0409 c 0.10456,0.0159 0.20468,0.0962 0.27782,0.20915 0.32903,0.12304 0.68034,0.32683 0.80666,0.72243 0.918,-0.428 1.35591,0.35794 1.36125,1.13471 1.00528,-1.36173 -1.92143,-2.22695 0.0137,-2.19334 -1.2681,-1.3945 2.06691,-1.09212 2.78033,-2.54276 1.175,-0.34074 1.87616,-0.42043 2.94296,-0.50355 1.06638,-0.14283 2.05182,1.39496 2.30544,3.04994 -0.17166,1.20292 1.54393,2.91412 0.44157,3.72317 0.4208,0.29055 0.45739,2.09876 1.33887,2.88807 -0.37794,0.86187 0.70778,2.07247 0.63611,1.25098 -0.55971,-1.05401 -0.67301,-2.67688 -1.01146,-2.47082 -0.82898,-1.37201 1.40982,-2.52911 -0.26927,-2.87177 -0.43141,-0.95252 0.19272,-1.25265 0.30183,-1.29462 -0.0161,0.007 -0.0464,0.0124 -0.0922,0.0228 -0.71335,-0.51341 -0.86714,-1.62656 -0.98811,-2.6839 0.27327,-1.32136 -0.29756,-2.82931 -1.02632,-2.63294 0.90482,1.74995 -2.54625,-0.17533 -3.12517,0.92773 -2.30329,0.0603 -4.41461,1.45519 -6.77723,0.80639 -0.31173,-1.66167 3.0143,-1.98691 0.69518,-3.9109 -0.16444,-0.91663 -0.35816,-1.25839 -0.55569,-1.25368 z m -13.43678,0.73368 c -0.10488,0 -0.25473,0.0526 -0.4569,0.19102 -1.76081,-0.487 -0.59314,0.32279 -0.0809,0.40044 v 0 c 0.60489,0.44263 0.99221,-0.58614 0.5377,-0.59086 z m 2.43432,1.24322 c -0.31542,-0.01 -0.57593,0.19565 0.16584,0.63446 0.52066,-0.40717 0.14984,-0.62659 -0.16584,-0.63446 z m 1.55499,3.10092 c -0.30331,-0.0137 -0.22745,0.39474 0.41487,1.06716 0.3867,0.0966 0.32827,-0.37956 0.50111,-0.55097 -0.41488,-0.34724 -0.73375,-0.5078 -0.91598,-0.51619 z m -2.64406,0.0898 c -0.0716,-0.007 -0.15418,0.18661 -0.23499,0.68515 -0.91993,-0.27325 -1.36401,0.85081 -0.59759,1.19947 0.31254,-1.35718 0.743,-0.0825 0.29795,0.8062 0.36498,0 1.64644,-0.58824 0.65837,-0.68601 0.18353,-0.6144 0.0675,-1.99506 -0.12374,-2.00481 z m 0.77515,2.95257 c -0.10047,0 -0.15935,0.0919 -0.15321,0.33024 0.49424,1.13721 1.61148,0.24136 1.46104,1.50607 h -2.8e-4 c 0.24867,-0.7582 0.77292,-0.4811 0.51607,-1.43283 -0.16003,1.26387 -1.38675,-0.4125 -1.82362,-0.40602 z m -2.69373,1.55615 c -0.73356,0.007 -1.69676,0.45105 -1.46864,1.19006 0.11592,0.30303 1.32819,-0.77462 2.09545,-0.31923 0.37553,-0.60715 -0.0567,-0.87343 -0.62681,-0.87083 z m 2.10079,0.20944 c -0.71528,0.0331 -0.8516,1.74804 0.63679,1.60232 0.76392,0.83512 1.85007,1.14249 2.2758,2.3711 h 2.8e-4 c 0.87644,-0.2576 -0.36171,-1.15113 -0.0526,-1.97728 -0.25804,-1.17252 -1.73347,-1.42863 -2.14643,-1.5519 -0.26812,-0.33151 -0.51391,-0.45389 -0.71414,-0.44424 z m 1.95734,1.14545 c 0.20446,-0.007 0.22971,0.16694 -0.32749,0.68682 -1.10703,-0.0439 -0.0633,-0.68091 0.32749,-0.68682 z m -2.66484,0.26756 c -0.17689,0.007 -0.52373,0.95068 -0.158,1.68533 0.32051,-1.24962 0.279,-1.68804 0.158,-1.68533 z m 9.16369,4.78265 c -0.32053,0.007 -0.64977,0.47769 -1.40364,0.78718 1.22395,1.16462 0.20116,1.37708 -0.32684,2.78672 1.37443,-0.0476 -0.5025,0.81235 0.89065,0.85984 1.89806,0.16384 -0.91156,0.19238 0.33018,1.37688 1.47726,0.25967 -0.35413,2.1342 1.24106,2.48024 -0.22298,-0.0149 0.5807,0.51747 0.50133,0.0802 -0.20139,-0.9807 0.18355,-2.27328 -0.0964,-2.70152 -0.53525,0.21501 0.0396,-1.89183 -0.26688,-2.40824 0.4603,-1.14481 0.99252,0.0664 1.48909,-1.69254 -0.23123,-1.23393 -1.12354,0.37372 -1.70078,-0.93267 -0.27584,-0.47223 -0.46472,-0.63856 -0.65703,-0.6361 z m -0.20174,0.58589 c 0.22058,-0.008 0.5964,0.3428 0.4382,0.76762 -0.5125,0.42815 -0.0599,-0.33684 -0.4892,-0.24252 -0.1679,-0.37054 -0.0899,-0.52088 0.0515,-0.5251 z m 16.97454,1.12123 c -0.0588,0.007 -0.1132,0.0239 -0.16463,0.0573 0.0575,-0.0153 0.11206,-0.0347 0.16463,-0.0573 z m -0.16463,0.0573 c -1.09722,0.30462 -2.90656,-0.52554 -0.76805,0.59526 0.28039,0.15859 0.47213,-0.40851 0.76805,-0.59526 z m 0.34876,0.40817 c -0.25404,0.0109 -0.50225,0.22917 -0.56314,0.90092 -1.25257,-0.0498 -1.05087,0.9552 -0.72043,1.64203 0.34433,-0.12374 0.19713,2.25468 0.57272,2.14762 -1.17174,1.04635 0.35611,1.71135 -0.323,2.8677 0.70695,0.42767 0.40262,2.98072 0.2516,4.28765 0.79483,1.23813 0.1664,2.09739 0.70584,3.57747 0.70485,0.99074 1.03182,1.79733 1.71923,2.46664 0.39443,-0.0102 0.40928,-0.0102 0.39966,-0.419 1.55969,0.14599 0.3229,-0.29895 0.86508,-1.49706 0.3999,-0.50289 0.0716,-2.79979 -0.36238,-1.51994 -1.3426,-0.36167 0.2997,-0.68623 -0.0936,-0.95768 -0.69871,0.14872 -2.10402,-0.77113 -1.53551,-0.6015 0.81936,0.13973 0.705,-0.30104 0.94238,-0.99908 -1.18227,0.42993 -0.47035,-0.0877 -0.54825,-1.18179 0.58129,-0.56015 0.38853,-0.76293 -0.13409,-1.49185 -0.0361,1.32765 -1.29486,0.79023 -0.69743,-0.28419 -0.25105,-1.37513 0.17094,-0.0976 0.28096,-1.3505 -0.46963,-0.063 0.30488,-1.43679 -0.45208,-2.03306 1.302,0.22846 -0.62799,-0.91486 0.19792,-0.96665 1.57048,0.38612 -0.77435,-1.39101 0.10719,-1.83746 -0.90284,-0.53886 0,-0.0894 0.45119,-0.68848 -0.53524,0.17346 -0.95596,-0.47839 0.12733,-0.87458 -0.0811,-0.22115 -1.7075,-0.2824 -0.71214,-0.65759 0.3845,0.01 -0.0556,-0.54786 -0.4784,-0.52962 z m -7.93766,0.57899 c -0.30407,0.01 -0.51267,0.32367 -0.0533,1.21072 1.23447,-0.48651 0.52718,-1.22318 0.0533,-1.21072 z m -5.427,1.41032 c -0.123,0.0501 -0.2509,0.0813 -0.37784,0.0763 -1.34278,0.59187 0.8155,1.41203 0.80647,2.25227 1.15642,-0.3604 -1.38762,-1.68528 -0.19427,-2.06983 z m 5.26415,0.68077 c -0.0227,3.5e-4 -0.0464,0 -0.0666,0.007 0.0356,0.0419 0.068,0.0909 0.0942,0.15178 0.0357,0.0818 0.0664,0.18406 0.0944,0.31206 0.87548,-0.15146 0.23144,-0.4745 -0.12349,-0.46939 z m -0.10695,0.0152 c -0.13024,0.0429 -0.14181,0.17685 0.17831,0.46265 0.01,0 0.0164,-0.007 0.0252,-0.007 -0.0588,-0.15681 -0.12674,-0.30999 -0.20395,-0.45857 z m -3.16316,1.08676 c -0.31467,0.0136 -0.9531,1.31967 0.10719,1.73629 0.11719,0.13478 0.14631,-0.0696 0.22847,-0.0965 0.29022,-0.22807 0.36405,-0.21977 0.62813,-0.24995 0.0142,-0.0352 0.0266,-0.0711 0.0387,-0.10726 h 0.54515 c 0.0745,-0.0178 0.15565,-0.0399 0.24505,-0.065 -0.22152,-1.14088 -1.35405,-0.15156 -1.75398,-0.23011 0.18056,-0.73237 0.1045,-0.99304 -0.0382,-0.98666 z m -9.56275,1.0056 c -0.0404,0 -0.0813,0.0143 -0.12684,0.0509 -0.21872,1.14288 0.63715,1.96651 -0.20166,2.73714 0.84577,0.22721 0.84817,-2.77114 0.3285,-2.78725 z" /></g></svg>
