<?xml version="1.0" encoding="UTF-8" standalone="no"?>
<!-- Created with Inkscape (http://www.inkscape.org/) -->

<svg
   width="63.102413mm"
   height="90.359024mm"
   viewBox="0 0 63.102413 90.359024"
   version="1.1"
   id="svg1"
   xml:space="preserve"
   xmlns="http://www.w3.org/2000/svg"
   xmlns:svg="http://www.w3.org/2000/svg"><defs
     id="defs1" /><g
     id="layer3"
     transform="translate(-1006.1298,-342.91255)"><path
       style="baseline-shift:baseline;display:inline;overflow:visible;opacity:1;vector-effect:none;fill-rule:evenodd;stroke-linecap:round;stroke-linejoin:round;enable-background:accumulate;stop-color:#000000;stop-opacity:1"
       d="m 1045.2809,342.91254 v 0.002 c -0.5556,0.009 -1.1018,0.11257 -1.625,0.1875 0,5.7e-4 -0.01,0.001 -0.01,0.002 -0.738,0.14425 -1.3155,0.62811 -1.7695,1.21289 -0.454,0.58477 -0.7905,1.27573 -1.0488,1.87304 -0.01,0.01 -0.01,0.0204 -0.012,0.0312 -0.5508,2.46989 -0.1565,4.99775 -0.1954,7.44532 -0.059,4.13389 0.7803,9.86142 0.8243,10.15039 0,0.0198 0.01,0.0389 0.019,0.0566 -0.014,-0.0258 0.021,0.0703 0.039,0.17383 0.018,0.10348 0.033,0.23395 0.043,0.36132 v 0.002 l 0.016,0.21679 -0.039,-0.0137 c -0.01,-0.002 -0.012,-0.004 -0.018,-0.006 -1.3393,-0.30224 -2.6509,-0.72704 -3.8848,-1.32422 v -0.002 c -0.041,-0.0218 -0.1437,-0.0993 -0.2558,-0.20117 -0.1136,-0.10321 -0.241,-0.23098 -0.3594,-0.35938 -0.1184,-0.12839 -0.2283,-0.25715 -0.3047,-0.35937 -0.038,-0.0511 -0.069,-0.0966 -0.086,-0.12695 -0.017,-0.0303 -0.012,-0.0589 -0.012,-0.006 0,-0.0609 -0.015,-0.093 -0.029,-0.13282 -0.014,-0.0398 -0.033,-0.0805 -0.055,-0.125 -0.044,-0.0891 -0.101,-0.18906 -0.166,-0.28515 l -0.1856,-0.27344 0.027,-0.43555 c 0.029,-0.47753 0.198,-0.66795 0.291,-0.71875 0.3376,-0.18455 0.4717,-0.53848 0.5449,-0.88281 0.073,-0.34433 0.097,-0.70553 0.1699,-0.9668 0.1269,-0.44781 0.1971,-0.71492 0.2266,-0.89843 0.015,-0.0918 0.022,-0.16435 0.01,-0.24024 -0.014,-0.0759 -0.07,-0.15743 -0.1309,-0.19531 v -0.002 c 0.033,0.0204 0.03,0.0336 0.025,0.0195 0,-0.0141 -0.012,-0.0468 -0.014,-0.0859 0,-0.076 0.01,-0.17809 0.027,-0.25976 0.023,-0.0636 0.033,-0.0843 0.039,-0.0977 0.035,-0.009 0.079,-0.0197 0.1367,-0.0449 0.1356,-0.0591 0.3138,-0.1747 0.5215,-0.40235 0.1257,-0.13752 0.301,-0.36055 0.4296,-0.60937 0.1274,-0.24637 0.2234,-0.53263 0.098,-0.79688 -0.2516,-0.68799 -0.7319,-1.13331 -1.2598,-1.56836 v -0.002 c -0.6582,-0.52181 -1.4314,-1.04124 -2.9102,-1.26367 -0.765,-0.11237 -1.5571,-0.0884 -2.3164,0.0332 v 0.002 c -0.2652,0.048 -1.6332,0.32289 -2.9063,1.21875 -0.2381,0.16752 -0.4914,0.35235 -0.7324,0.52929 -0.7785,0.46026 -1.1813,1.05741 -1.3242,1.90625 -2e-4,9.1e-4 0,0.001 0,0.002 -0.01,0.0464 -0.011,0.0819 -0.012,0.11132 -10e-5,6.8e-4 10e-5,10e-4 0,0.002 -0.023,0.15157 0.041,0.27522 0.1191,0.40039 0.079,0.12573 0.1869,0.25475 0.3125,0.38281 0.2474,0.25221 0.5601,0.50167 0.8438,0.68164 0.085,0.0662 0.1414,0.1159 0.166,0.14453 v 0.002 c 0.015,0.0168 0.012,0.0128 0.018,0.0273 0.01,0.0146 0.014,0.0509 0.025,0.11523 v -0.0312 c 0,0.0739 0.01,0.0938 0.01,0.0781 v 0.004 c 0.011,0.61221 0.2504,1.12962 0.5293,1.61329 0.01,0.01 0.013,0.0189 0.02,0.0273 0.1151,0.13339 0.1884,0.40467 0.4043,0.61719 0.011,0.0106 0.024,0.0198 0.037,0.0273 0.013,0.008 0.1615,0.13067 0.2481,0.22656 0.1522,0.16856 0.3087,0.23756 0.4316,0.26367 0.1229,0.0261 0.1901,0.0244 0.2988,0.082 0.046,0.0247 0.041,0.0251 0.053,0.0625 0,0.038 0.01,0.10074 0.012,0.19531 l 0.016,0.24023 c -0.02,0.01 -0.022,0.01 -0.055,0.0254 v 0.002 c -0.2021,0.0972 -0.3785,0.28834 -0.5605,0.55664 l 0.018,-0.0234 c -0.073,0.0764 -0.1466,0.15734 -0.2246,0.24219 -0.1937,0.21042 -0.4049,0.43773 -0.7852,0.75195 -0.3804,0.31417 -0.9329,0.71542 -1.4316,1.03125 -0.4988,0.3159 -0.9316,0.54197 -1.5723,0.72266 -0.01,10e-4 -0.012,0.002 -0.018,0.004 -0.6366,0.24616 -1.5172,0.19904 -2.209,0.66602 -0.6201,0.32476 -1.0059,0.81794 -1.3554,1.40039 -0.1114,0.18575 -0.2081,0.38854 -0.3067,0.57617 -0.2524,0.4381 -0.4429,0.86217 -0.6504,1.38086 -0.086,0.21421 -0.1235,0.40092 -0.1836,0.57422 -0.1415,0.41089 -0.2822,0.82863 -0.4043,1.25781 v 0.006 c -0.037,0.14529 -0.075,0.29428 -0.1113,0.44531 -0.055,0.14 -0.093,0.29336 -0.123,0.50196 -0.073,0.29551 -0.1509,0.59035 -0.2344,0.875 -0.3503,1.0528 0.086,0.099 -0.7813,1.90234 -0.2502,0.52049 -0.6409,1.03156 -1.0683,1.66406 -6e-4,8.7e-4 0,0.001 0,0.002 -0.027,0.0323 -0.053,0.0624 -0.072,0.082 -0.01,0.008 -0.015,0.0163 -0.021,0.0254 -0.1917,0.29027 -0.3694,0.58682 -0.5586,0.87695 -0.2001,0.30772 -0.3723,0.55518 -0.5723,0.88477 -0.021,0.0225 -0.045,0.0453 -0.064,0.0723 -0.034,0.047 -0.07,0.10254 -0.1094,0.16602 -0.079,0.12696 -0.1684,0.28192 -0.252,0.43554 -0.083,0.15363 -0.1611,0.30508 -0.2187,0.42188 -0.029,0.0584 -0.053,0.10723 -0.07,0.14648 -0.01,0.0196 -0.015,0.0372 -0.021,0.0547 0,0.009 -0.01,0.0174 -0.01,0.0312 0,0.005 -8e-4,0.0135 0,0.0215 -0.473,0.67957 -0.7046,1.42245 -0.9903,2.15429 v 0.002 c -0.1715,0.46299 -0.3868,1.09323 -0.5586,1.98242 -1e-4,0.004 -1e-4,0.008 0,0.0117 -0.045,0.35017 -0.1213,0.54574 -0.1504,0.85547 -2e-4,10e-4 3e-4,0.003 0,0.004 -2e-4,0.003 0,0.005 0,0.008 -0.067,0.41219 -0.1298,0.84203 -0.1934,1.27149 -5e-4,0.003 0,0.006 0,0.01 0,0.003 0.01,0.007 0.01,0.01 -0.029,0.1756 0.04,0.34574 0.168,0.51367 0.085,0.11163 0.1062,0.20886 0.088,0.3125 -0.018,0.10365 -0.087,0.22417 -0.2266,0.34961 -0.07,0.0629 -0.1323,0.1276 -0.1816,0.18555 -0.025,0.029 -0.046,0.0551 -0.064,0.084 0,0.005 0,0.019 -0.01,0.0234 -0.01,10e-4 -0.01,0.002 -0.016,0.002 -0.084,0 -0.176,0.026 -0.2481,0.0801 -0.036,0.0272 -0.057,0.0685 -0.084,0.10352 l -3.334,-0.65039 c -0.023,-0.004 -0.045,-0.004 -0.068,0 -0.2457,0.0466 -0.49,0.10448 -0.7305,0.17578 -0.2029,0.0603 -0.5834,0.24016 -0.9004,0.47461 -0.4139,0.30628 -0.7732,0.6599 -1.0703,1.04687 0,0.006 -0.01,0.0115 -0.012,0.0176 -0.1343,0.22223 -0.2007,0.33257 -0.2344,0.38867 -0.015,0.0246 -0.021,0.0352 -0.025,0.043 -2e-4,4.2e-4 0,0.002 0,0.002 -2e-4,2.1e-4 1e-4,0.002 0,0.002 -2e-4,3.6e-4 0,0.002 0,0.002 v 0.006 c -7e-4,10e-4 0,0.003 0,0.004 -0.01,0.008 -0.014,0.0213 -0.031,0.0488 -0.034,0.0551 -0.1032,0.16544 -0.2383,0.38477 -0.017,0.0283 -0.025,0.0608 -0.025,0.0937 l 0.016,-0.0762 c -0.5222,1.10832 -0.5969,2.36486 -0.1133,3.49414 0.3929,0.91734 1.0621,1.64073 2.0762,2.0625 0.021,0.009 0.043,0.0134 0.066,0.0137 0.2427,0.004 0.4396,-0.066 0.5703,-0.19531 0.1306,-0.12935 0.182,-0.30406 0.1816,-0.46875 -7e-4,-0.32939 -0.1618,-0.65624 -0.4355,-0.81055 l 0.014,0.008 c -0.7888,-0.53631 -1.0497,-1.3438 -0.9921,-2.30078 0.041,-0.59773 0.2739,-1.13925 0.6328,-1.59961 0.3349,-0.39686 0.8044,-0.77911 1.2246,-1.02148 l 3.0156,0.59961 c 0.2077,0.91419 0.6661,1.67377 0.7617,2.5039 0.026,0.25036 0.016,0.46379 0.039,0.67188 0.023,0.20869 0.091,0.42135 0.2695,0.59765 0.4329,0.42661 0.1051,0.54097 1.7363,1.01172 0.021,0.007 0.043,0.009 0.065,0.008 1.1957,-0.10132 1.4789,-0.0758 2.1016,-0.13282 -0.1276,1.01827 0.109,1.83417 0.3457,2.31446 -0.066,0.27373 -0.1257,0.54767 -0.1719,0.82812 -0.1947,0.92051 -0.3766,1.72269 -0.6914,2.70313 -0.1458,0.45367 -0.1311,1.09365 -0.8086,1.41211 -0.011,0.005 -0.021,0.012 -0.031,0.0195 0.032,-0.0239 0.022,-0.0114 0,-0.006 -0.026,0.006 -0.069,0.0123 -0.123,0.0195 -0.1079,0.0144 -0.2625,0.0325 -0.4531,0.0625 -0.3814,0.06 -0.9096,0.17096 -1.5469,0.41601 -1.2746,0.49011 -2.9815,1.51643 -4.8418,3.72461 v 0.004 c -3.5308,4.4384 -4.9731,10.46285 -3.959,16.05273 v 0.002 c 0.5372,2.74668 1.8835,5.50386 4.2773,7.09179 v 0.002 c 0.9277,0.5965 1.9847,0.95407 3.0684,1.07812 0.1146,0.0339 0.2456,0.0419 0.4023,0.0391 0.089,0.005 0.1764,0.01 0.2656,0.0117 0.2301,0.0334 0.3606,0.12641 0.4004,0.20508 0.04,0.0791 0.038,0.17548 -0.1055,0.33008 -0.2186,0.23635 -0.3281,0.57518 -0.3281,0.94531 0,0.14506 -0.017,0.19615 -0.016,0.19532 -0.01,0.005 -0.017,0.0112 -0.039,0.0332 -0.055,0.0548 -0.098,0.14842 -0.1172,0.27734 -0.019,0.1281 -0.026,0.31176 -0.017,0.60742 0,1.00815 0.8159,1.82422 1.8242,1.82422 h 35.7305 c 0.2066,0 0.4041,-0.0344 0.5898,-0.0977 0.024,-0.008 0.046,-0.0203 0.065,-0.0371 0.5112,-0.4694 0.6474,-0.57435 0.7363,-0.65821 0.044,-0.0419 0.077,-0.0814 0.1152,-0.13476 0.039,-0.0533 0.09,-0.12792 0.1992,-0.27149 0.013,-0.0158 0.022,-0.0336 0.029,-0.0527 0.059,-0.17995 0.09,-0.37233 0.09,-0.57227 0,-0.63501 -0.3401,-1.1772 -0.8321,-1.5039 l -0.059,-0.42969 c 10e-5,-0.003 10e-5,-0.005 0,-0.008 -0.067,-0.36291 -0.211,-0.66284 -0.2266,-0.92774 0.6499,0.0858 1.3031,0.14258 1.959,0.14258 5.6357,-0.0131 10.773,-3.18958 13.2442,-8.1875 v -0.008 c 0.085,-0.12911 0.1683,-0.26681 0.2011,-0.41016 l -0.016,0.041 c 0.034,-0.0657 0.067,-0.13039 0.1,-0.19531 l -0.014,0.0215 c 0.037,-0.0543 0.063,-0.11303 0.092,-0.18164 0.7673,-1.79135 1.164,-3.71534 1.1661,-5.66016 0,-8.05146 -6.6201,-14.58014 -14.7774,-14.58007 -1.5616,0 -3.1065,0.27486 -4.5898,0.7539 0,-0.0236 -0.018,-0.0394 -0.031,-0.33789 -0.016,-0.38123 -0.027,-1.05757 -0.047,-2.26172 v -0.004 c -0.048,-1.32372 -0.095,-2.66442 -0.3769,-3.98438 10e-5,-0.003 10e-5,-0.005 0,-0.008 -0.049,-0.19412 -0.075,-0.65717 -0.062,-1.08985 0.01,-0.21633 0.022,-0.42927 0.043,-0.60351 0.021,-0.17424 0.053,-0.31739 0.072,-0.36133 l -0.07,0.082 c 0.6869,-0.42435 1.2486,-1.18509 1.6172,-2.1582 4e-4,-0.006 4e-4,-0.013 0,-0.0195 l 0.3574,-1.35742 c 3e-4,-0.006 3e-4,-0.0117 0,-0.0176 0.1743,-1.08568 0.1207,-2.22736 -0.1484,-3.26367 -0.012,-0.0958 -0.033,-0.18965 -0.078,-0.2793 -0.069,-0.22472 -0.154,-0.43551 -0.2422,-0.64258 0.3501,-0.0922 0.5851,-0.33173 0.8066,-0.47461 0.01,-0.004 0.014,-0.009 0.02,-0.0137 1.0862,-0.92981 1.4574,-2.3746 1.707,-3.64648 0.044,-0.16182 0.023,-0.33275 -0.01,-0.51758 -0.029,-0.18693 -0.073,-0.38057 -0.1074,-0.53711 -0.2826,-1.27839 -1.4579,-3.25967 -2.3984,-4.22656 v -0.002 c -0.6888,-0.68207 -1.3576,-1.5452 -2.2187,-2.10937 -0.03,-0.0195 -0.064,-0.0297 -0.1,-0.0293 -0.022,0 0.015,0.0266 0,-0.01 -0.019,-0.0364 -0.051,-0.15058 -0.066,-0.3457 -0.032,-0.38857 -0.021,-1.10204 0.02,-2.29492 v -0.002 c 0.012,-0.14426 0,-0.34317 -0.012,-0.48047 v 0.004 c -0.01,-0.15867 0,-0.82099 0.031,-1.52929 0.027,-0.7083 0.063,-1.48438 0.098,-1.92774 0.073,-0.94888 0.1406,-1.89617 0.2227,-2.84179 0.038,-0.42647 0.08,-1.3665 0.096,-2.11133 v -0.008 c 0.2543,-4.43209 0.3232,-8.98145 0.035,-13.46094 1e-4,-0.003 1e-4,-0.005 0,-0.008 -0.035,-0.31116 -0.086,-0.86987 -0.1113,-1.23243 -0.072,-1.03266 -0.5141,-1.78709 -1.0371,-2.29492 -0.5217,-0.50657 -1.1149,-0.77313 -1.5371,-0.86133 -0.3342,-0.10026 -0.6704,-0.13334 -1.002,-0.13086 v -0.002 c 0,2e-5 0,-2e-5 -0.01,0 0,10e-6 0,-1e-5 0,0 v 0.002 c 0,3e-5 0,-2e-5 -0.01,0 v -0.002 z m 0.022,0.35742 c 0.3106,-0.003 0.6128,0.0305 0.9101,0.1211 0.01,0.002 0.011,0.003 0.016,0.004 0.3432,0.0711 0.8961,0.3121 1.3652,0.76758 0.4691,0.45549 0.8635,1.11998 0.9297,2.06445 0.026,0.36674 0.075,0.91596 0.1113,1.23829 0.287,4.46298 0.219,8.99963 -0.035,13.42382 v 0.006 c -0.016,0.73921 -0.058,1.69165 -0.094,2.09571 -0.082,0.94933 -0.1497,1.89822 -0.2226,2.8457 -0.035,0.45492 -0.075,1.23007 -0.1016,1.94141 -0.027,0.71133 -0.042,1.33877 -0.029,1.5625 v 0.004 c 0.01,0.12836 0.017,0.33522 0.01,0.42383 -10e-5,0.003 -10e-5,0.007 0,0.01 -0.041,1.2046 -0.054,1.91559 -0.02,2.3457 0.018,0.21505 0.043,0.35967 0.1055,0.48047 0.063,0.1208 0.2059,0.20312 0.3223,0.20312 l -0.098,-0.0293 c 0.7905,0.5179 1.4515,1.36075 2.1641,2.0664 0.87,0.89595 2.0503,2.90887 2.3027,4.05078 0.035,0.15838 0.078,0.34496 0.1035,0.51367 0.026,0.16872 0.027,0.32555 0.014,0.37305 -2e-4,0.005 -2e-4,0.009 0,0.0137 -0.246,1.2559 -0.6128,2.60951 -1.5898,3.44727 -0.2709,0.17843 -0.4718,0.37981 -0.7031,0.43164 -0.085,0.016 -0.1622,0.0477 -0.2266,0.0977 -0.066,0.0511 -0.088,0.14101 -0.053,0.21679 0.1143,0.24743 0.2131,0.51154 0.2968,0.79102 0,0.0101 0.01,0.0199 0.012,0.0293 0.025,0.0495 0.039,0.10004 0.047,0.17187 0,0.009 0.01,0.0172 0.01,0.0254 0.2581,0.98739 0.3075,2.08936 0.1406,3.12891 l -0.3496,1.32617 c -0.3478,0.91653 -0.8705,1.61012 -1.4668,1.97851 -0.031,0.0195 -0.056,0.0481 -0.07,0.082 -0.052,0.12063 -0.077,0.27003 -0.1,0.45898 -0.023,0.18895 -0.038,0.40942 -0.045,0.63477 -0.013,0.45069 6e-4,0.90696 0.072,1.18945 v -0.006 c 0.2735,1.27897 0.3211,2.59971 0.3691,3.92383 0.019,1.20052 0.03,1.8768 0.047,2.26758 0.017,0.39145 0.023,0.51629 0.1094,0.63086 0.046,0.0622 0.1276,0.0875 0.2011,0.0625 1.5028,-0.50733 3.0796,-0.76758 4.668,-0.76758 7.9664,-6e-5 14.418,6.3673 14.418,14.22265 0,1.89704 -0.388,3.77396 -1.1367,5.52149 v 0.002 c -0.024,0.0569 -0.05,0.10579 -0.057,0.11524 -0.01,0.007 -0.01,0.0153 -0.014,0.0234 -0.032,0.0646 -0.063,0.12679 -0.096,0.18946 -0.01,0.0136 -0.013,0.028 -0.016,0.043 -0.01,0.039 -0.082,0.18936 -0.1543,0.29883 0,0.007 -0.01,0.0141 -0.01,0.0215 -2.4066,4.88688 -7.4263,7.99497 -12.9356,8.00781 -0.7098,0 -1.4191,-0.0533 -2.1211,-0.15625 -0.096,-0.0132 -0.1854,0.0526 -0.2011,0.14844 l -0.016,0.0898 c -3e-4,0.006 -3e-4,0.0117 0,0.0176 -0.029,0.43628 0.1996,0.80311 0.2558,1.10742 l 0.064,0.47266 c 0.01,0.0549 0.04,0.10321 0.088,0.13086 0.4388,0.25291 0.7344,0.72616 0.7344,1.27343 0,0.15554 -0.028,0.30311 -0.072,0.44336 -0.086,0.11437 -0.1486,0.20118 -0.1797,0.24414 -0.036,0.0493 -0.041,0.056 -0.07,0.084 -0.056,0.0531 -0.2402,0.20499 -0.6953,0.62109 -0.1421,0.0457 -0.2908,0.0742 -0.4492,0.0742 h -35.7305 c -0.8162,0 -1.4668,-0.65076 -1.4668,-1.4668 v -0.006 c -0.01,-0.28872 3e-4,-0.45901 0.014,-0.54882 0.013,-0.0898 0.019,-0.0799 0.016,-0.0762 0,0.002 0.01,-0.003 0.029,-0.0234 0.024,-0.0203 0.059,-0.0571 0.08,-0.10157 0.043,-0.089 0.051,-0.18717 0.051,-0.35742 0,-0.29813 0.094,-0.55117 0.2344,-0.70312 0.2081,-0.22482 0.274,-0.50762 0.1602,-0.73242 -0.1138,-0.22481 -0.3623,-0.35884 -0.67,-0.40235 -0.01,-4.1e-4 -0.014,-4.1e-4 -0.021,0 -0.095,-0.002 -0.1896,-0.006 -0.2852,-0.0117 0,-8.5e-4 -0.01,-0.002 -0.014,-0.002 -0.138,0.002 -0.2883,-0.0169 -0.3027,-0.0215 -0.011,-0.004 -0.023,-0.007 -0.035,-0.008 -1.0368,-0.11607 -2.0481,-0.46167 -2.9316,-1.02929 v -0.002 c -2.2839,-1.51621 -3.5969,-4.17867 -4.1211,-6.85742 v -0.002 c -0.9944,-5.4843 0.4256,-11.40872 3.8847,-15.75977 v -0.004 c 1.8244,-2.16404 3.4758,-3.14897 4.6934,-3.61719 0.6093,-0.23429 1.11,-0.33913 1.4746,-0.39649 0.1823,-0.0287 0.3307,-0.0453 0.4453,-0.0605 0.057,-0.008 0.1056,-0.0157 0.1504,-0.0254 0.038,-0.008 0.075,-0.022 0.1211,-0.0508 0.8376,-0.40526 0.8812,-1.2881 0.9863,-1.61524 0.3209,-0.99921 0.5072,-1.81927 0.7031,-2.74609 1e-4,-0.003 1e-4,-0.005 0,-0.008 0.047,-0.28605 0.1085,-0.5692 0.1777,-0.85352 0.01,-0.0416 0,-0.0853 -0.016,-0.12305 -0.2362,-0.46014 -0.5358,-1.30209 -0.3359,-2.38281 0.021,-0.11728 -0.077,-0.22161 -0.1953,-0.20898 -0.7213,0.0786 -0.9929,0.0367 -2.2481,0.14062 -1.5544,-0.4506 -1.0488,-0.40967 -1.5605,-0.91406 -0.1153,-0.11377 -0.1476,-0.21529 -0.166,-0.38281 -0.018,-0.16752 -0.01,-0.39226 -0.039,-0.67188 v -0.002 c -0.1105,-0.95969 -0.6106,-1.74075 -0.791,-2.61133 -0.01,-0.0338 -0.023,-0.065 -0.047,-0.0898 0.014,0.015 0,0.004 -0.01,-0.0156 -0.026,-0.0417 -0.069,-0.0707 -0.1172,-0.0801 l -3.1777,-0.63281 c -0.042,-0.008 -0.086,-0.002 -0.1231,0.0195 -0.4803,0.26731 -0.9942,0.69201 -1.373,1.14258 v 0.006 c -0.3976,0.50992 -0.6615,1.1229 -0.7071,1.79883 -0.062,1.03752 0.2486,2.00733 1.1485,2.61914 0,0.003 0.01,0.006 0.012,0.008 0.1064,0.06 0.2535,0.30872 0.2539,0.49805 2e-4,0.0947 -0.026,0.16551 -0.076,0.21484 -0.045,0.0445 -0.1378,0.0765 -0.2812,0.082 -0.9106,-0.38972 -1.4943,-1.01556 -1.8516,-1.84961 -0.4399,-1.02746 -0.3727,-2.17183 0.1094,-3.19726 5e-4,-0.001 -6e-4,-0.003 0,-0.004 0.1232,-0.2 0.1945,-0.31386 0.2265,-0.36523 0.015,-0.0242 0.022,-0.035 0.025,-0.041 10e-5,-2e-5 0,-10e-4 0,-0.002 v -0.002 c 0,-0.004 0.01,-0.009 0.01,-0.01 0,-0.003 0,-0.004 0.01,-0.008 0,-0.007 0.012,-0.021 0.029,-0.0488 0.032,-0.0532 0.1005,-0.17093 0.2226,-0.37305 v -0.002 c 0.2762,-0.35934 0.6113,-0.69047 0.998,-0.97656 0.2715,-0.20082 0.6718,-0.38311 0.7891,-0.41797 0.2182,-0.0647 0.4405,-0.11676 0.664,-0.16016 l 3.3985,0.66211 c 0.023,0.005 0.047,0.005 0.07,0 0.019,-0.004 0.041,-0.0106 0.062,-0.0234 0.011,-0.006 0.031,-0.023 0.031,-0.0234 5e-4,-4.5e-4 0.025,-0.0289 0.025,-0.0293 4e-4,-5.4e-4 0.01,-0.0196 0.018,-0.0371 v 0.0137 c 0.03,-0.0571 0.054,-0.0823 0.064,-0.0898 0.01,-0.008 0.01,-0.008 0.033,-0.008 0.063,0 0.1218,-0.009 0.1796,-0.0332 0.029,-0.0122 0.059,-0.0279 0.09,-0.0586 0.031,-0.0307 0.064,-0.0858 0.064,-0.15235 0,0.0795 -0.015,0.0647 -0.01,0.0566 0.01,-0.008 0.017,-0.0278 0.035,-0.0488 0.036,-0.042 0.091,-0.0974 0.1504,-0.15039 0.1819,-0.16318 0.3037,-0.34894 0.3399,-0.55274 0.036,-0.20379 -0.022,-0.41604 -0.1563,-0.5918 -0.1072,-0.14087 -0.1194,-0.19601 -0.1094,-0.24414 0,-0.0884 -0.059,-0.16557 -0.1464,-0.18164 l 0.1484,0.17188 c 0.065,-0.43705 0.1296,-0.87417 0.1973,-1.28906 10e-5,-0.004 10e-5,-0.008 0,-0.0117 0.024,-0.26616 0.098,-0.46516 0.1484,-0.84375 v -0.002 c 5e-4,-0.004 0,-0.004 0,-0.008 0.1666,-0.85836 0.3715,-1.46196 0.539,-1.91406 v -0.002 c 0.3021,-0.77432 0.5164,-1.50661 0.9766,-2.14063 0.021,-0.0292 0.032,-0.0639 0.033,-0.0996 v 0.0215 c 0,0.007 -6e-4,0.008 0,0.006 0,-0.003 0,-0.0159 0.012,-0.0312 0.014,-0.0307 0.035,-0.0773 0.062,-0.13282 0.055,-0.1111 0.1315,-0.25857 0.2129,-0.4082 0.081,-0.14963 0.1674,-0.30242 0.2402,-0.41992 0.036,-0.0588 0.07,-0.10724 0.096,-0.14258 0.026,-0.0353 0.055,-0.0587 0.033,-0.043 0.02,-0.0141 0.036,-0.032 0.049,-0.0527 0.1944,-0.3204 0.3615,-0.56501 0.5644,-0.87696 0.191,-0.29282 0.3671,-0.58445 0.5508,-0.86328 0.029,-0.03 0.058,-0.0624 0.09,-0.10156 0,-0.004 0.01,-0.009 0.01,-0.0137 0.4213,-0.6235 0.8223,-1.14431 1.0957,-1.71289 0.8684,-1.80673 0.4523,-0.90377 0.8008,-1.94922 v -0.006 c 0.088,-0.29842 0.167,-0.60506 0.2422,-0.9082 3e-4,-0.006 3e-4,-0.0117 0,-0.0176 0.029,-0.20371 0.062,-0.33446 0.1074,-0.44336 0,-0.008 0.01,-0.0167 0.01,-0.0254 0.036,-0.14819 0.071,-0.29491 0.1074,-0.4375 v -0.004 c 0.1189,-0.4174 0.2562,-0.82694 0.3965,-1.23437 0.07,-0.20048 0.1055,-0.37629 0.1778,-0.55664 v -0.002 c 0.2054,-0.51354 0.3897,-0.92089 0.6328,-1.34179 v -0.006 c 0.1026,-0.19525 0.1996,-0.39309 0.2989,-0.5586 0.3379,-0.56319 0.6723,-0.98947 1.2187,-1.27343 0.01,-0.004 0.013,-0.007 0.019,-0.0117 0.5516,-0.37789 1.3889,-0.34406 2.1309,-0.625 v -0.002 c 0.673,-0.19032 1.1516,-0.43716 1.6641,-0.76172 0.5136,-0.32527 1.0729,-0.73165 1.4687,-1.05859 0.3957,-0.327 0.6258,-0.57384 0.8203,-0.78516 0.078,-0.0853 0.1515,-0.16551 0.2207,-0.23828 0.01,-0.007 0.013,-0.0151 0.018,-0.0234 0.1632,-0.24057 0.3205,-0.3858 0.4199,-0.4336 0.037,-0.0177 0.1202,-0.0355 0.2071,-0.11719 0.039,-0.0365 0.06,-0.0889 0.057,-0.14257 l -0.022,-0.35157 v -0.002 c -0.01,-0.0929 0,-0.16799 -0.018,-0.25195 0,-0.009 -0.01,-0.0186 -0.01,-0.0274 -0.035,-0.10267 -0.1163,-0.21059 -0.2265,-0.26953 -0.1699,-0.09 -0.3103,-0.0997 -0.3926,-0.11718 -0.082,-0.0175 -0.1268,-0.0287 -0.2402,-0.1543 -0.1074,-0.11893 -0.221,-0.2308 -0.3359,-0.29688 l 0.035,0.0273 c -0.1155,-0.11366 -0.1901,-0.3723 -0.3828,-0.59571 l 0.019,0.0274 c -0.2681,-0.46499 -0.4732,-0.91936 -0.4824,-1.44141 -9e-4,-0.0637 -0.01,-0.0993 -0.01,-0.0742 8e-4,-0.01 8e-4,-0.0195 0,-0.0293 -0.012,-0.0693 -0.022,-0.12042 -0.041,-0.17383 -0.019,-0.0526 -0.051,-0.10442 -0.084,-0.14258 v -0.002 c -0.054,-0.0621 -0.1232,-0.12089 -0.2168,-0.19336 0,-0.004 -0.01,-0.007 -0.014,-0.01 -0.2594,-0.16304 -0.5658,-0.40897 -0.793,-0.64062 -0.1136,-0.11583 -0.2079,-0.22842 -0.2656,-0.32032 -0.058,-0.0919 -0.066,-0.16087 -0.066,-0.1582 7e-4,-0.009 7e-4,-0.0182 0,-0.0273 0,-0.0319 -4e-4,-0.0485 0,-0.0664 2e-4,-0.005 2e-4,-0.009 0,-0.0137 0.1298,-0.77455 0.4419,-1.23588 1.1562,-1.6582 0.01,-0.003 0.011,-0.006 0.016,-0.01 0.2438,-0.17912 0.4999,-0.36607 0.7402,-0.53516 1.2021,-0.84586 2.5258,-1.11712 2.7637,-1.16015 0.7269,-0.11607 1.4818,-0.13719 2.2031,-0.0312 1.4178,0.21327 2.0968,0.67743 2.7402,1.1875 0.5218,0.43013 0.9421,0.8209 1.1582,1.42383 0,0.006 0.01,0.0119 0.01,0.0176 0.041,0.0838 0.01,0.2753 -0.098,0.48243 -0.1071,0.20712 -0.2693,0.41565 -0.375,0.53125 -0.1796,0.19684 -0.3146,0.27815 -0.4024,0.3164 -0.044,0.0191 -0.076,0.0275 -0.1054,0.0352 -0.015,0.004 -0.029,0.007 -0.051,0.0137 -0.021,0.007 -0.059,0.0114 -0.1055,0.0723 -0.054,0.0694 -0.075,0.13583 -0.1113,0.24218 0,0.004 -0.01,0.009 -0.01,0.0137 -0.029,0.11916 -0.043,0.25102 -0.037,0.37304 0,0.061 0.01,0.11892 0.029,0.17774 0.019,0.0588 0.051,0.12567 0.1289,0.17382 v 0 c -0.011,-0.007 -0.032,-0.0442 -0.031,-0.041 6e-4,0.003 0,0.0446 -0.01,0.11719 -0.023,0.14509 -0.093,0.4122 -0.2188,0.85742 v 0.002 c -0.089,0.31935 -0.1105,0.68154 -0.1758,0.98828 -0.065,0.30674 -0.1626,0.53185 -0.3652,0.64258 -0.2435,0.13307 -0.4432,0.4564 -0.4766,1.01172 l -0.031,0.49609 c 0,0.0395 0.01,0.0787 0.031,0.11133 l 0.2188,0.32422 c 0.055,0.082 0.1073,0.1706 0.1426,0.24219 0.018,0.0358 0.031,0.0662 0.039,0.0879 0.01,0.0216 0.01,0.0398 0.01,0.0117 0,0.0948 0.031,0.13047 0.061,0.18164 0.029,0.0512 0.065,0.10538 0.1094,0.16406 0.088,0.11737 0.2033,0.25337 0.3281,0.38867 0.1248,0.13531 0.259,0.27031 0.3828,0.38281 0.1239,0.11251 0.2291,0.20075 0.336,0.25586 v 0.002 c 1.2646,0.61249 2.6047,1.04613 3.9668,1.35351 l -0.018,-0.004 0.2969,0.0977 c 0.1212,0.0398 0.244,-0.0563 0.2344,-0.18359 l -0.037,-0.48438 c -0.01,-0.13906 -0.027,-0.27812 -0.047,-0.39453 -0.02,-0.11641 -0.026,-0.18976 -0.076,-0.2832 l 0.02,0.0566 c -0.04,-0.26219 -0.8809,-6.00955 -0.8222,-10.08984 0.039,-2.4829 -0.3402,-4.97752 0.1855,-7.35547 0.2522,-0.58177 0.5753,-1.24179 0.9942,-1.78125 0.4217,-0.5433 0.9335,-0.9574 1.5566,-1.08008 9e-4,-1.8e-4 10e-4,-0.002 0,-0.002 0.537,-0.0772 1.0706,-0.1772 1.586,-0.1836 z m -3.8223,30.57422 v 0.002 c -0.031,0.002 -0.06,0.0111 -0.086,0.0274 -0.3331,0.21757 -0.4129,0.61753 -0.4258,0.98437 -0.013,0.36685 0.036,0.74025 0.027,0.95118 -2e-4,0.005 -2e-4,0.009 0,0.0137 0.02,0.59772 0.1372,1.13847 -0.1133,1.58789 0,0.005 -0.01,0.0102 -0.01,0.0156 -0.1717,0.39276 -0.3654,0.77593 -0.5781,1.14844 -0.023,0.0403 -0.029,0.0879 -0.018,0.13281 0.1871,0.75116 0.4081,1.38596 0.6074,1.83399 0.1,0.22401 0.1912,0.39951 0.2793,0.52734 0.044,0.0639 0.087,0.11662 0.1387,0.16016 0.052,0.0435 0.1312,0.0979 0.2422,0.0664 -0.014,0.004 0.039,-0.008 0.092,-0.0117 0.053,-0.004 0.119,-0.006 0.1796,-0.006 0.014,2.5e-4 0.028,-10e-4 0.041,-0.004 0.3228,-0.0777 0.5655,-0.31812 0.7422,-0.61524 0.1766,-0.29711 0.2978,-0.65941 0.3808,-1.0371 0.166,-0.75539 0.1825,-1.56082 0.1231,-2.00782 -0.024,-0.97438 -0.049,-1.54857 -0.1524,-1.95117 -0.1044,-0.40664 -0.3111,-0.64159 -0.6094,-0.86719 -0.1763,-0.13338 -0.249,-0.23104 -0.3046,-0.39453 -0.053,-0.15372 -0.1225,-0.2814 -0.2071,-0.3789 -0.084,-0.0964 -0.1846,-0.17393 -0.3242,-0.17579 -7e-4,-1e-5 0,10e-6 0,0 0,-3e-5 -0.01,-0.002 -0.01,-0.002 0,6e-5 -0.01,-6e-5 -0.01,0 z m 0.072,0.41016 c 0,0.002 3e-4,10e-5 0,0.002 0.046,0.0528 0.1006,0.14467 0.1407,0.26172 0.076,0.22389 0.214,0.40232 0.4257,0.5625 0.274,0.20718 0.3913,0.33027 0.4786,0.66992 0.087,0.33965 0.1206,0.90214 0.1445,1.89063 -4e-4,0.006 -4e-4,0.013 0,0.0195 0.05,0.37764 0.036,1.17614 -0.1191,1.88281 -0.078,0.35333 -0.1911,0.68677 -0.3379,0.93359 -0.1462,0.24583 -0.3167,0.39652 -0.5156,0.44532 -0.057,8.4e-4 -0.1153,0.002 -0.166,0.006 -0.035,0.003 -0.062,0.008 -0.09,0.0117 -0.014,-0.0136 -0.035,-0.034 -0.062,-0.0742 -0.067,-0.0967 -0.154,-0.2594 -0.248,-0.47071 -0.182,-0.40907 -0.3877,-1.01643 -0.5664,-1.71875 0.1994,-0.35471 0.3851,-0.71692 0.5488,-1.08984 0.3286,-0.58941 0.177,-1.224 0.1582,-1.77344 0.01,-0.27377 -0.037,-0.62286 -0.025,-0.94336 0.01,-0.28634 0.092,-0.48341 0.2305,-0.61523 z m -17.6504,3.15429 c -0.1335,0.004 -0.2536,0.0845 -0.3359,0.19727 -0.046,0.0634 -0.2245,0.27461 -0.3731,0.4375 -0.2183,0.2393 -0.3313,0.44288 -0.3926,0.71289 -0.07,0.30713 -0.2945,0.68399 -0.7461,1.19336 -0.4556,0.51377 -0.6368,0.80749 -0.7285,1.20313 -0.076,0.3281 -0.2971,0.63878 -0.4961,0.75195 -0.078,0.0444 -0.1483,0.099 -0.1972,0.17773 -0.049,0.0787 -0.066,0.17035 -0.066,0.25782 -10e-4,0.0434 -0.047,0.24105 -0.096,0.3496 -0.065,0.14267 -0.1301,0.31073 -0.1582,0.42188 v 0.002 c 0.01,-0.0268 -0.016,0.0292 -0.066,0.0898 -0.05,0.0607 -0.1228,0.14011 -0.2109,0.22656 -0.1762,0.1729 -0.4122,0.38032 -0.6543,0.57812 -0.2421,0.19781 -0.491,0.38703 -0.6934,0.52344 -0.1011,0.0682 -0.1903,0.12277 -0.2578,0.1582 -0.067,0.0354 -0.1274,0.043 -0.09,0.043 -0.1049,0 -0.1458,0.0276 -0.2207,0.0586 -0.075,0.031 -0.1574,0.0721 -0.2402,0.11523 -0.083,0.0431 -0.1652,0.0879 -0.2325,0.13086 -0.034,0.0215 -0.062,0.043 -0.09,0.0645 -0.027,0.0215 -0.053,0.0355 -0.084,0.0859 -0.079,0.12739 -0.086,0.25577 -0.09,0.39258 0,0.0684 0,0.13583 0.012,0.19922 0.01,0.0634 0.015,0.12192 0.076,0.19531 v 0.006 c -0.014,0.0483 -0.019,0.10874 0,0.1582 0.024,0.0556 0.061,0.09 0.096,0.11524 0.07,0.0505 0.1448,0.0763 0.2442,0.10547 0.087,0.0258 0.3371,0.17033 0.4707,0.29297 v 0.002 c 0.2283,0.20065 0.3781,0.26873 0.5234,0.5293 0.011,0.0194 0.033,0.13222 0.039,0.26562 0.01,0.1334 0.01,0.28703 0.053,0.4375 0.02,0.0618 0.071,0.10813 0.1348,0.12109 l 2.1758,0.4336 c 0.075,0.0147 0.1511,-0.0198 0.1894,-0.0859 0.09,-0.15357 0.1921,-0.36582 0.2754,-0.55469 0.042,-0.0944 0.078,-0.18156 0.1055,-0.25195 0.014,-0.0352 0.026,-0.0672 0.035,-0.0937 0.01,-0.0265 0.016,-0.0387 0.021,-0.0801 2e-4,-0.005 2e-4,-0.0104 0,-0.0156 0.019,-0.33291 0.084,-0.77095 0.1641,-1.13672 0.04,-0.18289 0.085,-0.34825 0.125,-0.47266 0.04,-0.12441 0.099,-0.21726 0.08,-0.19726 v 0 c 0.056,-0.0574 0.056,-0.088 0.066,-0.12305 0.01,-0.0351 0.018,-0.0714 0.023,-0.11133 0.011,-0.0798 0.018,-0.17274 0.018,-0.26953 0,-0.35945 0.1052,-0.58145 0.2402,-0.66992 0.206,-0.13495 0.3683,-0.34318 0.5079,-0.65039 0.1395,-0.30721 0.262,-0.71853 0.4023,-1.29688 0.028,-0.11689 0.1376,-0.33831 0.25,-0.53711 0.1124,-0.19879 0.2225,-0.36999 0.2773,-0.49218 0.03,-0.067 0.038,-0.11731 0.062,-0.19727 0.024,-0.08 0.056,-0.17286 0.094,-0.25781 0.1589,-0.35553 0.2554,-0.90093 0.3008,-1.46875 0.045,-0.56783 0.037,-1.14793 -0.055,-1.56446 -0.031,-0.14112 -0.087,-0.26144 -0.168,-0.35351 -0.081,-0.0916 -0.1971,-0.15753 -0.3262,-0.15235 z m 0.014,0.35743 c 0,-8e-5 0.016,-0.002 0.045,0.0312 0.029,0.0332 0.065,0.10061 0.086,0.19531 0.077,0.35006 0.092,0.9138 0.049,1.45703 -0.043,0.54324 -0.1486,1.07659 -0.2715,1.35156 -0.048,0.10735 -0.083,0.21456 -0.1094,0.30078 -0.026,0.0862 -0.053,0.16847 -0.047,0.1543 -0.026,0.0583 -0.1469,0.2562 -0.2637,0.46289 -0.1168,0.2067 -0.2364,0.42628 -0.2852,0.62695 -0.138,0.56896 -0.2585,0.9651 -0.3808,1.23438 -0.1223,0.26928 -0.2391,0.40643 -0.3789,0.49805 -0.28,0.18338 -0.4024,0.54231 -0.4024,0.9707 0,0.0806 -0.01,0.1607 -0.014,0.21875 0,0.0679 -0.024,0.027 -0.155,0.37314 -0.053,0.13915 -0.091,0.31457 -0.1329,0.50586 -0.082,0.37758 -0.1505,0.81763 -0.1718,1.17773 0,-0.0237 6e-4,-0.003 -0.01,0.0156 -0.01,0.0189 -0.017,0.0461 -0.029,0.0781 -0.025,0.064 -0.06,0.14768 -0.1,0.23828 -0.062,0.14184 -0.1352,0.28206 -0.2012,0.40625 l -1.914,-0.3789 c -0.011,-0.075 -0.023,-0.15159 -0.027,-0.25196 -0.01,-0.13846 0,-0.28145 -0.084,-0.42383 -0.1854,-0.33227 -0.4049,-0.45 -0.5996,-0.62109 -0.1772,-0.16205 -0.4079,-0.31217 -0.6074,-0.37109 -0.081,-0.0239 -0.13,-0.0477 -0.1348,-0.0508 3e-4,10e-6 0.012,0.007 0.024,0.0332 0.012,0.0278 0.01,0.0702 0,0.0898 0.016,-0.0419 -0.026,-0.081 -0.025,-0.12304 10e-5,-6.4e-4 0,-0.001 0,-0.002 3e-4,-0.0788 0.02,-0.1607 -0.049,-0.23047 l 0.012,0.0117 c 0.027,0.032 0.01,0.0142 0,-0.0195 -0.01,-0.0338 -0.01,-0.0843 -0.01,-0.13476 0,-0.0983 0.037,-0.20705 0.035,-0.20704 0.013,-0.0104 0.035,-0.0256 0.062,-0.043 0.054,-0.0347 0.1278,-0.078 0.2031,-0.11719 0.075,-0.0392 0.1537,-0.0743 0.2149,-0.0996 0.061,-0.0254 0.1314,-0.0332 0.082,-0.0332 0.1107,0 0.1697,-0.0387 0.2558,-0.084 0.086,-0.0453 0.185,-0.10685 0.293,-0.17969 0.2161,-0.14566 0.4699,-0.33769 0.7188,-0.54101 0.2488,-0.20332 0.4919,-0.41536 0.6797,-0.59961 0.094,-0.0921 0.1734,-0.17758 0.2363,-0.25391 0.063,-0.0763 0.1113,-0.13054 0.1367,-0.23242 0.014,-0.0553 0.081,-0.2397 0.1367,-0.36328 0.071,-0.1572 0.1252,-0.33646 0.127,-0.49414 v -0.002 c 0,-0.0478 0.01,-0.0593 0.012,-0.0684 0.01,-0.009 0.022,-0.0283 0.072,-0.0566 0.3266,-0.18574 0.5689,-0.56501 0.666,-0.98243 0.078,-0.3382 0.2048,-0.54662 0.6484,-1.04687 0.4698,-0.52987 0.7363,-0.94757 0.8281,-1.35156 0.051,-0.2238 0.1119,-0.33318 0.3086,-0.54883 0.155,-0.16989 0.3224,-0.36721 0.3965,-0.46875 0.037,-0.0511 0.057,-0.0507 0.061,-0.0508 z m -7.3125,0.98047 c 8e-4,0.005 0.01,0.0214 0.01,0.0332 -10e-5,1e-5 0,0 0,0 10e-5,1.7e-4 -0.01,-0.0335 -0.01,-0.0332 z m 0.8691,7.21484 v 0 c -7e-4,0.002 5e-4,0.004 0,0.006 z m -3.4121,0.83008 c -0.01,0.0214 -0.017,0.0446 -0.018,0.0684 0,0 0.01,-0.0455 0.01,-0.0449 -10e-5,2.6e-4 0.01,-0.0115 0.012,-0.0234 z m -6.2695,1.35547 c -10e-5,3e-5 0,0.004 -0.01,0.008 v -0.006 -0.002 z m 0.125,0.12695 0.09,0.1543 c -0.012,0.006 -0.033,0.0156 -0.033,0.0156 l -0.057,-0.16992 z m 0.1269,0.12695 -0.01,0.006 -0.014,0.01 c 0.01,-0.007 0.018,-0.014 0.02,-0.0156 z m 10.9844,0.72266 c -0.1173,0.0638 -0.126,0.22895 -0.016,0.30469 l -0.1446,-0.14844 c -0.012,0.10054 -0.019,0.19819 -0.031,0.26758 -0.012,0.0676 -0.039,0.0901 -0.012,0.0703 -0.01,0.005 -0.1951,0.0634 -0.4161,0.0664 -0.2209,0.003 -0.4869,-0.0227 -0.7148,-0.0781 -0.3335,-0.081 -0.6348,0.20459 -0.6348,0.54492 0,0.015 -0.044,0.16395 -0.082,0.2168 -0.1,0.13971 -0.1629,0.30066 -0.1875,0.45703 -0.025,0.15638 -0.022,0.31423 0.078,0.44922 -0.02,-0.0277 0,0.008 0.02,0.0469 0.016,0.039 0.036,0.0924 0.06,0.14649 0.025,0.054 0.053,0.10959 0.094,0.16406 0.04,0.0545 0.094,0.11441 0.1894,0.14063 0.021,0.006 0.044,0.008 0.066,0.006 l 2.1953,-0.23829 c 0.055,-0.006 0.1038,-0.037 0.1328,-0.084 0.1948,-0.31626 0.4298,-0.61389 0.7012,-0.88477 0.01,-0.007 0.013,-0.0151 0.019,-0.0234 0.021,-0.0293 0.043,-0.0566 0.062,-0.082 v -0.002 c 0.1608,-0.2048 0.358,-0.48683 0.4766,-0.75976 0.045,-0.10435 -0.018,-0.22352 -0.1289,-0.2461 l -1.6758,-0.33203 v 0.0488 c -0.013,-0.0202 -0.031,-0.0375 -0.051,-0.0508 z m 0.1719,0.39062 1.2324,0.24414 c -0.098,0.17001 -0.1988,0.35151 -0.3047,0.48633 -0.022,0.0285 -0.045,0.0606 -0.07,0.0957 -0.2584,0.26087 -0.4798,0.54978 -0.6738,0.85156 l -2.0547,0.22265 c -0.015,-0.0213 -0.034,-0.0572 -0.053,-0.0976 -0.019,-0.0421 -0.038,-0.087 -0.055,-0.12891 -0.017,-0.0419 -0.02,-0.0695 -0.062,-0.12695 0,-0.006 -0.029,-0.0822 -0.014,-0.18164 0.016,-0.0994 0.062,-0.21638 0.125,-0.30469 0.09,-0.12615 0.1485,-0.26602 0.1485,-0.42383 0,-0.11756 0.1254,-0.21377 0.1933,-0.19726 0.2632,0.064 0.5501,0.0933 0.8028,0.0898 0.2526,-0.003 0.4585,-0.0141 0.625,-0.13672 0.1167,-0.0868 0.133,-0.19845 0.1503,-0.29687 0.01,-0.0328 0.01,-0.0629 0.012,-0.0957 z m 1.6992,7.35547 c -0.1193,-0.0699 -0.2694,0.0161 -0.2695,0.1543 v 0.1543 c 0,0.0772 0.015,0.12925 0.039,0.22265 0.024,0.0934 0.059,0.20996 0.1035,0.3418 0.09,0.26368 0.2209,0.5877 0.3907,0.89648 0.1698,0.30879 0.3753,0.60408 0.6347,0.80664 0.2594,0.20257 0.5949,0.30566 0.9375,0.18555 0.064,-0.0222 0.1105,-0.079 0.1192,-0.14648 0.078,-0.63756 0.01,-1.27984 -0.1036,-1.88868 -0.014,-0.0768 -0.075,-0.13602 -0.1523,-0.14648 -0.6152,-0.0852 -1.1924,-0.28317 -1.6992,-0.58008 z m 0.1094,0.40821 c 0.4352,0.21825 0.8971,0.39238 1.3945,0.47656 0.086,0.50392 0.1241,1.0146 0.086,1.51172 -0.1624,0.0176 -0.3161,0.0172 -0.4707,-0.10352 -0.1968,-0.1537 -0.3868,-0.41143 -0.5429,-0.69531 -0.1562,-0.28389 -0.2811,-0.59226 -0.3653,-0.83985 -0.042,-0.12379 -0.073,-0.23217 -0.094,-0.31445 -0.01,-0.0215 0,-0.0164 -0.01,-0.0351 z m 11.705,1.49414 c -0.08,10e-4 -0.1493,0.0556 -0.1699,0.13281 l 0.1504,-0.13086 c -9e-4,9e-5 -0.034,0.007 -0.043,0.01 -0.01,0.003 -0.015,0.007 -0.021,0.01 -0.012,0.006 -0.022,0.0117 -0.031,0.0176 -0.019,0.0117 -0.04,0.024 -0.061,0.041 -0.041,0.034 -0.088,0.0821 -0.1329,0.14454 -0.089,0.12491 -0.1655,0.31848 -0.1347,0.55468 0.034,0.26169 -0.098,0.81192 -0.2871,1.10742 -0.018,0.0284 -0.018,0.0285 -0.033,0.0566 -0.015,0.0281 -0.035,0.0676 -0.059,0.11523 -0.048,0.0953 -0.1099,0.22549 -0.1719,0.37695 -0.1241,0.30293 -0.2522,0.68563 -0.2578,1.04883 0,0.0763 -0.044,0.24011 -0.1094,0.44141 -0.066,0.20298 -0.1527,0.44902 -0.2305,0.71875 -0.1554,0.53946 -0.2824,1.18146 -0.1347,1.81054 0.092,0.40726 0.155,0.84304 0.334,1.26758 0.2729,0.7133 0.4028,1.12661 0.4453,1.38281 0.026,0.15848 0.1014,0.54156 0.1699,0.86524 0.065,0.30682 0.088,0.49669 0.072,0.62695 -0.015,0.13027 -0.06,0.21574 -0.1758,0.36133 l 0.01,-0.01 c -0.037,0.0403 0,0.002 0.023,-0.0137 -0.011,0.007 -0.022,0.0145 -0.031,0.0234 v 0.004 c -0.087,0.0897 -0.2235,0.22994 -0.375,0.36914 -0.072,0.0664 -0.078,0.17893 -0.012,0.25195 l 0.5859,0.64844 c 0.034,0.0381 0.082,0.0601 0.1328,0.0605 0.035,3.7e-4 0.07,-0.01 0.1,-0.0293 0.6536,-0.42702 1.4165,-0.6542 2.1973,-0.6543 0.3894,0 0.7773,0.0567 1.1504,0.16797 0.083,0.0246 0.1722,-0.0141 0.2109,-0.0918 l 0.7617,-1.5039 c 0.013,-0.0242 0.019,-0.0509 0.02,-0.0781 v -0.002 c 0,-0.2653 0.012,-0.5689 0.021,-0.82031 0,-0.0666 -0.032,-0.12903 -0.09,-0.16211 l -0.066,-0.0391 c -0.1761,-0.10265 -0.2316,-0.31829 -0.1289,-0.49414 0.041,-0.07 0.099,-0.11891 0.166,-0.14843 0.07,-0.0312 0.1124,-0.10339 0.1055,-0.17969 -0.032,-0.39084 -0.09,-0.8096 -0.1621,-1.17969 -0.072,-0.37009 -0.153,-0.68428 -0.2539,-0.89258 -0.041,-0.0845 -0.1511,-0.3463 -0.2305,-0.55468 v -0.004 c -0.2289,-0.56696 -0.5125,-1.08938 -0.7343,-1.62891 0,-0.0109 -0.01,-0.0213 -0.016,-0.0312 -0.2015,-0.30405 -0.2895,-1.05726 -1.1875,-2.24414 v -0.002 c -0.145,-0.19694 -0.2596,-0.46078 -0.5137,-0.66602 l 0.01,0.006 c -0.088,-0.0796 -0.1351,-0.13381 -0.1562,-0.16992 -0.021,-0.0361 -0.025,-0.0555 -0.025,-0.11133 0,-0.18264 -0.059,-0.35443 -0.1524,-0.49414 -0.093,-0.13971 -0.2244,-0.25602 -0.3984,-0.2832 -0.01,-0.001 -0.018,-0.002 -0.027,-0.002 z m 0.035,0.375 c 0.037,0.0139 0.087,0.0404 0.1328,0.10937 0.054,0.0812 0.092,0.19214 0.092,0.29492 0,0.0978 0.023,0.20065 0.076,0.29102 0.053,0.0904 0.125,0.16623 0.2246,0.25586 0,0.003 0.01,0.005 0.01,0.008 0.1726,0.13943 0.2773,0.36355 0.4531,0.60156 v 0.002 c 0.8517,1.12443 0.8703,1.74416 1.1602,2.19726 0.2315,0.56314 0.5135,1.08497 0.7324,1.62695 v -0.004 c 0.082,0.21648 0.1863,0.4688 0.2422,0.58398 0.069,0.14238 0.1552,0.4492 0.2246,0.80469 0.065,0.33238 0.1162,0.71064 0.1484,1.06641 -0.078,0.0572 -0.1651,0.10492 -0.2168,0.19336 -0.1809,0.30968 -0.035,0.67317 0.2364,0.89257 -0.01,0.23688 -0.016,0.51032 -0.02,0.75977 l -0.6875,1.35156 c -0.3593,-0.0933 -0.7259,-0.16015 -1.0976,-0.16015 -0.7933,9e-5 -1.5557,0.25749 -2.2344,0.66406 l -0.4004,-0.44336 c 0.097,-0.0947 0.2031,-0.1975 0.2617,-0.25781 l -0.037,0.0293 c 0.046,-0.0277 0.084,-0.0784 0.057,-0.0488 0,-0.003 0.01,-0.007 0.01,-0.01 0.136,-0.17073 0.228,-0.34118 0.2519,-0.54492 0.024,-0.20375 -0.011,-0.42464 -0.078,-0.74219 -0.068,-0.31938 -0.1425,-0.70842 -0.166,-0.84961 -0.051,-0.30977 -0.1896,-0.73297 -0.4668,-1.45703 v -0.006 c -0.1557,-0.36941 -0.2177,-0.78431 -0.3144,-1.21094 -0.1245,-0.53033 -0.02,-1.11566 0.1289,-1.63086 0.074,-0.25759 0.1587,-0.49574 0.2266,-0.70507 0.068,-0.20934 0.1239,-0.38223 0.1289,-0.54493 v -0.004 c 0,-0.27904 0.1149,-0.63597 0.2304,-0.91797 0.058,-0.141 0.1157,-0.26293 0.1602,-0.35156 0.022,-0.0443 0.041,-0.0805 0.055,-0.10547 0.013,-0.0249 0.032,-0.0554 0.018,-0.0332 v -0.002 c 0.2453,-0.38423 0.3953,-0.93598 0.3417,-1.3457 -0.018,-0.13991 0.022,-0.23321 0.07,-0.30078 0.018,-0.0256 0.036,-0.0413 0.053,-0.0566 z m 21.6348,2.79296 0.1796,0.17774 c -2e-4,-0.1549 -0.1837,-0.23645 -0.2988,-0.13281 z m 0,0 c -1.6198,0 -3.2239,0.32329 -4.7168,0.95118 -0.093,0.0405 -0.1343,0.15055 -0.09,0.24218 l 4.584,9.42188 c 0.03,0.0617 0.092,0.1011 0.1602,0.10156 l -0.031,-0.002 c 0.6155,0.11024 1.0625,0.64239 1.0625,1.26758 0,0.71372 -0.5754,1.28901 -1.2891,1.28906 -0.3224,0 -0.632,-0.12116 -0.8691,-0.33789 -0.033,-0.0302 -0.076,-0.047 -0.1211,-0.0469 h -2.5058 c -0.098,-3.9e-4 -0.1779,0.0779 -0.1797,0.17578 -0.045,2.7307 0.047,5.45161 -0.096,8.15821 -0.059,0.32888 -0.08,0.66274 -0.1485,0.95312 -0.07,0.29754 -0.1805,0.54148 -0.4258,0.72657 l 0.014,-0.01 c -0.1156,0.0711 -0.1499,0.18586 -0.166,0.28516 l 0.1074,-0.0918 c -0.058,0.0172 -0.1039,0.0628 -0.1211,0.12109 h 0.01 l 0.1777,-0.17968 c 0.01,5.2e-4 0.018,0.002 0.018,0.002 l 0.01,0.002 c 0,0 -0.01,0.0284 -0.01,0.0469 -0.087,-0.0104 -0.1694,0.0442 -0.1934,0.1289 0.017,10e-6 0.1699,0 0.1699,0 0,0 -0.019,0.0989 -0.027,0.14258 l -0.033,0.0215 c 0.01,0.004 0.02,0.002 0.029,0.006 -10e-5,4e-4 0,0.006 0,0.006 10e-5,1e-5 0.025,0.003 0.033,0.004 0,1.2e-4 0.01,0 0.01,0 v 0 -0.002 c 1.472,0.6117 3.0466,0.94127 4.6407,0.94726 6.7165,-1.1e-4 12.1659,-5.44947 12.166,-12.16601 10e-5,-6.71671 -5.4494,-12.16395 -12.166,-12.16407 z m 0,0.35743 c 6.5231,1.1e-4 11.8087,5.28341 11.8086,11.80664 -10e-5,6.5224 -5.2845,11.8074 -11.8067,11.80859 -1.5083,-0.006 -2.9918,-0.33255 -4.3887,-0.89648 0.2542,-0.23672 0.4255,-0.51931 0.4961,-0.82032 0.08,-0.34086 0.098,-0.68804 0.1543,-0.99218 5e-4,-0.008 5e-4,-0.0156 0,-0.0234 0.141,-2.66862 0.055,-5.33565 0.094,-7.99609 h 2.3301 c 0.2872,0.2226 0.6232,0.38476 0.9902,0.38476 0.9072,-7e-5 1.6465,-0.73929 1.6465,-1.64648 0,-0.79619 -0.5717,-1.4807 -1.3554,-1.6211 -0.01,-0.002 -0.021,-0.002 -0.031,-0.002 h 0.1113 l -4.4375,-9.11719 c 1.3974,-0.56065 2.8798,-0.88476 4.3868,-0.88476 z m -35.8868,0.23242 c -0.026,8e-4 -0.052,0.007 -0.076,0.0195 v 0 c -0.017,0.009 -0.032,0.0198 -0.045,0.0332 -0.034,0.034 -0.064,0.072 -0.09,0.11328 -0.011,0.018 -0.019,0.0379 -0.023,0.0586 -0.032,0.16496 -0.086,0.47664 -0.1992,1.29297 -0.3549,2.57459 -0.6815,5.14891 -1.1074,7.70703 -0.1198,0.71333 -0.1919,0.97704 -0.2383,1.38476 -0.01,0.0891 0.048,0.17175 0.1348,0.19336 l 0.455,0.10938 c 0.093,0.0231 0.1878,-0.0311 0.2149,-0.12305 0,-0.0104 -0.01,0.03 -0.029,0.0566 0,-0.003 0.01,-0.007 0.01,-0.01 0.059,-0.077 0.065,-0.11908 0.096,-0.20704 0.031,-0.088 0.066,-0.20104 0.1036,-0.33203 0.075,-0.26197 0.1594,-0.59725 0.2265,-0.9375 v 0.002 c 0.2089,-1.02437 0.9347,-5.48006 1.1504,-6.9043 v -0.002 c 0.1296,-0.84114 0.2406,-1.58207 0.3086,-1.97266 0.017,-0.0969 0.03,-0.17191 0.043,-0.23047 0.022,-0.10306 -0.05,-0.20257 -0.1543,-0.21484 -0.2548,-0.0312 -0.5114,-0.0431 -0.7715,-0.0371 z m -1.4461,0.18406 c -4.2609,1.14743 -7.8282,6.62371 -8.4239,12.77149 -0.3258,3.36382 0.2957,6.33575 1.5821,8.42968 1.2863,2.09393 3.2601,3.30969 5.5761,3.10157 2.9378,-0.26404 5.828,-2.76295 7.67,-6.54883 -7e-4,-0.018 0,-0.0357 -0.01,-0.0527 l 0.018,0.0254 c 0.2785,-0.90324 0.661,-2.36547 0.793,-3.05468 0.1238,-0.6477 0.2582,-1.5703 0.3027,-2.5918 0.047,-1.09049 0.01,-2.08767 -0.057,-2.83789 -0.031,-0.37511 -0.066,-0.68821 -0.098,-0.92188 -0.032,-0.23366 -0.054,-0.37217 -0.078,-0.45507 -0.1134,-0.39976 -0.4041,-0.65742 -0.6504,-0.90235 -0.2463,-0.24493 -0.4509,-0.46871 -0.5039,-0.80078 v -0.002 c -0.046,-0.2787 -0.018,-0.60296 0.1504,-1.26758 0.045,-0.17986 0.073,-0.27364 0.09,-0.37891 1e-4,-0.003 1e-4,-0.007 0,-0.01 0.053,-0.52078 -0.015,-0.87135 -0.1543,-1.41602 -0.1011,-0.39623 -0.2923,-0.65448 -0.4707,-1.0332 -0.048,-0.10222 -0.1152,-0.21518 -0.1739,-0.32031 -0.059,-0.10513 -0.1084,-0.20842 -0.1172,-0.24024 -0.01,-0.0313 -0.026,-0.0596 -0.049,-0.082 -0.5936,-0.56711 -1.2589,-0.99244 -1.9766,-1.26172 -0.058,-0.0217 -0.1227,-0.0121 -0.1718,0.0254 -0.021,0.016 -0.042,0.0335 -0.061,0.0527 -0.026,0.0266 -0.043,0.0608 -0.049,0.0976 -0.011,0.0701 -0.028,0.15911 -0.049,0.27149 -0.058,0.31958 -0.1417,0.81548 -0.1836,1.0625 -0.043,0.25746 -0.3701,2.3256 -0.5117,3.21094 -0.1418,0.88566 -0.2621,1.6189 -0.3926,2.28906 -0.1305,0.67012 -0.2729,1.28047 -0.4219,1.91406 -0.1934,0.82114 -0.4014,1.39348 -0.4199,1.93164 0,0.0898 0.02,0.16352 0.035,0.20899 0.015,0.0455 0.02,0.0605 0.02,0.0703 -10e-5,0.1142 -0.01,0.15116 -0.02,0.18164 -0.012,0.0305 -0.045,0.0782 -0.1191,0.17969 -0.08,0.10854 -0.2284,0.17005 -0.3848,0.17187 -0.6795,-0.0631 -1.5532,-0.34502 -1.748,-0.4082 -0.073,-0.0238 -0.2198,-0.0978 -0.3301,-0.19531 -0.1103,-0.0975 -0.1797,-0.20865 -0.1797,-0.31641 1e-4,-0.20546 0.1243,-0.3892 0.3145,-0.4668 0.036,-0.0147 0.066,-0.0408 0.086,-0.0742 0,-0.004 0.014,-0.0227 0.027,-0.0449 v -0.002 c 0.054,-0.0869 0.1776,-0.28745 0.2793,-0.66406 v -0.002 c 0.1645,-0.61918 0.251,-1.2391 0.3339,-1.85937 v -0.004 c 0.1462,-0.93656 0.3523,-2.26315 0.5196,-3.64648 0.1674,-1.38481 0.2965,-2.82382 0.3867,-3.57617 0.01,-0.0602 0.01,-0.10375 0.014,-0.12891 3e-4,-0.006 3e-4,-0.0117 0,-0.0176 0.011,-0.0906 0.019,-0.1674 -0.018,-0.26172 -0.019,-0.0472 -0.057,-0.0982 -0.1074,-0.1289 -0.099,-0.0482 -0.1726,-0.0421 -0.2678,-0.021 z m 1.5516,0.17727 c 0.1465,-6.7e-4 0.2912,0.01 0.4356,0.0215 0,0.0151 -0.01,0.0229 -0.01,0.0391 -0.07,0.40207 -0.1789,1.13958 -0.3086,1.98047 -0.2141,1.4146 -0.9458,5.90313 -1.1464,6.88672 v 0.002 c -0.065,0.32863 -0.1466,0.65441 -0.2188,0.90625 -0.036,0.12592 -0.07,0.23469 -0.098,0.3125 -0.01,0.0155 0,0.008 -0.01,0.0215 l -0.1523,-0.0371 c 0.045,-0.32113 0.1015,-0.56838 0.209,-1.20899 0.4275,-2.56734 0.7548,-5.1468 1.1094,-7.71875 0.1071,-0.76966 0.1544,-1.0408 0.1855,-1.20507 z m -1.5078,0.19336 c -0.011,0.0572 -0.013,0.10733 -0.018,0.14648 -0.092,0.76574 -0.2202,2.19702 -0.3867,3.57422 -0.1665,1.37713 -0.3734,2.70229 -0.5195,3.63867 v 0.004 c -0.083,0.6204 -0.1667,1.22564 -0.3243,1.81836 -0.092,0.34124 -0.1846,0.4839 -0.2382,0.57031 v 0.006 c -0.01,0.0161 -0.018,0.0278 -0.029,0.0469 l 0.088,-0.0762 c -0.3238,0.13215 -0.537,0.44889 -0.5371,0.79883 -1e-4,0.25039 0.1457,0.44688 0.3008,0.58398 0.1551,0.13711 0.3246,0.22469 0.457,0.26758 0.1908,0.0619 1.0827,0.36048 1.834,0.42774 0.01,3e-4 0.012,3e-4 0.018,0 0.2515,-8e-5 0.5146,-0.0957 0.6777,-0.31836 0.073,-0.0993 0.1264,-0.16453 0.1641,-0.25782 0.038,-0.0933 0.045,-0.18916 0.045,-0.3164 0,-0.0838 -0.024,-0.14601 -0.037,-0.1836 -0.013,-0.0376 -0.019,-0.0538 -0.018,-0.084 0.015,-0.44968 0.2145,-1.02203 0.4121,-1.86133 0.1492,-0.6341 0.2919,-1.24976 0.4238,-1.92773 0.1321,-0.67807 0.2527,-1.41464 0.3946,-2.30078 0.1418,-0.88635 0.4697,-2.9697 0.5097,-3.20703 0.042,-0.24733 0.1265,-0.74176 0.1836,-1.05665 v -0.002 c 0.01,-0.0303 0.01,-0.0489 0.014,-0.0762 0.5991,0.25037 1.1701,0.59038 1.6797,1.07422 0.032,0.083 0.068,0.16489 0.1152,0.25 0.061,0.1097 0.1259,0.21993 0.1621,0.29687 0.192,0.40762 0.3643,0.64534 0.4473,0.97071 0.1366,0.53535 0.1934,0.81073 0.1465,1.2832 -0.012,0.0702 -0.038,0.16022 -0.084,0.34375 -0.1729,0.68284 -0.2132,1.0679 -0.1562,1.41406 0.072,0.44952 0.3499,0.74595 0.6035,0.99805 0.2535,0.2521 0.4811,0.46611 0.5605,0.74609 0,0.0173 0.036,0.17947 0.066,0.40625 0.031,0.22679 0.065,0.53342 0.096,0.90235 0.061,0.73785 0.1029,1.7212 0.057,2.79297 -0.044,0.9993 -0.1758,1.90781 -0.2969,2.54101 -0.1249,0.6526 -0.5079,2.1178 -0.7813,3.00586 -1.8048,3.69894 -4.617,6.08663 -7.3691,6.33398 -2.1755,0.19549 -4.0063,-0.92299 -5.2402,-2.93164 -1.234,-2.00865 -1.849,-4.90694 -1.5293,-8.20703 0.5819,-6.00615 4.1015,-11.32031 8.1113,-12.43554 z m 32.8789,3.74609 v 0.35742 l -0.1777,-0.18945 v 0.0937 c -2e-4,0.0486 -2e-4,0.11657 0,0.19726 5e-4,0.1614 0,0.37625 0.01,0.60743 0.01,0.46235 0.023,0.97756 0.059,1.25976 v -0.008 c 0.064,0.83754 0.3039,1.20504 0.2617,2.42969 v 0.002 c -0.02,0.72835 -6e-4,1.4981 0.211,2.22461 0.022,0.0764 0.092,0.12888 0.1718,0.12891 h 2.1348 c 0.091,-5e-5 0.1671,-0.068 0.1777,-0.15821 0.027,-0.22195 0.1111,-0.43224 0.2461,-0.61133 0.041,-0.0532 0.049,-0.12483 0.02,-0.18554 l -2.9434,-6.04688 c -0.03,-0.0616 -0.092,-0.10107 -0.1601,-0.10156 z m 0.1856,0.9668 2.5664,5.27343 c -0.099,0.15598 -0.1639,0.32621 -0.2051,0.50586 h -1.8594 c -0.1631,-0.63336 -0.2043,-1.3155 -0.1855,-1.98632 0.044,-1.27362 -0.2029,-1.6938 -0.2618,-2.46875 10e-5,-0.003 10e-5,-0.007 0,-0.01 -0.03,-0.2384 -0.047,-0.76225 -0.055,-1.2207 -6e-4,-0.0356 4e-4,-0.059 0,-0.0937 z m -19.6075,2.89453 c -0.041,0.0127 -0.082,0.0287 -0.125,0.0488 -0.1342,0.0422 -0.2521,0.1485 -0.2929,0.29101 -0.041,0.14347 -0.011,0.30383 0.074,0.46289 l -0.016,-0.041 c 0.074,0.29306 0.061,0.63225 0.088,0.98437 0,0.11612 0.012,0.35309 0.022,0.625 0.011,0.19543 0.2831,0.23357 0.3477,0.0488 0.1693,-0.50177 0.4362,-0.96497 0.7851,-1.36328 0.059,-0.0676 0.059,-0.16875 0,-0.23633 l -0.6934,-0.76953 c -0.022,-0.0241 -0.051,-0.0417 -0.082,-0.0508 -0.034,-0.0106 -0.071,-0.0106 -0.1055,0 z m 4.1387,0.20117 v 0.002 c -0.091,-0.005 -0.1846,-0.005 -0.2773,0 -0.6322,-0.0157 -1.2336,0.17054 -1.75,0.49219 -0.095,0.0587 -0.1132,0.18854 -0.039,0.27148 l 1.1934,1.32032 c 0.034,0.0374 0.082,0.0587 0.1328,0.0586 0.019,4.3e-4 0.039,-0.002 0.057,-0.008 0.1025,-0.0343 0.2131,-0.0552 0.33,-0.0606 0.05,-0.003 0.084,-0.008 0.1015,-0.008 0.068,2.7e-4 0.1295,-0.0375 0.1602,-0.0977 l 0.8223,-1.62304 c 0.051,-0.10204 0,-0.22546 -0.1153,-0.25391 -0.1992,-0.0504 -0.4059,-0.0842 -0.6152,-0.0937 z m -4.1367,0.17773 0.5293,0.58594 c -0.1891,0.23305 -0.3081,0.50752 -0.4453,0.77344 -10e-5,-0.003 10e-5,-0.011 0,-0.0137 v -0.006 c -0.025,-0.322 -0.01,-0.68261 -0.098,-1.04492 0,-0.0136 -0.01,-0.0267 -0.016,-0.0391 -0.055,-0.10208 -0.053,-0.16661 -0.045,-0.19531 0.01,-0.0287 0.017,-0.0391 0.055,-0.0508 0.01,-0.003 0.013,-0.006 0.019,-0.01 z m 3.8476,0.18164 c 0.01,2.4e-4 0.011,2.4e-4 0.016,0 0.085,-0.006 0.1714,-0.005 0.2558,0 0.1067,0.005 0.2112,0.029 0.3164,0.0469 l -0.668,1.3125 c 0,9e-5 0,-6e-5 -0.01,0 -0.1036,0.005 -0.2024,0.0309 -0.3008,0.0547 l -0.9414,-1.03907 c 0.4124,-0.21507 0.8507,-0.38681 1.3261,-0.375 z m -2.5019,0.86329 c -0.063,0.0389 -0.096,0.11268 -0.082,0.18554 l -0.057,-0.11914 c -0.6621,0.8077 -0.9947,1.89426 -0.7363,2.94336 0.1534,0.77668 0.597,1.45721 1.1933,1.95117 0.088,0.073 0.2214,0.0454 0.2735,-0.0566 l 0.8105,-1.59765 c 0.031,-0.0632 0.023,-0.13887 -0.022,-0.19336 -0.3407,-0.4245 -0.3145,-1.04535 -0.039,-1.53516 0.037,-0.067 0.028,-0.15027 -0.024,-0.20703 l -1.1855,-1.3125 -0.051,0.11523 c 0.01,-0.0689 -0.023,-0.13671 -0.082,-0.17382 z m 6.3398,0.11132 c -0.1558,-0.10671 -0.3492,0.0692 -0.2578,0.23438 0.126,0.22914 0.2291,0.47117 0.3086,0.7207 0.071,0.21111 0.3866,0.12908 0.3457,-0.0898 0,-0.008 0,-0.0114 -0.01,-0.0195 -0.043,-0.22198 -0.08,-0.39514 -0.1446,-0.53907 -0.043,-0.0958 -0.1139,-0.1655 -0.1855,-0.23242 0,-0.004 0,-0.008 -0.01,-0.0117 v 0.002 c -0.02,-0.0183 -0.03,-0.0489 -0.053,-0.0645 z m -1.1797,0.18555 -1.0312,1.22656 c -0.099,0.11638 -0.016,0.29516 0.1367,0.29493 h 1.5664 c 0.1156,-1.9e-4 0.2007,-0.10828 0.1738,-0.22071 -0.018,-0.0773 -0.039,-0.15508 -0.064,-0.23437 v -0.002 c -0.1041,-0.37591 -0.2738,-0.73091 -0.4961,-1.05078 -0.067,-0.098 -0.2091,-0.10483 -0.2852,-0.0137 z m -5.123,0.19141 0.9551,1.05664 c -0.2488,0.52919 -0.2625,1.14925 0.062,1.65429 l -0.6426,1.26758 c -0.4398,-0.42643 -0.8196,-0.92762 -0.9375,-1.52929 10e-5,-0.003 10e-5,-0.007 0,-0.01 -0.2116,-0.852 0.056,-1.73014 0.5645,-2.43945 z m 5.2187,0.25 c 0.1358,0.23119 0.2711,0.46467 0.3418,0.7207 v 0.002 h -0.9492 z m -1.164,1.83203 c -0.016,5.6e-4 -0.032,0.003 -0.047,0.008 v 0 c -0.058,0.0168 -0.1033,0.0616 -0.1211,0.11914 -0.014,0.0455 -0.031,0.0893 -0.051,0.13281 0,0.005 -0.01,0.0102 -0.01,0.0156 -0.1929,0.56941 -0.7775,0.86321 -1.3633,0.8418 0,-9e-5 -0.01,-9e-5 -0.01,0 -0.068,9e-5 -0.13,0.0387 -0.1602,0.0996 l -0.8222,1.62109 c -0.05,0.0997 0,0.22035 0.1093,0.25195 0.5953,0.17729 1.237,0.19756 1.8535,0.01 1.3341,-0.35346 2.3531,-1.55341 2.5645,-2.89258 0.017,-0.10904 -0.067,-0.20758 -0.1777,-0.20703 z m 2.6406,0 c -0.01,2.5e-4 -0.014,9.2e-4 -0.021,0.002 v 0 c -0.083,0.009 -0.149,0.075 -0.1582,0.1582 -0.2281,2.03549 -1.9459,3.57227 -3.9942,3.57227 -0.418,0 -0.8325,-0.0653 -1.2304,-0.19336 -0.084,-0.0274 -0.1746,0.01 -0.2149,0.0879 l -0.3457,0.68164 c -0.043,0.0849 -0.013,0.18872 0.07,0.23633 l 0.3067,0.17969 c 0.176,0.1027 0.2336,0.31829 0.1308,0.49414 -0.1026,0.17574 -0.3203,0.23353 -0.4961,0.13086 l -1.6367,-0.95899 c -0.1193,-0.0699 -0.2694,0.0161 -0.2695,0.1543 -9e-4,0.17484 -0.016,0.29624 -0.01,0.45313 -0.057,0.27705 -0.011,0.66223 0.057,1.04492 0.068,0.38269 0.1572,0.73402 0.252,0.93164 l -0.016,-0.0508 c 0.029,0.18498 0.1029,0.43138 0.1875,0.66406 0.085,0.23268 0.1625,0.43197 0.2637,0.5625 0.01,0.0105 0.07,0.20361 0.074,0.39258 0,0.18897 -0.038,0.3938 -0.066,0.44336 -0.059,0.10284 -0.077,0.21804 -0.092,0.39648 -0.015,0.17844 -0.022,0.42128 -0.022,0.76563 v 0.92187 c 0,0.0221 0,0.0439 0.012,0.0645 l 0.1777,0.44727 c 0.09,0.22739 0.1897,0.60204 0.209,0.77344 0.016,0.14508 0.032,0.24506 0.064,0.33398 0.016,0.0445 0.037,0.0883 0.078,0.12891 0.041,0.0406 0.1058,0.0698 0.1601,0.0742 0.189,0.0136 0.6702,0.0392 1.1211,0.0625 0.2254,0.0117 0.4424,0.0233 0.6093,0.0312 0.167,0.008 0.2676,0.0137 0.3164,0.0137 2.0424,-0.037 4.0903,0.21094 6.17,0.21094 0.5285,0.0534 1.0216,0.0834 1.4004,0.0879 0.192,0.002 0.3549,-2.5e-4 0.4843,-0.0117 0.065,-0.006 0.1213,-0.0143 0.1719,-0.0254 0.05,-0.011 0.093,-0.0199 0.1504,-0.0625 0.087,-0.0659 0.1157,-0.13772 0.1465,-0.22071 0.031,-0.083 0.053,-0.17835 0.066,-0.27929 0.01,-0.0763 0.023,-0.15313 0.037,-0.20899 0.01,-0.0279 0.015,-0.0501 0.02,-0.0625 0,-0.0102 0,-0.004 -0.014,0.0137 0.056,-0.0602 0.06,-0.10833 0.068,-0.15234 0.01,-0.0447 0.011,-0.0887 0.012,-0.13867 0,-0.0998 0,-0.21732 -0.019,-0.3418 -0.03,-0.24896 -0.084,-0.5187 -0.1641,-0.71289 -0.1212,-0.29369 -0.2489,-0.89844 -0.3339,-1.64648 v -0.006 c -0.1502,-1.04812 -0.412,-2.15183 -0.9766,-3.07617 v -0.002 c -0.1598,-0.26411 -0.2915,-0.5525 -0.4297,-0.8457 -0.2591,-0.58623 -0.1523,-0.33598 -0.2656,-0.5918 -0.4928,-1.10289 -0.986,-2.20271 -1.4024,-3.32812 v -0.006 c -0.093,-0.39894 -0.1642,-0.72677 -0.3086,-1.44922 -0.016,-0.084 -0.09,-0.14459 -0.1758,-0.14453 z m -2.5156,0.35742 h 1.3711 c -0.2635,1.10598 -1.0988,2.10647 -2.2071,2.39844 0,5.7e-4 -0.01,10e-4 -0.01,0.002 -0.4665,0.14242 -0.949,0.0937 -1.416,-0.008 l 0.6465,-1.27344 h -0.1094 -0.01 c 0.7162,0.0262 1.462,-0.34543 1.7129,-1.08594 0,-0.0112 0.01,-0.0219 0.014,-0.0332 z m 2.5762,0.2207 c 0.086,0.42169 0.1634,0.79741 0.2343,1.10157 0,0.007 0.01,0.0146 0.01,0.0215 0.4236,1.14813 0.9242,2.26351 1.4199,3.37305 0.1149,0.25942 10e-5,-0.007 0.2656,0.59375 v 0.004 c 0.1373,0.29131 0.2748,0.59281 0.4492,0.88086 0.5243,0.85752 0.7788,1.91555 0.9258,2.94141 0.087,0.76291 0.2086,1.37314 0.3594,1.73828 0.054,0.13095 0.1118,0.39372 0.1386,0.61914 0.013,0.11271 0.019,0.2185 0.018,0.29297 -7e-4,0.0372 0,0.0659 -0.01,0.0801 0,0.0142 -0.016,0.01 0.021,-0.0293 v 0 c -0.049,0.0504 -0.051,0.0761 -0.062,0.10742 -0.012,0.0313 -0.022,0.0628 -0.031,0.0996 -0.018,0.0736 -0.033,0.16186 -0.045,0.25196 -0.01,0.0763 -0.028,0.14776 -0.047,0.19921 -0.019,0.0514 -0.052,0.0808 -0.025,0.0605 0.026,-0.0201 0.014,-0.008 -0.014,-0.002 -0.027,0.006 -0.07,0.0127 -0.125,0.0176 -0.1098,0.01 -0.2648,0.0139 -0.4492,0.0117 -0.3688,-0.004 -0.8587,-0.034 -1.3868,-0.0879 -0.01,-2.7e-4 -0.011,-2.7e-4 -0.017,0 -2.0503,0 -4.0991,-0.25026 -6.1739,-0.21289 v 0 c 0,-6e-5 -0.1318,-0.004 -0.2969,-0.0117 -0.1662,-0.008 -0.3824,-0.0196 -0.6074,-0.0312 -0.4232,-0.0219 -0.8475,-0.045 -1.0488,-0.0586 -0.011,-0.0363 -0.027,-0.10315 -0.041,-0.22461 -0.027,-0.23724 -0.1254,-0.59893 -0.2304,-0.86328 l -0.166,-0.41602 v -0.88671 c 0,-0.34016 0.01,-0.57767 0.019,-0.73633 0.013,-0.15866 0.039,-0.2365 0.045,-0.2461 v -0.002 c 0.1015,-0.17771 0.1179,-0.40142 0.1132,-0.62891 0,-0.22748 -0.018,-0.43773 -0.1484,-0.60546 -0.025,-0.0324 -0.1316,-0.24494 -0.2109,-0.46289 -0.079,-0.21795 -0.149,-0.46232 -0.1699,-0.59766 0,-0.017 -0.01,-0.0334 -0.016,-0.0488 -0.054,-0.11233 -0.1564,-0.47697 -0.2207,-0.83984 -0.064,-0.36287 -0.091,-0.75259 -0.059,-0.91016 v -0.0527 -0.16407 l 1.3769,0.80469 c 0.3416,0.19949 0.7849,0.0838 0.9844,-0.25781 0.1991,-0.34081 0.083,-0.78429 -0.2578,-0.98438 l -0.1621,-0.0957 0.2109,-0.41601 c 0.3866,0.10903 0.7815,0.18554 1.1836,0.18554 2.0908,0 3.8205,-1.49998 4.2364,-3.51172 z m -8.1036,0.60157 c -0.097,0.003 -0.1742,0.0826 -0.1738,0.17968 0,0.0328 0,0.086 0.019,0.15235 v -0.0762 c -0.032,0.11841 -0.024,0.22299 0.01,0.38281 0.029,0.14696 0.055,0.41451 0.055,0.55469 0,0.31785 0.089,0.86763 0.1836,1.19921 0.03,0.10904 0.1531,0.16284 0.2539,0.11133 0.1056,-0.0533 0.2337,-0.0556 0.3457,0.01 l 0.236,0.13847 c 0.089,0.0519 0.2036,0.0179 0.25,-0.0742 l 0.3145,-0.61914 c 0.038,-0.0773 0.016,-0.1709 -0.053,-0.22266 -0.5575,-0.4224 -0.9949,-0.98359 -1.2695,-1.62695 -0.029,-0.068 -0.096,-0.11141 -0.1699,-0.10937 z m -4.8046,0.57031 c -0.095,-0.0199 -0.189,0.04 -0.211,0.13476 -0.3591,1.58394 -0.9068,3.12432 -1.6211,4.57227 -1.1508,2.32411 -2.7875,4.51646 -4.9472,5.91602 -0.015,0.01 -0.029,0.0214 -0.041,0.0351 -0.09,0.10637 -0.163,0.20075 -0.2187,0.2793 -0.028,0.0393 -0.051,0.0743 -0.07,0.10937 -0.019,0.0351 -0.043,0.0579 -0.043,0.14063 0,0.075 0.047,0.14207 0.1172,0.16797 0.9036,0.32698 2.2722,0.37753 3.6289,0.35156 1.3567,-0.026 2.6981,-0.1352 3.4902,-0.1582 l 0.8125,-0.0234 c 0.043,-0.001 0.084,-0.018 0.1153,-0.0469 l 0.2285,-0.21289 c 0.137,-0.12707 0.2825,-0.24317 0.3984,-0.32422 0.058,-0.0405 0.1084,-0.0728 0.1446,-0.0918 0.036,-0.019 0.069,-0.0156 0.023,-0.0156 0.1019,0 0.166,-0.0449 0.2226,-0.0898 0.057,-0.0449 0.1064,-0.10026 0.1504,-0.16016 0.088,-0.1198 0.1641,-0.25148 0.1641,-0.41601 0,-0.021 0.01,-0.11989 0.027,-0.23047 0.018,-0.11058 0.042,-0.2402 0.068,-0.36133 0.036,-0.16464 0.034,-0.41312 0.023,-0.75195 -0.01,-0.33883 -0.034,-0.75028 -0.07,-1.16992 -0.073,-0.83928 -0.1779,-1.68478 -0.3222,-2.08399 -0.056,-0.15794 -0.089,-0.42869 -0.09,-0.96289 0,-0.27344 -0.01,-0.47227 -0.02,-0.61914 -0.014,-0.14687 -0.017,-0.24304 -0.1055,-0.3457 0.01,0.008 -0.026,-0.0432 -0.051,-0.10352 -0.026,-0.0616 -0.051,-0.13823 -0.07,-0.20898 -0.024,-0.09 -0.055,-0.17049 -0.09,-0.23828 -0.018,-0.0339 -0.036,-0.0645 -0.062,-0.0957 -0.027,-0.0312 -0.061,-0.0859 -0.1699,-0.0859 l 0.088,0.0234 c -0.4632,-0.25839 -0.6946,-0.88518 -0.8536,-1.50586 -0.08,-0.31033 -0.1409,-0.61423 -0.2207,-0.86328 -0.04,-0.12452 -0.084,-0.235 -0.1445,-0.33203 -0.06,-0.097 -0.1419,-0.18602 -0.2598,-0.22656 -0.01,-0.002 -0.014,-0.004 -0.021,-0.006 z m 5.0273,0.16601 c 0.2565,0.4221 0.5186,0.84186 0.9023,1.15625 l -0.1777,0.35547 -0.074,-0.043 c -0.1423,-0.0831 -0.2966,-0.0332 -0.4492,-0.0137 -0.075,-0.30351 -0.1587,-0.78657 -0.1563,-0.99609 v -0.002 c 0,-0.12899 -0.024,-0.29948 -0.045,-0.45704 z m -5.002,0.36524 c 0.02,0.0462 0.039,0.0811 0.059,0.14258 0.07,0.21928 0.1348,0.52154 0.2168,0.84179 0.1622,0.63314 0.4007,1.35931 1.0098,1.71289 0,-0.002 0.01,0.009 0.016,0.0274 0.019,0.0364 0.044,0.0999 0.062,0.16797 0.024,0.0874 0.054,0.1768 0.086,0.2539 0.032,0.0771 0.055,0.13517 0.1093,0.19922 -0.029,-0.0339 0.01,0.0224 0.022,0.14649 0.012,0.12411 0.018,0.31561 0.018,0.58398 6e-4,0.5466 0.026,0.85027 0.1094,1.08398 0.1033,0.28583 0.2309,1.16456 0.3027,1.99219 0.036,0.41382 0.061,0.82092 0.07,1.15039 0.01,0.32947 0,0.59931 -0.016,0.66407 -0.028,0.12891 -0.053,0.26645 -0.072,0.38476 -0.019,0.11832 -0.033,0.20894 -0.033,0.28516 0,0.0156 -0.036,0.12706 -0.094,0.20508 -0.029,0.039 -0.061,0.0718 -0.084,0.0898 -0.023,0.018 -0.036,0.0117 0,0.0117 -0.092,0 -0.1327,0.0288 -0.1895,0.0586 -0.057,0.0298 -0.1189,0.0687 -0.1855,0.11524 -0.1331,0.0931 -0.2849,0.21761 -0.4336,0.35546 l -0.1797,0.16602 -0.7441,0.0215 c -0.8129,0.0236 -2.1444,0.13252 -3.4864,0.15821 -1.2483,0.0239 -2.4403,-0.0653 -3.2558,-0.30664 0.039,-0.0496 0.071,-0.0928 0.123,-0.1543 l -0.041,0.0352 c 2.2334,-1.44729 3.9033,-3.69187 5.0742,-6.05664 0.6774,-1.37314 1.1725,-2.83971 1.5371,-4.33594 z m -2.666,3.39844 c -0.01,0.0909 0.051,0.17427 0.1407,0.19336 0,0.003 0.01,0.005 0.01,0.008 h -0.066 l -0.051,-0.0449 -0.018,-0.0918 z m 26.584,4.59961 c 0,0 0,-6e-5 0,0 v 0.002 c 0,6e-5 -0.01,-2e-5 -0.01,0 -3e-4,10e-6 0,-0.002 0,-0.002 z"
       id="path24" /></g></svg>
