<?xml version="1.0" encoding="UTF-8" standalone="no"?>
<!-- Created with Inkscape (http://www.inkscape.org/) -->

<svg
   width="63.102348mm"
   height="90.360634mm"
   viewBox="0 0 63.102348 90.360634"
   version="1.1"
   id="svg1"
   xml:space="preserve"
   xmlns="http://www.w3.org/2000/svg"
   xmlns:svg="http://www.w3.org/2000/svg"><defs
     id="defs1" /><g
     id="layer3"
     transform="translate(-1173.1674,-345.82282)"><path
       id="path26"
       style="baseline-shift:baseline;display:inline;overflow:visible;opacity:1;vector-effect:none;fill-rule:evenodd;stroke-linecap:round;stroke-linejoin:round;enable-background:accumulate;stop-color:#000000;stop-opacity:1"
       d="m 1212.3089,345.82282 v 0.002 c -0.5556,0.009 -1.102,0.11265 -1.6252,0.18758 h -5e-4 c 0,3.8e-4 -0.01,9.9e-4 -0.01,0.002 v 5.2e-4 c -0.738,0.14425 -1.3159,0.62806 -1.7699,1.21284 -0.454,0.58477 -0.7902,1.27545 -1.0485,1.87276 -0.01,0.01 -0.01,0.0207 -0.012,0.0315 -0.5508,2.46989 -0.1564,4.99745 -0.1953,7.44502 -0.059,4.13389 0.7802,9.86184 0.8242,10.15081 0,0.0184 0.01,0.036 0.016,0.0527 6e-4,10e-4 0,0.002 0,0.004 -9e-4,-0.002 0,-0.003 0,-0.004 l -5e-4,-5.2e-4 h -5e-4 v 5.2e-4 c -3e-4,0.008 0.027,0.0904 0.042,0.17776 0.018,0.10348 0.033,0.23385 0.043,0.36122 v 0.002 l 0.016,0.21652 -0.039,-0.0134 c -0.01,-0.002 -0.012,-0.004 -0.018,-0.006 -1.3393,-0.30224 -2.6511,-0.72729 -3.885,-1.32447 v -0.002 c -0.041,-0.0218 -0.1437,-0.0997 -0.2558,-0.20154 -0.1136,-0.10321 -0.2407,-0.23075 -0.3591,-0.35915 -0.1184,-0.12839 -0.2285,-0.25745 -0.3049,-0.35967 -0.038,-0.0511 -0.069,-0.0963 -0.086,-0.12661 -0.01,-0.017 -0.013,-0.0339 -0.013,-0.0356 -10e-5,0.001 5e-4,0.01 5e-4,0.0294 0,-0.0609 -0.015,-0.093 -0.029,-0.13281 -0.014,-0.0398 -0.033,-0.0806 -0.055,-0.12505 -0.044,-0.0891 -0.1009,-0.18917 -0.1659,-0.28526 l -0.1861,-0.27336 0.027,-0.43564 c 0.029,-0.47753 0.198,-0.6675 0.291,-0.7183 0.3376,-0.18455 0.4714,-0.53882 0.5446,-0.88315 0.073,-0.34433 0.097,-0.7056 0.1701,-0.96687 0.1269,-0.44781 0.1973,-0.71462 0.2268,-0.89813 0.015,-0.0918 0.022,-0.16441 0.01,-0.2403 -0.012,-0.0652 -0.055,-0.13446 -0.1054,-0.17673 -10e-5,-3.1e-4 -4e-4,-6.9e-4 -5e-4,-10e-4 0,-0.0141 -0.012,-0.0467 -0.014,-0.0858 0,-0.076 0.01,-0.17826 0.027,-0.25993 0.023,-0.0636 0.033,-0.0843 0.039,-0.0977 0.035,-0.009 0.079,-0.0198 0.1364,-0.045 0.1356,-0.0591 0.3137,-0.17491 0.5214,-0.40256 0.1257,-0.13752 0.3014,-0.36044 0.43,-0.60926 0.1274,-0.24637 0.223,-0.5326 0.098,-0.79685 -0.2516,-0.68799 -0.7319,-1.13333 -1.2598,-1.56838 v -0.002 c -0.6582,-0.52181 -1.4311,-1.04106 -2.9099,-1.26349 -0.765,-0.11237 -1.5574,-0.0885 -2.3167,0.0331 v 0.002 c -0.2652,0.048 -1.6332,0.32319 -2.9063,1.21905 -0.2381,0.16752 -0.4912,0.35223 -0.7322,0.52917 -0.7785,0.46026 -1.1811,1.0575 -1.324,1.90634 h -5e-4 v 5.2e-4 5.1e-4 l 5e-4,5.2e-4 c -0.01,0.0464 -0.011,0.0822 -0.012,0.11162 v 5.2e-4 5.1e-4 5.2e-4 5.2e-4 c -0.023,0.15157 0.041,0.27532 0.1194,0.40049 0.079,0.12573 0.187,0.25435 0.3126,0.38241 0.2474,0.25221 0.5597,0.50164 0.8434,0.68161 0.085,0.0662 0.1418,0.11606 0.1664,0.14469 v 0.002 c 0.015,0.0168 0.012,0.0129 0.018,0.0274 0.01,0.0146 0.014,0.0509 0.025,0.11524 v -0.0315 c 0,0.0508 0,0.077 0.01,0.0827 h 6e-4 v 5.1e-4 h 5e-4 5e-4 v -5.1e-4 c 0,-1.3e-4 5e-4,-3.7e-4 5e-4,-5.2e-4 0.011,0.61221 0.2503,1.12967 0.5292,1.61334 0.01,0.01 0.013,0.019 0.02,0.0274 0.1151,0.13339 0.1882,0.40449 0.4041,0.61701 0.011,0.0106 0.024,0.0199 0.037,0.0274 0.013,0.008 0.1615,0.13097 0.2481,0.22686 0.1522,0.16856 0.3086,0.23744 0.4315,0.26355 0.1229,0.0261 0.1905,0.0241 0.2992,0.0817 0.046,0.0247 0.041,0.0251 0.053,0.0625 0,0.038 0.01,0.10076 0.012,0.19533 l 0.016,0.2403 c -0.02,0.01 -0.022,0.01 -0.055,0.0253 v 0.002 c -0.198,0.0953 -0.3716,0.28108 -0.5498,0.54105 0,-0.003 0,-0.005 0.01,-0.008 l -0.018,0.0232 c 0,-0.005 0.01,-0.0102 0.011,-0.0155 -0.071,0.0742 -0.1421,0.15254 -0.2176,0.23461 -0.1937,0.21042 -0.4046,0.43767 -0.7849,0.75189 -0.3804,0.31417 -0.9328,0.71564 -1.4315,1.03147 -0.4988,0.3159 -0.9318,0.54174 -1.5725,0.72243 -0.01,10e-4 -0.012,0.002 -0.018,0.004 -0.6366,0.24616 -1.5168,0.19913 -2.2086,0.66611 -0.6201,0.32476 -1.006,0.81746 -1.3555,1.39991 -0.1114,0.18575 -0.2083,0.38856 -0.3069,0.57619 -0.2524,0.4381 -0.4426,0.86262 -0.6501,1.38131 -0.086,0.21421 -0.1239,0.40083 -0.184,0.57413 -0.1415,0.41089 -0.282,0.82862 -0.4041,1.2578 v 0.006 c -0.037,0.14529 -0.075,0.29442 -0.1111,0.44545 -0.055,0.14 -0.093,0.29318 -0.123,0.50178 -0.073,0.29551 -0.1511,0.59074 -0.2346,0.87539 -0.3503,1.0528 0.086,0.0989 -0.7814,1.90221 -0.2502,0.52049 -0.6407,1.03149 -1.0681,1.66399 l -5e-4,5.1e-4 V 378.4 l 5e-4,5.2e-4 v 5.1e-4 c -0.027,0.0323 -0.053,0.0626 -0.072,0.0822 -0.01,0.008 -0.015,0.0162 -0.021,0.0253 -0.1917,0.29027 -0.3695,0.58682 -0.5587,0.87695 -0.2001,0.30772 -0.3725,0.55511 -0.5725,0.8847 -0.021,0.0225 -0.045,0.0453 -0.064,0.0723 -0.034,0.047 -0.07,0.1024 -0.1095,0.16588 -0.079,0.12696 -0.1686,0.28201 -0.2522,0.43563 -0.083,0.15363 -0.161,0.30488 -0.2186,0.42168 -0.029,0.0584 -0.053,0.10751 -0.07,0.14676 -0.01,0.0196 -0.015,0.0373 -0.021,0.0548 0,0.009 -0.01,0.0172 -0.01,0.031 0,0.005 -8e-4,0.0137 0,0.0217 -0.473,0.67957 -0.7049,1.42203 -0.9906,2.15387 v 0.002 c -0.1715,0.46299 -0.3868,1.09312 -0.5586,1.98231 -1e-4,0.004 -1e-4,0.008 0,0.0119 -0.045,0.35017 -0.1213,0.54603 -0.1504,0.85576 v 5.2e-4 0.003 5.2e-4 c -2e-4,0.003 0,0.005 0,0.008 -0.067,0.41219 -0.1297,0.84178 -0.1933,1.27124 -5e-4,0.003 0,0.006 0,0.0103 v 5.2e-4 l 5e-4,5.2e-4 5e-4,5.1e-4 6e-4,5.2e-4 c 0,0.002 0.01,0.005 0.01,0.007 v 5.2e-4 5.1e-4 c -0.029,0.1756 0.04,0.34574 0.168,0.51367 0.085,0.11163 0.1065,0.209 0.088,0.31264 -0.018,0.10365 -0.087,0.22389 -0.2268,0.34933 -0.07,0.0629 -0.1321,0.12757 -0.1814,0.18552 -0.025,0.029 -0.046,0.0553 -0.064,0.0842 0,0.005 2e-4,0.0189 -0.01,0.0233 -0.01,0.001 -0.01,0.002 -0.016,0.002 -0.084,0 -0.176,0.026 -0.2481,0.0801 -0.036,0.0272 -0.057,0.0683 -0.084,0.10336 l -3.3342,-0.65009 c -0.023,-0.004 -0.045,-0.004 -0.068,0 -0.2457,0.0466 -0.4902,0.1044 -0.7307,0.1757 -0.2029,0.0603 -0.5832,0.23994 -0.9002,0.47439 -0.4139,0.30628 -0.7731,0.65999 -1.0702,1.04696 v 5.2e-4 l -5e-4,5.1e-4 v 5.2e-4 5.2e-4 c 0,0.005 -0.01,0.0102 -0.012,0.0155 -0.1343,0.22223 -0.2004,0.33251 -0.2341,0.38861 -0.015,0.0246 -0.021,0.0356 -0.025,0.0434 v 0.002 5.1e-4 5.2e-4 10e-4 5.2e-4 5.2e-4 0.001 0.006 5.2e-4 0.002 c 0,3.7e-4 -10e-5,0.001 0,0.002 -0.01,0.008 -0.014,0.0216 -0.031,0.0491 -0.034,0.0551 -0.1031,0.16514 -0.2382,0.38447 0,0.006 -0.01,0.0116 -0.01,0.0176 l -0.016,0.0765 c 0,-0.0248 0,-0.0496 0.014,-0.0723 -0.5204,1.10731 -0.5941,2.36234 -0.1111,3.49022 0.3929,0.91734 1.0617,1.64064 2.0758,2.06241 0.021,0.009 0.043,0.0136 0.066,0.014 0.2427,0.004 0.4398,-0.066 0.5705,-0.19533 0.1306,-0.12935 0.1818,-0.30402 0.1814,-0.46871 -7e-4,-0.32582 -0.1585,-0.64932 -0.4269,-0.80564 l 0.01,0.003 c -0.7888,-0.53631 -1.0493,-1.34418 -0.9917,-2.30116 0.041,-0.59773 0.2737,-1.13902 0.6326,-1.59938 0.3349,-0.39686 0.8045,-0.77927 1.2247,-1.02164 l 3.0153,0.59944 c 0.2077,0.91419 0.6661,1.67411 0.7617,2.50424 0.026,0.25036 0.016,0.46371 0.039,0.6718 0.023,0.20869 0.091,0.42107 0.2692,0.59737 0.4329,0.42661 0.1052,0.54108 1.7364,1.01183 0.021,0.007 0.043,0.009 0.065,0.008 1.1957,-0.10132 1.4789,-0.0758 2.1016,-0.13281 -0.1276,1.01827 0.1091,1.8343 0.3458,2.31459 -0.066,0.27373 -0.1259,0.5474 -0.1721,0.82785 -0.1947,0.92051 -0.3767,1.72276 -0.6915,2.7032 -0.1458,0.45367 -0.1307,1.09334 -0.8082,1.4118 0,0.002 -0.01,0.004 -0.011,0.006 0,-5e-5 -6e-4,1.2e-4 0,10e-4 0,0.002 -0.01,0.005 -0.018,0.007 -0.026,0.006 -0.069,0.0119 -0.123,0.0191 -0.1079,0.0144 -0.2626,0.0325 -0.4532,0.0625 -0.3814,0.06 -0.9099,0.17094 -1.5472,0.41599 -1.2746,0.49011 -2.9812,1.51666 -4.8415,3.72484 v 0.004 c -3.5308,4.4384 -4.9731,10.46288 -3.959,16.05276 v 0.002 c 0.5372,2.74668 1.8835,5.50415 4.2773,7.09208 v 0.002 c 0.9277,0.5965 1.9848,0.95392 3.0685,1.07797 0.1146,0.0339 0.2454,0.0421 0.4021,0.0393 0.089,0.005 0.1764,0.01 0.2656,0.0114 0.2301,0.0334 0.3607,0.12648 0.4005,0.20515 0.04,0.0791 0.038,0.17561 -0.1054,0.33021 -0.2186,0.23635 -0.3282,0.57504 -0.3282,0.94517 0,0.14395 -0.017,0.19537 -0.016,0.19533 -0.01,0.005 -0.017,0.0111 -0.039,0.0331 -0.055,0.0548 -0.098,0.14858 -0.1167,0.2775 -0.019,0.1281 -0.026,0.31205 -0.017,0.60771 0,1.00815 0.8159,1.82418 1.8242,1.82418 h 35.7301 c 0.2066,0 0.4044,-0.0344 0.5901,-0.0977 0.024,-0.008 0.046,-0.0204 0.065,-0.0372 0.5112,-0.4694 0.6469,-0.5745 0.7358,-0.65836 0.044,-0.0419 0.077,-0.0815 0.1153,-0.13488 0.039,-0.0533 0.09,-0.12773 0.1994,-0.2713 0.013,-0.0158 0.022,-0.0336 0.029,-0.0527 0.059,-0.17995 0.09,-0.37212 0.09,-0.57206 0,-0.63501 -0.34,-1.1776 -0.832,-1.5043 l -0.059,-0.42943 c 10e-5,-0.003 10e-5,-0.005 0,-0.008 -0.067,-0.36291 -0.2113,-0.66269 -0.2269,-0.92759 0.6499,0.0858 1.3032,0.14263 1.9591,0.14263 8.005,-0.0186 11.946,-5.54363 13.6074,-8.92039 0.7673,-1.79135 1.1637,-3.7153 1.1658,-5.66012 0,-8.05146 -6.6201,-14.58006 -14.7774,-14.57999 -1.5616,0 -3.1066,0.27492 -4.5899,0.75396 0,-0.0236 -0.017,-0.0395 -0.03,-0.33796 -0.016,-0.38123 -0.027,-1.05721 -0.047,-2.26136 v -0.004 c -0.048,-1.32372 -0.095,-2.66429 -0.3772,-3.98425 10e-5,-0.003 10e-5,-0.005 0,-0.008 -0.049,-0.19412 -0.075,-0.65717 -0.062,-1.08985 0.01,-0.21633 0.022,-0.42934 0.043,-0.60358 0.016,-0.13268 0.039,-0.24713 0.057,-0.31368 -0.018,0.0118 -0.036,0.0233 -0.055,0.0346 l 0.07,-0.0822 c 0,0.0105 -0.01,0.0267 -0.015,0.0475 0.6621,-0.43039 1.2039,-1.17666 1.5627,-2.1239 4e-4,-0.006 4e-4,-0.0126 0,-0.0191 l 0.3571,-1.35754 c 3e-4,-0.006 3e-4,-0.0117 0,-0.0176 0.1743,-1.08568 0.1208,-2.22757 -0.1483,-3.26388 -0.012,-0.0958 -0.033,-0.18941 -0.078,-0.27906 -0.069,-0.22472 -0.1537,-0.43578 -0.2419,-0.64285 0.3501,-0.0922 0.5847,-0.33151 0.8062,-0.47439 0.01,-0.004 0.014,-0.009 0.02,-0.014 1.0862,-0.92981 1.4573,-2.37441 1.7069,-3.64629 0.044,-0.16182 0.023,-0.33297 -0.01,-0.5178 -0.029,-0.18693 -0.073,-0.38038 -0.1075,-0.53692 -0.2826,-1.27839 -1.4578,-3.25972 -2.3983,-4.22661 v -0.002 c -0.6888,-0.68207 -1.3574,-1.54526 -2.2185,-2.10943 -0.029,-0.0189 -0.062,-0.0287 -0.097,-0.0289 5e-4,0.003 8e-4,0.004 5e-4,0.006 v 5.2e-4 l -5e-4,5.2e-4 v 5.1e-4 5.2e-4 h -6e-4 v 5.2e-4 h -5e-4 v 5.1e-4 h -5e-4 -5e-4 v 5.2e-4 h -5e-4 -5e-4 -6e-4 c -2e-4,-5e-5 0,-4.3e-4 0,-5.2e-4 h -5e-4 c -3e-4,-1.4e-4 0,-8.7e-4 0,-10e-4 l -5e-4,-5.2e-4 -5e-4,-5.1e-4 c -2e-4,-2.1e-4 -9e-4,-10e-4 -10e-4,-0.002 l -6e-4,-5.2e-4 v -5.2e-4 h -5e-4 v -5.1e-4 -5.2e-4 -5.2e-4 l 5e-4,-5.2e-4 v -5.1e-4 h 6e-4 v -5.2e-4 h 5e-4 c 0,-5.3e-4 0,-0.001 0.01,-0.001 10e-4,-10e-6 0,-10e-6 0,0 -6e-4,-0.003 0,-0.006 0,-0.0103 -0.019,-0.0364 -0.051,-0.15059 -0.066,-0.34571 -0.032,-0.38857 -0.021,-1.10207 0.02,-2.29495 v -0.002 c 0.012,-0.14317 0,-0.3398 -0.012,-0.47698 v -0.003 -10e-4 c -0.01,-0.16067 10e-5,-0.81887 0.031,-1.52549 0.027,-0.7083 0.063,-1.48417 0.098,-1.92753 0.073,-0.94888 0.1406,-1.89607 0.2227,-2.84169 0.038,-0.42647 0.08,-1.36667 0.096,-2.1115 v -0.008 c 0.2543,-4.43209 0.3233,-8.98118 0.035,-13.46067 10e-5,-0.003 10e-5,-0.005 0,-0.008 -0.035,-0.31116 -0.086,-0.86993 -0.1111,-1.23249 -0.072,-1.03266 -0.5141,-1.7866 -1.0371,-2.29443 -0.5217,-0.50657 -1.1152,-0.77325 -1.5374,-0.86145 -0.3342,-0.10026 -0.6704,-0.13322 -1.002,-0.13074 v -0.002 c 0,2e-5 2e-4,-2e-5 -0.01,0 v 0.002 c 0,3e-5 -3e-4,-2e-5 -0.01,0 v -0.002 z m 0.016,0.35605 0.01,0.002 c 0.3106,-0.003 0.6127,0.0303 0.91,0.12092 0.01,0.002 0.011,0.003 0.016,0.004 0.3432,0.0711 0.8962,0.31191 1.3653,0.76739 0.4691,0.45549 0.8634,1.12001 0.9296,2.06448 0.026,0.36674 0.075,0.91635 0.1111,1.23868 0.287,4.46298 0.2194,8.99928 -0.035,13.42347 v 0.006 c -0.016,0.73921 -0.058,1.69142 -0.094,2.09548 -0.082,0.94933 -0.1499,1.89834 -0.2228,2.84582 -0.035,0.45492 -0.075,1.23014 -0.1018,1.94148 -0.027,0.71133 -0.042,1.33897 -0.029,1.5627 v 0.004 c 0.01,0.12836 0.017,0.33513 0.01,0.42374 -1e-4,0.003 -1e-4,0.007 0,0.0103 -0.041,1.2046 -0.054,1.91548 -0.02,2.34559 0.018,0.21505 0.043,0.35979 0.1054,0.48059 0.052,0.0987 0.1567,0.17144 0.2568,0.19482 -0.011,-0.007 -0.022,-0.0141 -0.032,-0.0212 l 0.098,0.0294 c -0.021,0 -0.043,-0.003 -0.066,-0.008 0.7763,0.5195 1.4288,1.34931 2.1317,2.04536 0.87,0.89595 2.0503,2.909 2.3027,4.05091 0.035,0.15838 0.078,0.34496 0.1033,0.51367 0.026,0.16872 0.027,0.32508 0.014,0.37258 -2e-4,0.005 -2e-4,0.009 0,0.014 -0.246,1.2559 -0.6126,2.60957 -1.5896,3.44733 -0.2709,0.17843 -0.472,0.37967 -0.7033,0.4315 -0.085,0.016 -0.1619,0.0477 -0.2263,0.0977 -0.066,0.0511 -0.088,0.14126 -0.053,0.21704 0.1143,0.24743 0.2135,0.51117 0.2972,0.79065 0,0.0101 0.01,0.0201 0.012,0.0295 0.025,0.0495 0.039,0.10026 0.047,0.17209 0,0.009 0.01,0.0171 0.01,0.0253 0.2581,0.98739 0.3075,2.08946 0.1406,3.12901 l -0.3494,1.32601 c -0.3478,0.91653 -0.8707,1.6103 -1.467,1.97869 -0.031,0.0195 -0.056,0.0478 -0.07,0.0817 -0.052,0.12063 -0.077,0.27046 -0.1003,0.45941 -0.023,0.18895 -0.038,0.40923 -0.045,0.63458 -0.013,0.45069 9e-4,0.9071 0.072,1.18959 v -0.006 c 0.2735,1.27897 0.321,2.59967 0.369,3.92379 0.019,1.20052 0.03,1.87679 0.047,2.26757 0.017,0.39145 0.023,0.51639 0.1091,0.63096 0.046,0.0622 0.128,0.0875 0.2015,0.0625 1.5028,-0.50733 3.0795,-0.76791 4.6679,-0.76791 7.9664,-6e-5 14.4178,6.36756 14.4178,14.22291 0,1.89704 -0.3877,3.77409 -1.1364,5.52162 v 0.002 c -2.746,5.38907 -6.9966,8.68456 -13.2829,8.69921 -0.7098,0 -1.4193,-0.0536 -2.1213,-0.15658 -0.096,-0.0132 -0.1854,0.053 -0.2011,0.14883 l -0.016,0.0894 c -3e-4,0.006 -3e-4,0.0117 0,0.0176 -0.029,0.43628 0.1996,0.80312 0.2558,1.10743 l 0.064,0.47283 c 0.01,0.0549 0.04,0.1031 0.088,0.13075 0.4388,0.25291 0.7344,0.72603 0.7344,1.2733 0,0.15554 -0.028,0.30314 -0.072,0.44339 -0.086,0.11437 -0.1487,0.20147 -0.1798,0.24443 -0.036,0.0493 -0.041,0.0557 -0.07,0.0837 -0.056,0.0531 -0.2404,0.20505 -0.6955,0.62115 -0.1421,0.0457 -0.2907,0.0744 -0.4491,0.0744 h -35.7306 c -0.8162,0 -1.4666,-0.65106 -1.4666,-1.4671 v -0.006 c -0.01,-0.28872 2e-4,-0.459 0.014,-0.54881 0.01,-0.0561 0.014,-0.0739 0.016,-0.078 v -5.1e-4 h 5e-4 v 5.1e-4 5.2e-4 5.2e-4 l -5e-4,5.1e-4 v 5.2e-4 h 5e-4 5e-4 l 5e-4,-5.2e-4 c 0,-0.002 0.013,-0.008 0.027,-0.0233 0.024,-0.0203 0.059,-0.0568 0.08,-0.10129 0.043,-0.089 0.051,-0.18735 0.051,-0.3576 0,-0.29813 0.094,-0.55136 0.2347,-0.70331 0.2081,-0.22482 0.274,-0.50746 0.1602,-0.73226 -0.1138,-0.22481 -0.3621,-0.35905 -0.6698,-0.40256 -0.01,-4.1e-4 -0.014,-4.1e-4 -0.021,0 -0.095,-0.002 -0.1896,-0.006 -0.2852,-0.0114 v -5.1e-4 h -5e-4 c 0,-7.9e-4 -0.01,-0.002 -0.014,-0.002 -0.138,0.002 -0.2884,-0.0171 -0.3028,-0.0217 -0.011,-0.004 -0.023,-0.007 -0.035,-0.008 -1.0368,-0.11607 -2.0481,-0.46177 -2.9316,-1.02939 v -0.002 c -2.2839,-1.51621 -3.5965,-4.17871 -4.1207,-6.85746 v -0.002 c -0.9944,-5.4843 0.4254,-11.40871 3.8845,-15.75976 v -0.004 c 1.8244,-2.16404 3.4757,-3.14913 4.6933,-3.61735 0.6093,-0.23429 1.1102,-0.339 1.4748,-0.39636 0.1823,-0.0287 0.3309,-0.0458 0.4455,-0.061 0.057,-0.008 0.1055,-0.0156 0.1503,-0.0253 0.038,-0.008 0.075,-0.0218 0.121,-0.0506 0.8376,-0.40526 0.8814,-1.28827 0.9865,-1.61541 0.3209,-0.99921 0.5069,-1.81926 0.7028,-2.74608 10e-5,-0.003 10e-5,-0.005 0,-0.008 0.047,-0.28605 0.1085,-0.56938 0.1777,-0.8537 0.01,-0.0416 0,-0.0852 -0.016,-0.12299 -0.2362,-0.46014 -0.5358,-1.30208 -0.3359,-2.3828 0.021,-0.11728 -0.077,-0.2214 -0.1953,-0.20877 -0.7213,0.0786 -0.9928,0.0366 -2.248,0.14056 -1.5544,-0.4506 -1.0489,-0.40977 -1.5606,-0.91416 -0.1153,-0.11377 -0.1475,-0.2154 -0.1659,-0.38292 -0.018,-0.16752 -0.01,-0.39217 -0.039,-0.67179 v -0.002 c -0.1105,-0.95969 -0.6103,-1.74063 -0.7907,-2.61121 -0.01,-0.0308 -0.021,-0.0591 -0.041,-0.0827 v -5.2e-4 c 0,-10e-4 -0.01,-0.01 -0.016,-0.0222 -0.026,-0.0417 -0.069,-0.0707 -0.1174,-0.0801 l -3.1775,-0.63303 c -0.042,-0.008 -0.086,-0.002 -0.123,0.0196 -0.4803,0.26731 -0.9943,0.692 -1.3731,1.14257 v 0.006 c -0.3976,0.50992 -0.6613,1.12293 -0.7069,1.79886 -0.062,1.03752 0.2483,2.00715 1.1482,2.61896 v 5.1e-4 h 6e-4 v 5.2e-4 l 5e-4,5.2e-4 5e-4,5.1e-4 c 0,0.002 0.01,0.004 0.01,0.006 l 5e-4,5.2e-4 c 0.1064,0.06 0.2534,0.30831 0.2538,0.49764 2e-4,0.0947 -0.026,0.16564 -0.076,0.21497 -0.045,0.0445 -0.1377,0.0767 -0.2811,0.0822 -0.9106,-0.38972 -1.4943,-1.01545 -1.8516,-1.8495 -0.4399,-1.02746 -0.373,-2.17231 0.1091,-3.19774 l 5e-4,-5.1e-4 c 0,-3.5e-4 -5e-4,-0.001 -5e-4,-0.002 -1e-4,-1.9e-4 0,-8.7e-4 0,-0.001 v -5.1e-4 c 0.1232,-0.2 0.1948,-0.31399 0.2268,-0.36536 0.015,-0.0242 0.022,-0.0348 0.025,-0.0408 v -5.2e-4 -5.2e-4 -0.001 -0.002 -5.1e-4 -5.2e-4 l 5e-4,-5.2e-4 c 2e-4,-2.6e-4 9e-4,-10e-4 0,-0.002 0,-0.003 0.01,-0.006 0.01,-0.007 0,-3.8e-4 -10e-5,-0.001 0,-0.002 l 5e-4,-5.2e-4 v -5.2e-4 -5.1e-4 l 5e-4,-5.2e-4 h 5e-4 l 5e-4,-5.2e-4 5e-4,-5.2e-4 c 0,-9.2e-4 0,-0.002 0.01,-0.004 v -5.2e-4 c 7e-4,-0.007 0.013,-0.0211 0.029,-0.0481 0.032,-0.0532 0.1006,-0.17098 0.2227,-0.3731 v -0.002 c 0.2762,-0.35934 0.6112,-0.69059 0.9979,-0.97668 0.2715,-0.20082 0.6718,-0.38321 0.7891,-0.41807 0.2182,-0.0647 0.4406,-0.11679 0.6641,-0.16019 l 3.3982,0.66249 c 0.023,0.005 0.047,0.005 0.07,0 0.019,-0.004 0.041,-0.011 0.062,-0.0238 0.011,-0.006 0.031,-0.0229 0.031,-0.0233 5e-4,-4.5e-4 0.025,-0.029 0.025,-0.0294 4e-4,-5.4e-4 0.01,-0.0192 0.018,-0.0367 v 0.0134 c 0.03,-0.0571 0.054,-0.0824 0.064,-0.0899 0.01,-0.008 0.01,-0.008 0.033,-0.008 0.063,0 0.1216,-0.009 0.1794,-0.0331 0.029,-0.0122 0.059,-0.0282 0.09,-0.0589 0.02,-0.0202 0.042,-0.0511 0.054,-0.0889 h 6e-4 5e-4 v -5.2e-4 h 5e-4 l 5e-4,-5.2e-4 c 0,-0.002 0,-0.006 0,-0.0134 0,0.002 0,0.004 0,0.005 -8e-4,0.003 0,0.006 0,0.009 h -5e-4 v -5.2e-4 l -5e-4,-5.1e-4 v -5.2e-4 -0.002 c 10e-5,-6.4e-4 3e-4,-0.002 5e-4,-0.003 l 5e-4,-5.2e-4 c 0,-7.3e-4 0,-0.002 0,-0.003 0,-0.0169 0.01,-0.0352 0.01,-0.0543 0,0.024 0,0.0395 0,0.0491 0.01,-0.01 0.014,-0.0254 0.028,-0.0413 0.036,-0.042 0.091,-0.0974 0.1503,-0.15038 0.1819,-0.16318 0.3039,-0.34862 0.3401,-0.55242 0.036,-0.20379 -0.022,-0.41594 -0.1561,-0.5917 -0.1072,-0.14087 -0.1195,-0.1963 -0.1095,-0.24443 0,-0.004 -3e-4,-0.008 -6e-4,-0.0124 v 0.003 c 0.065,-0.43705 0.1297,-0.87392 0.1974,-1.28881 10e-5,-0.004 10e-5,-0.008 0,-0.0119 0.024,-0.26616 0.098,-0.46529 0.1483,-0.84388 v -0.002 c 5e-4,-0.004 0,-0.004 0,-0.008 0.1666,-0.85836 0.3715,-1.46199 0.539,-1.91409 v -0.002 c 0.3021,-0.77432 0.5165,-1.50642 0.9767,-2.14044 0.021,-0.0292 0.032,-0.064 0.033,-0.0997 v 0.0217 c 8e-4,-0.006 0,-0.0149 0.012,-0.0253 0.014,-0.0307 0.035,-0.0773 0.062,-0.13281 0.055,-0.1111 0.1315,-0.25861 0.2129,-0.40824 0.081,-0.14963 0.1675,-0.30263 0.2403,-0.42013 0.036,-0.0588 0.07,-0.10677 0.096,-0.14211 0.017,-0.0238 0.037,-0.0429 0.041,-0.0475 v -5.2e-4 h -5e-4 l -5e-4,5.2e-4 c 0,6.4e-4 0,0.002 -0.01,0.004 0.019,-0.014 0.035,-0.0319 0.048,-0.0522 0.1944,-0.3204 0.3615,-0.565 0.5644,-0.87695 0.191,-0.29282 0.3671,-0.58416 0.5508,-0.86299 0.029,-0.03 0.058,-0.0627 0.09,-0.10181 v -5.1e-4 h 6e-4 v -5.2e-4 -5.2e-4 l 5e-4,-5.1e-4 c 0,-0.003 0.01,-0.007 0.01,-0.0103 v -5.2e-4 h 5e-4 v -5.1e-4 c 0.4213,-0.6235 0.8221,-1.1445 1.0955,-1.71308 0.8684,-1.80673 0.4525,-0.90378 0.801,-1.94923 v -0.006 c 0.088,-0.29842 0.1666,-0.60482 0.2418,-0.90796 3e-4,-0.006 3e-4,-0.0117 0,-0.0176 0.029,-0.20371 0.062,-0.33448 0.1075,-0.44338 0,-0.008 0.01,-0.0166 0.01,-0.0253 0.036,-0.14819 0.071,-0.29511 0.1074,-0.4377 v -0.004 c 0.1189,-0.4174 0.2566,-0.8266 0.3969,-1.23403 0.07,-0.20048 0.1055,-0.37621 0.1778,-0.55656 v -0.002 c 0.2054,-0.51354 0.3894,-0.92114 0.6325,-1.34204 v -0.006 c 0.1026,-0.19525 0.1999,-0.39312 0.2992,-0.55863 0.3379,-0.56319 0.6721,-0.98986 1.2185,-1.27382 0.01,-0.004 0.013,-0.007 0.019,-0.0114 0.5516,-0.37789 1.3886,-0.34434 2.1306,-0.62528 v -0.002 c 0.673,-0.19032 1.1515,-0.43715 1.664,-0.76171 0.5136,-0.32527 1.0733,-0.73191 1.4691,-1.05885 0.3957,-0.327 0.6256,-0.57365 0.8201,-0.78497 0.078,-0.0853 0.1515,-0.16546 0.2207,-0.23823 0.01,-0.007 0.013,-0.0155 0.018,-0.0238 0.1632,-0.24057 0.3202,-0.38576 0.4196,-0.43356 0.037,-0.0177 0.1203,-0.0356 0.2072,-0.11731 0.039,-0.0365 0.06,-0.0884 0.057,-0.14211 l -0.022,-0.35192 v -0.002 c -0.01,-0.0929 0,-0.16771 -0.018,-0.25167 0,-0.009 -0.01,-0.0186 -0.01,-0.0274 -0.035,-0.10267 -0.1166,-0.21081 -0.2268,-0.26975 -0.1699,-0.09 -0.3099,-0.0998 -0.3922,-0.1173 -0.082,-0.0175 -0.1269,-0.0284 -0.2403,-0.154 -0.1009,-0.1117 -0.2075,-0.21706 -0.3153,-0.28422 0,0.005 0.01,0.01 0.014,0.0145 l -0.035,-0.0274 c 0.01,0.004 0.014,0.009 0.021,0.0129 -0.1058,-0.11794 -0.181,-0.35805 -0.3586,-0.56947 0,0.005 0.01,0.0103 0.01,0.0155 l -0.019,-0.0274 c 0,0.004 0.01,0.008 0.01,0.0119 -0.2637,-0.45955 -0.4643,-0.90957 -0.4734,-1.42576 -6e-4,-0.045 -0.01,-0.0762 -0.01,-0.0816 v -5.2e-4 h -5e-4 -6e-4 c 3e-4,-0.007 10e-5,-0.014 -5e-4,-0.0212 -0.012,-0.0693 -0.022,-0.12074 -0.041,-0.17415 -0.019,-0.0526 -0.051,-0.10395 -0.084,-0.14211 v -0.002 c -0.054,-0.0621 -0.1235,-0.12131 -0.2171,-0.19378 v -5.2e-4 -5.2e-4 h -5e-4 v -5.1e-4 l -5e-4,-5.2e-4 -5e-4,-5.2e-4 -5e-4,-5.1e-4 c 0,-0.002 -0.01,-0.005 -0.012,-0.007 -0.2594,-0.16304 -0.5655,-0.40914 -0.7927,-0.64079 -0.1136,-0.11583 -0.208,-0.22798 -0.2657,-0.31988 -0.057,-0.0905 -0.066,-0.15916 -0.066,-0.15864 7e-4,-0.009 7e-4,-0.0178 0,-0.0269 0,-0.0319 -4e-4,-0.0488 0,-0.0667 2e-4,-0.005 2e-4,-0.009 0,-0.0134 0.1298,-0.77455 0.4417,-1.23598 1.156,-1.6583 0.01,-0.003 0.011,-0.006 0.016,-0.0103 0.2438,-0.17912 0.5002,-0.36577 0.7405,-0.53486 1.2021,-0.84586 2.5258,-1.1171 2.7637,-1.16013 0.7269,-0.11607 1.4817,-0.13751 2.203,-0.0315 1.4178,0.21327 2.097,0.67745 2.7404,1.18752 0.5218,0.43013 0.9419,0.82127 1.158,1.4242 v 5.2e-4 5.2e-4 5.1e-4 l 5e-4,5.2e-4 c 0,0.004 0.01,0.01 0.01,0.014 v 5.2e-4 5.2e-4 5.1e-4 c 0.041,0.0838 0.01,0.27501 -0.098,0.48214 -0.1071,0.20712 -0.2695,0.41564 -0.3752,0.53124 -0.1796,0.19684 -0.3147,0.27852 -0.4025,0.31677 -0.044,0.0191 -0.076,0.0274 -0.1055,0.0351 -0.015,0.004 -0.029,0.007 -0.051,0.0134 -0.021,0.007 -0.059,0.0115 -0.1059,0.0724 -0.054,0.0694 -0.075,0.13601 -0.1112,0.24236 v 5.2e-4 5.1e-4 l -5e-4,5.2e-4 -5e-4,5.2e-4 c 0,0.003 -0.01,0.007 -0.01,0.0103 v 5.2e-4 5.2e-4 c -0.029,0.11916 -0.043,0.25108 -0.037,0.3731 0,0.061 0.01,0.11895 0.029,0.17777 0.016,0.0502 0.042,0.10662 0.098,0.15192 6e-4,-0.0113 8e-4,-0.018 5e-4,-0.0191 -10e-4,-0.003 0.02,0.0344 0.031,0.0414 -0.011,-0.007 -0.022,-0.0145 -0.032,-0.0222 -9e-4,0.0192 0,0.0525 -0.01,0.0982 -0.023,0.14509 -0.093,0.41209 -0.2186,0.85731 v 0.002 c -0.089,0.31935 -0.1104,0.68131 -0.1757,0.98805 -0.065,0.30674 -0.1627,0.53213 -0.3653,0.64286 -0.2435,0.13307 -0.4431,0.4565 -0.4765,1.01182 l -0.031,0.4961 c 0,0.0395 0.01,0.0785 0.031,0.1111 l 0.2186,0.32453 c 0.055,0.082 0.1073,0.17025 0.1426,0.24184 0.018,0.0358 0.031,0.0661 0.039,0.0879 0.01,0.0121 0.01,0.0235 0.01,0.0258 l 5e-4,-5.2e-4 v -5.1e-4 c 2e-4,-0.002 0,-0.006 0,-0.0129 0,0.0948 0.031,0.13021 0.061,0.18138 0.029,0.0512 0.065,0.10565 0.1096,0.16433 0.088,0.11737 0.2033,0.25331 0.3281,0.38861 0.1248,0.13531 0.2586,0.27042 0.3824,0.38292 0.1239,0.11251 0.2295,0.20069 0.3364,0.2558 v 0.002 c 1.2646,0.61249 2.6046,1.04602 3.9667,1.3534 l -0.018,-0.004 0.2972,0.0977 c 0.1212,0.0398 0.2436,-0.0562 0.234,-0.18345 l -0.037,-0.48421 c -0.01,-0.13906 -0.027,-0.2784 -0.047,-0.39481 -0.017,-0.1021 -0.024,-0.17114 -0.059,-0.2496 0,0.01 0,0.0179 0,0.0233 l -0.02,-0.0568 c 0.01,0.0115 0.012,0.0226 0.017,0.0336 -0.071,-0.47386 -0.8766,-6.0698 -0.8191,-10.06656 0.039,-2.4829 -0.3401,-4.97768 0.1856,-7.35563 0.2522,-0.58177 0.5753,-1.24182 0.9942,-1.78128 0.4217,-0.5433 0.9334,-0.95736 1.5565,-1.08004 h 5e-4 v -5.2e-4 -5.2e-4 -5.1e-4 h -5e-4 v -5.2e-4 c 0.537,-0.0772 1.0706,-0.17705 1.586,-0.18345 z m -7.9918,13.80381 c 0.013,0.008 0.02,0.0156 0.024,0.0202 -0.01,-0.007 -0.016,-0.0129 -0.024,-0.0181 z m 0.025,0.0212 c 10e-4,0.001 0,0.002 0,0.003 h -5e-4 c -5e-4,-7e-4 -10e-4,-0.002 0,-0.003 z m 0,0.004 h 5e-4 v 5.2e-4 h -5e-4 z m -8.3949,0.38344 c -10e-5,0.002 -3e-4,0.005 -5e-4,0.007 0,-0.003 3e-4,-0.006 5e-4,-0.007 z m 12.5476,16.36334 v 5.2e-4 0.002 c -0.031,0.002 -0.06,0.0111 -0.086,0.0274 -0.3331,0.21757 -0.413,0.61708 -0.4259,0.98392 -0.013,0.36685 0.036,0.74043 0.027,0.95136 -2e-4,0.005 -2e-4,0.009 0,0.014 0.02,0.59772 0.1373,1.13808 -0.1132,1.5875 v 5.2e-4 5.2e-4 5.1e-4 l -5e-4,5.2e-4 c 0,0.004 -0.01,0.008 -0.01,0.0124 v 5.2e-4 5.1e-4 5.2e-4 c -0.1717,0.39276 -0.3655,0.77574 -0.5782,1.14825 -0.023,0.0403 -0.029,0.0879 -0.018,0.13281 0.1871,0.75116 0.4084,1.38597 0.6077,1.834 0.1,0.22401 0.191,0.39927 0.2791,0.5271 0.044,0.0639 0.087,0.11665 0.1384,0.16019 0.052,0.0432 0.1305,0.0974 0.2403,0.0672 10e-5,10e-6 5e-4,10e-6 6e-4,0 3e-4,-1.3e-4 6e-4,-2.6e-4 0,-5.1e-4 0.01,-10e-4 0.05,-0.009 0.092,-0.0119 0.053,-0.004 0.1192,-0.006 0.1798,-0.006 0.014,2.5e-4 0.028,-10e-4 0.041,-0.004 0.3228,-0.0777 0.5653,-0.31834 0.742,-0.61546 0.1766,-0.29711 0.2979,-0.65946 0.3809,-1.03715 0.166,-0.75539 0.1824,-1.56063 0.123,-2.00763 -0.024,-0.97438 -0.049,-1.5487 -0.152,-1.9513 -0.1044,-0.40664 -0.3114,-0.64153 -0.6097,-0.86713 -0.1763,-0.13338 -0.2488,-0.2308 -0.3044,-0.39429 -0.053,-0.15372 -0.1226,-0.28181 -0.2072,-0.37931 -0.084,-0.0964 -0.1844,-0.17384 -0.324,-0.1757 h -6e-4 c -8e-4,-2e-4 -0.01,-0.002 -0.01,-0.002 0,6e-5 -0.01,-6e-5 -0.01,0 z m 0.068,0.41032 v 10e-4 5.2e-4 5.1e-4 c 0.046,0.0528 0.1005,0.14495 0.1406,0.262 0.076,0.22389 0.2141,0.40206 0.4258,0.56224 0.274,0.20718 0.3912,0.33059 0.4785,0.67024 0.087,0.33965 0.1208,0.90184 0.1447,1.89033 -4e-4,0.006 -4e-4,0.0131 0,0.0196 0.05,0.37764 0.036,1.1759 -0.1194,1.88257 -0.078,0.35333 -0.1912,0.68697 -0.338,0.93379 -0.1462,0.24583 -0.3163,0.39665 -0.5152,0.44545 -0.057,8.4e-4 -0.1157,0.002 -0.1664,0.006 -0.035,0.003 -0.062,0.008 -0.09,0.0119 -0.014,-0.0136 -0.035,-0.0342 -0.062,-0.0744 -0.067,-0.0967 -0.154,-0.25946 -0.248,-0.47077 -0.182,-0.40907 -0.3877,-1.01593 -0.5664,-1.71825 0.1994,-0.35471 0.3851,-0.71693 0.5488,-1.08985 0.3286,-0.58941 0.1769,-1.2241 0.1581,-1.77354 0.01,-0.27377 -0.037,-0.62311 -0.025,-0.94361 0.01,-0.28634 0.092,-0.48313 0.2305,-0.61495 z m -17.6573,3.15484 c -0.1308,0.006 -0.2483,0.086 -0.3292,0.19689 -0.046,0.0634 -0.2245,0.27481 -0.3731,0.4377 -0.2183,0.2393 -0.3315,0.44261 -0.3928,0.71262 -0.07,0.30713 -0.294,0.68383 -0.7456,1.1932 -0.4556,0.51377 -0.637,0.80791 -0.7287,1.20355 -0.076,0.3281 -0.2971,0.63872 -0.4961,0.75189 -0.078,0.0444 -0.1485,0.099 -0.1974,0.17777 -0.049,0.0787 -0.066,0.17039 -0.066,0.25786 0,0.0434 -0.047,0.24079 -0.096,0.34934 -0.064,0.14064 -0.1279,0.30588 -0.1566,0.41702 h 5e-4 v 5.2e-4 c -10e-5,9.3e-4 -8e-4,0.003 0,0.006 v -0.002 c 4e-4,-10e-4 7e-4,-0.003 0,-0.004 -0.01,0.007 -0.03,0.05 -0.067,0.0956 -0.05,0.0607 -0.1227,0.14041 -0.2108,0.22686 -0.1762,0.1729 -0.4122,0.37994 -0.6543,0.57774 -0.2421,0.19781 -0.4911,0.38707 -0.6935,0.52348 -0.1011,0.0682 -0.1903,0.1227 -0.2578,0.15813 -0.048,0.0255 -0.093,0.0371 -0.1008,0.0414 h -5e-4 v 5.1e-4 5.2e-4 h 5e-4 c 0,4.5e-4 0.01,10e-4 0.011,10e-4 -0.1049,0 -0.1458,0.0274 -0.2207,0.0584 -0.075,0.031 -0.1575,0.0721 -0.2403,0.11523 -0.083,0.0431 -0.1652,0.0878 -0.2325,0.13075 -0.034,0.0215 -0.062,0.0431 -0.09,0.0646 -0.027,0.0215 -0.053,0.0354 -0.084,0.0858 -0.079,0.12739 -0.086,0.25594 -0.09,0.39275 0,0.0684 -10e-5,0.13556 0.012,0.19895 0.01,0.0634 0.015,0.12195 0.076,0.19534 v 0.006 c -0.014,0.0483 -0.019,0.10867 0,0.15813 0.024,0.0556 0.061,0.09 0.096,0.11524 0.07,0.0505 0.145,0.0763 0.2444,0.10542 0.087,0.0258 0.3372,0.17036 0.4708,0.293 v 0.002 c 0.2283,0.20065 0.3781,0.2686 0.5234,0.52917 0.011,0.0194 0.033,0.13221 0.039,0.26561 0.01,0.1334 0.01,0.28723 0.053,0.4377 0.02,0.0618 0.071,0.10796 0.1344,0.12092 l 2.1761,0.43357 c 0.075,0.0147 0.1508,-0.0197 0.1891,-0.0858 0.09,-0.15357 0.1922,-0.36562 0.2755,-0.55449 0.042,-0.0944 0.078,-0.18179 0.1054,-0.25218 0.014,-0.0352 0.026,-0.067 0.035,-0.0935 0.01,-0.0265 0.016,-0.0387 0.021,-0.0801 2e-4,-0.005 2e-4,-0.0103 0,-0.0155 0.019,-0.33291 0.084,-0.77111 0.1638,-1.13688 0.04,-0.18289 0.085,-0.34843 0.1251,-0.47284 0.033,-0.10344 0.08,-0.18536 0.084,-0.19844 v -5.1e-4 -5.2e-4 -5.2e-4 h -5e-4 c 0.053,-0.0554 0.053,-0.086 0.063,-0.1204 0.01,-0.0351 0.018,-0.0712 0.023,-0.11111 0.011,-0.0798 0.018,-0.17296 0.018,-0.26975 0,-0.35945 0.1053,-0.58125 0.2403,-0.66972 0.206,-0.13495 0.3684,-0.3434 0.508,-0.65061 0.1395,-0.30721 0.2618,-0.71821 0.4021,-1.29656 0.028,-0.11689 0.1377,-0.33864 0.2501,-0.53744 0.1124,-0.19879 0.2227,-0.36977 0.2775,-0.49196 0.03,-0.067 0.038,-0.11744 0.062,-0.1974 0.024,-0.08 0.056,-0.17292 0.094,-0.25787 0.1589,-0.35553 0.2554,-0.90082 0.3008,-1.46864 0.045,-0.56783 0.037,-1.14772 -0.055,-1.56425 -0.031,-0.14112 -0.087,-0.26139 -0.1679,-0.35346 -0.081,-0.0912 -0.1961,-0.15703 -0.3246,-0.15245 z m -3.5817,5.69888 5e-4,-5.2e-4 v -5.2e-4 c -10e-5,3.1e-4 -4e-4,7.3e-4 -5e-4,0.001 z m 3.5848,-5.34179 c 0,-3.3e-4 0,10e-6 0,0 h 0.014 6e-4 5e-4 c 0,3e-5 0.019,0.002 0.044,0.031 0.029,0.0332 0.065,0.10064 0.086,0.19534 0.077,0.35006 0.092,0.91404 0.049,1.45727 -0.043,0.54324 -0.1489,1.07637 -0.2718,1.35134 -0.048,0.10735 -0.083,0.21454 -0.1091,0.30076 -0.025,0.0825 -0.05,0.16033 -0.047,0.15451 -0.026,0.0583 -0.1473,0.25633 -0.2641,0.46302 -0.1168,0.2067 -0.2364,0.42617 -0.2852,0.62684 -0.138,0.56896 -0.258,0.96527 -0.3803,1.23455 -0.1223,0.26928 -0.2396,0.40602 -0.3794,0.49764 -0.28,0.18338 -0.402,0.54261 -0.402,0.971 0,0.0806 -0.01,0.16054 -0.014,0.21859 0,0.0679 -0.024,0.027 -0.1551,0.37311 -0.053,0.13915 -0.091,0.31462 -0.1333,0.50591 -0.082,0.37758 -0.1503,0.81761 -0.1716,1.17771 0,-0.006 1e-4,-0.009 0,-0.0103 v -5.2e-4 h -5e-4 v 5.2e-4 c -7e-4,0.002 0,0.0142 -0.01,0.0258 -0.01,0.0189 -0.017,0.046 -0.029,0.078 -0.025,0.064 -0.06,0.14763 -0.1,0.23823 -0.062,0.14184 -0.135,0.2825 -0.201,0.40669 l -1.9141,-0.3793 c -0.011,-0.075 -0.023,-0.1513 -0.027,-0.25167 -0.01,-0.13846 -2e-4,-0.28136 -0.084,-0.42374 -0.1854,-0.33227 -0.4047,-0.45007 -0.5994,-0.62116 -0.1772,-0.16205 -0.4083,-0.31211 -0.6078,-0.37103 -0.076,-0.0224 -0.1226,-0.0444 -0.1322,-0.0496 0,0.003 0.013,0.0125 0.022,0.032 0.012,0.0278 0.01,0.0698 0,0.0894 0.016,-0.0419 -0.026,-0.0809 -0.025,-0.12299 v -5.2e-4 -0.002 c 3e-4,-0.0788 0.02,-0.16071 -0.049,-0.23048 l 0.012,0.0119 c 0.01,0.01 0.013,0.0152 0.014,0.0165 h 5e-4 v -5.2e-4 c -10e-4,-0.003 -0.01,-0.0167 -0.014,-0.0357 -0.01,-0.0338 -0.01,-0.0839 -0.01,-0.13436 0,-0.0983 0.037,-0.20723 0.035,-0.20722 0.013,-0.0104 0.035,-0.0255 0.062,-0.0429 0.054,-0.0347 0.1277,-0.0781 0.203,-0.11731 0.075,-0.0392 0.1538,-0.0744 0.215,-0.0997 0.044,-0.0183 0.093,-0.0273 0.098,-0.031 l 5e-4,-5.1e-4 v -5.2e-4 h -5e-4 l -5e-4,-5.2e-4 h -5e-4 c 0,-4.2e-4 -0.01,-5.1e-4 -0.015,-5.1e-4 0.1107,0 0.1697,-0.0389 0.2558,-0.0842 0.086,-0.0453 0.185,-0.10647 0.293,-0.17931 0.2161,-0.14566 0.4699,-0.33774 0.7188,-0.54106 0.2488,-0.20332 0.4918,-0.41571 0.6796,-0.59996 0.094,-0.0921 0.1732,-0.1774 0.2361,-0.25373 0.063,-0.0763 0.1116,-0.13066 0.137,-0.23254 0.014,-0.0553 0.081,-0.23971 0.1364,-0.36329 0.071,-0.1572 0.1253,-0.33635 0.1271,-0.49403 v -0.002 c 0,-0.0478 0.01,-0.0591 0.012,-0.0682 0.01,-0.009 0.022,-0.0285 0.072,-0.0568 0.3266,-0.18574 0.5691,-0.56495 0.6662,-0.98237 0.078,-0.3382 0.2044,-0.54671 0.648,-1.04696 0.4698,-0.52987 0.7365,-0.94735 0.8283,-1.35134 0.051,-0.2238 0.1119,-0.33316 0.3086,-0.54881 0.155,-0.16989 0.3222,-0.36716 0.3963,-0.4687 0.03,-0.0415 0.049,-0.0492 0.057,-0.0506 z m -7.2936,0.98443 c 0,0.007 0.01,0.0199 0.01,0.0295 0,-3.8e-4 -0.01,-0.0208 -0.01,-0.0295 z m 0.3643,0.0227 c -10e-5,0.002 -5e-4,0.004 -5e-4,0.004 0,-1.5e-4 4e-4,-2.1e-4 5e-4,-5.1e-4 0,-7.5e-4 -2e-4,-0.002 0,-0.004 z m -2.0428,6.11539 c 0.083,0.0153 0.1403,0.0856 0.1457,0.16846 z m 2.5466,1.0728 v 0.004 c -10e-5,-5.9e-4 -5e-4,-0.001 -5e-4,-0.002 v -5.2e-4 -5.1e-4 z m -3.4122,0.82992 v 0 c 0,0.0119 -0.012,0.024 -0.012,0.0238 0,-6e-4 -0.01,0.0449 -0.01,0.0449 10e-4,-0.0238 0.01,-0.0473 0.018,-0.0687 z m -6.2797,1.35548 v 0.002 0.006 c 0,-0.002 0.01,-0.003 0.01,-0.005 l 5e-4,-5.1e-4 5e-4,-5.2e-4 5e-4,-5.2e-4 v -5.1e-4 l 5e-4,-5.2e-4 v -5.2e-4 -5.1e-4 z m 0.1349,0.12712 0.09,0.154 c -0.012,0.006 -0.033,0.016 -0.033,0.016 z m 0.1271,0.12661 -0.01,0.006 -0.01,0.007 c 0.01,-0.006 0.014,-0.0111 0.015,-0.0124 z m 10.9844,0.72295 c -0.096,0.0523 -0.119,0.17237 -0.064,0.2558 l 0.047,0.0491 c -0.02,-0.0136 -0.035,-0.0308 -0.047,-0.0491 l -0.097,-0.0997 c -0.012,0.10054 -0.019,0.1983 -0.031,0.26769 -0.01,0.0417 -0.02,0.0664 -0.023,0.0744 0.01,-0.002 0.01,-0.004 0.011,-0.004 -0.01,0.004 -0.01,0.006 -0.01,0.007 h -5e-4 -5e-4 -5e-4 v -5.2e-4 -5.2e-4 c 0,-4.2e-4 3e-4,-9.3e-4 5e-4,-0.002 -0.044,0.0144 -0.211,0.0599 -0.4051,0.0625 -0.2209,0.003 -0.4868,-0.0232 -0.7147,-0.0786 -0.3335,-0.081 -0.6351,0.20486 -0.6351,0.54519 0,0.015 -0.044,0.16367 -0.082,0.21652 -0.1,0.13971 -0.163,0.30097 -0.1876,0.45734 -0.025,0.15499 -0.022,0.31126 0.075,0.44545 0,-0.003 0,-0.005 -0.01,-0.006 h -5e-4 c 9e-4,0.004 0.014,0.0297 0.028,0.0563 0.016,0.039 0.036,0.0922 0.06,0.14625 0.025,0.054 0.053,0.10986 0.094,0.16433 0.04,0.0545 0.094,0.11434 0.1896,0.14056 0.021,0.006 0.044,0.008 0.066,0.006 l 2.1952,-0.23823 c 0.055,-0.006 0.1038,-0.0372 0.1328,-0.0842 0.1948,-0.31626 0.4299,-0.61382 0.7013,-0.8847 0.01,-0.007 0.013,-0.015 0.019,-0.0233 0.021,-0.0293 0.043,-0.0568 0.062,-0.0822 v -0.002 c 0.1608,-0.2048 0.3584,-0.48671 0.477,-0.75964 0.045,-0.10435 -0.018,-0.2234 -0.1292,-0.24598 l -1.6759,-0.33228 v 0.0486 c -0.013,-0.0202 -0.031,-0.0373 -0.051,-0.0506 z m 0.172,0.39068 v 0 5.1e-4 l 1.2304,0.2434 c -0.098,0.17001 -0.199,0.35145 -0.3049,0.48627 -0.022,0.0285 -0.045,0.061 -0.07,0.0961 -0.2584,0.26087 -0.4793,0.54933 -0.6733,0.85111 l -2.0547,0.22273 c -0.015,-0.0213 -0.034,-0.0573 -0.053,-0.0977 -0.019,-0.0421 -0.038,-0.0868 -0.055,-0.12867 -0.017,-0.0419 -0.02,-0.0697 -0.062,-0.12713 0,-0.006 -0.029,-0.0819 -0.014,-0.18138 0.016,-0.0994 0.062,-0.21658 0.125,-0.30489 0.09,-0.12615 0.1488,-0.26594 0.1488,-0.42375 0,-0.11756 0.1254,-0.21391 0.1933,-0.1974 0.2632,0.064 0.5499,0.0934 0.8026,0.0899 0.2526,-0.003 0.4587,-0.0143 0.6252,-0.13694 0.1167,-0.0868 0.1331,-0.1982 0.1504,-0.29662 0.01,-0.0327 0.01,-0.0624 0.012,-0.0951 z m 1.6067,7.3303 c -0.093,10e-4 -0.1772,0.0757 -0.1773,0.17931 v 0.15452 c 0,0.0772 0.015,0.12932 0.039,0.22272 0.024,0.0934 0.059,0.20974 0.1033,0.34158 0.09,0.26368 0.2209,0.58781 0.3907,0.89659 0.1698,0.30879 0.3752,0.60411 0.6346,0.80667 0.2594,0.20257 0.5953,0.30563 0.9379,0.18552 0.064,-0.0222 0.1102,-0.0793 0.1189,-0.14676 0.078,-0.63756 0.01,-1.27994 -0.1034,-1.88878 -0.014,-0.0768 -0.075,-0.13578 -0.1524,-0.14624 -0.6152,-0.0852 -1.1923,-0.28342 -1.6991,-0.58033 -0.03,-0.0175 -0.062,-0.0252 -0.092,-0.0248 z m 0.202,0.43305 c 0.4352,0.21825 0.8968,0.39279 1.3942,0.47697 0.086,0.50392 0.1244,1.01442 0.086,1.51154 -0.1624,0.0176 -0.3161,0.0174 -0.4707,-0.10336 -0.1968,-0.1537 -0.3871,-0.41168 -0.5432,-0.69556 -0.1562,-0.28389 -0.2811,-0.59215 -0.3653,-0.83974 -0.042,-0.12379 -0.073,-0.23243 -0.094,-0.31471 -0.01,-0.0215 2e-4,-0.0159 -0.01,-0.0346 z m 11.7476,1.50843 c -0.073,0.003 -0.146,0.0254 -0.2181,0.0667 -0.041,0.034 -0.088,0.0817 -0.1333,0.14418 -0.089,0.12491 -0.1651,0.31881 -0.1343,0.55501 0.034,0.26169 -0.098,0.81192 -0.2874,1.10742 -0.018,0.0284 -0.018,0.0282 -0.033,0.0563 -0.015,0.0281 -0.035,0.0676 -0.059,0.11524 -0.048,0.0953 -0.1101,0.22578 -0.1721,0.37724 -0.1241,0.30293 -0.2518,0.68531 -0.2574,1.04851 0,0.0763 -0.044,0.24002 -0.1095,0.44132 -0.066,0.20298 -0.1527,0.44909 -0.2305,0.71882 -0.1554,0.53946 -0.2826,1.18166 -0.1349,1.81074 0.092,0.40726 0.1548,0.84308 0.3338,1.26762 0.2729,0.7133 0.403,1.12666 0.4455,1.38286 0.026,0.15848 0.1015,0.54139 0.17,0.86507 0.065,0.30682 0.088,0.49657 0.072,0.62683 -0.015,0.13027 -0.06,0.21615 -0.1757,0.36174 l 0.01,-0.0103 c -0.01,0.0113 -0.015,0.0164 -0.015,0.0176 v 5.2e-4 h 5e-4 c 8e-4,-4.9e-4 0,-0.003 0.01,-0.007 v -0.002 c 0.01,-0.009 0.02,-0.0163 0.031,-0.0233 -0.01,0.007 -0.023,0.0178 -0.031,0.0248 v 0.003 c -0.087,0.0897 -0.2237,0.22977 -0.3752,0.36897 -0.072,0.0664 -0.078,0.17916 -0.012,0.25218 l 0.586,0.64803 c 0.034,0.0381 0.082,0.0601 0.1328,0.0605 0.035,3.7e-4 0.07,-0.01 0.1,-0.0289 0.6536,-0.42702 1.4165,-0.65412 2.1973,-0.65422 0.3894,0 0.7777,0.0567 1.1508,0.16794 0.083,0.0246 0.1722,-0.0143 0.2109,-0.092 l 0.7617,-1.50378 c 0.013,-0.0242 0.019,-0.0508 0.02,-0.078 v -0.002 c 0,-0.2653 0.012,-0.56921 0.021,-0.82062 0,-0.0666 -0.032,-0.12867 -0.09,-0.16175 l -0.066,-0.0393 c -0.1761,-0.10265 -0.2313,-0.31817 -0.1286,-0.49402 0.041,-0.07 0.099,-0.11879 0.1658,-0.14831 0.07,-0.0312 0.1124,-0.10354 0.1055,-0.17984 -0.032,-0.39084 -0.09,-0.80968 -0.1623,-1.17977 -0.072,-0.37009 -0.1528,-0.68415 -0.2537,-0.89245 -0.041,-0.0845 -0.1511,-0.34663 -0.2305,-0.55501 v -0.004 c -0.2289,-0.56696 -0.5125,-1.08932 -0.7343,-1.62885 0,-0.0109 -0.01,-0.0216 -0.016,-0.0315 -0.2015,-0.30405 -0.2895,-1.05743 -1.1875,-2.24431 v -0.002 c -0.145,-0.19694 -0.2595,-0.46087 -0.5136,-0.66611 l 0.01,0.006 c -0.088,-0.0796 -0.135,-0.13339 -0.1561,-0.1695 -0.021,-0.0361 -0.025,-0.0558 -0.025,-0.11162 0,-0.18264 -0.059,-0.35432 -0.1524,-0.49403 -0.1214,-0.18858 -0.2764,-0.27732 -0.4362,-0.2713 z m -0.01,0.3607 h 0.01 c -8e-4,7.1e-4 0,10e-4 0,0.002 0.036,0.0144 0.084,0.0414 0.1282,0.10749 0.054,0.0812 0.092,0.19229 0.092,0.29507 0,0.0978 0.023,0.20057 0.076,0.29094 0.053,0.0904 0.1252,0.16617 0.2248,0.2558 v 5.1e-4 5.2e-4 l 5e-4,5.2e-4 c 0,0.002 0.01,0.003 0.01,0.005 l 5e-4,5.1e-4 v 5.2e-4 h 5e-4 v 5.2e-4 5.1e-4 c 0.1726,0.13943 0.2774,0.36351 0.4532,0.60152 v 0.002 c 0.8517,1.12443 0.8703,1.74367 1.1602,2.19677 0.2315,0.56314 0.5133,1.08531 0.7322,1.62729 v -0.004 c 0.082,0.21648 0.1865,0.46876 0.2424,0.58394 0.069,0.14238 0.1549,0.44911 0.2243,0.8046 0.065,0.33238 0.1166,0.71083 0.1488,1.0666 -0.078,0.0572 -0.1654,0.10483 -0.2171,0.19327 -0.1809,0.30968 -0.035,0.67306 0.2367,0.89246 -0.01,0.23688 -0.016,0.51071 -0.02,0.76016 l -0.6878,1.35133 c -0.3593,-0.0933 -0.7259,-0.16019 -1.0976,-0.16019 -0.7933,9e-5 -1.5553,0.25747 -2.234,0.66404 l -0.4005,-0.44338 c 0.092,-0.0899 0.1921,-0.18683 0.2522,-0.24805 -0.01,0.007 -0.018,0.0137 -0.027,0.0196 l 0.037,-0.0295 c 0,0.003 -0.01,0.007 -0.01,0.01 0.018,-0.0152 0.033,-0.0308 0.037,-0.0362 0,8.7e-4 0,0.002 0,0.003 -10e-4,9.7e-4 0,0.002 0,0.004 -10e-5,1.8e-4 -3e-4,3.2e-4 -5e-4,5.1e-4 v -5.1e-4 h 5e-4 v -5.2e-4 l 6e-4,-5.2e-4 c 7e-4,-7.2e-4 0,-0.002 0,-0.003 0,-0.003 0,-0.004 0,-0.004 -2e-4,3.3e-4 -4e-4,7.6e-4 -10e-4,0.002 6e-4,-5.4e-4 0,-0.002 0,-0.002 v -5.2e-4 -5.1e-4 c 0.136,-0.17073 0.2283,-0.34093 0.2522,-0.54467 0.024,-0.20375 -0.011,-0.42504 -0.078,-0.74259 -0.068,-0.31938 -0.1424,-0.70838 -0.1659,-0.84957 -0.051,-0.30977 -0.1899,-0.73269 -0.4671,-1.45675 v -0.006 c -0.1557,-0.36941 -0.2175,-0.78414 -0.3142,-1.21077 -0.1245,-0.53033 -0.02,-1.11571 0.1286,-1.63091 0.074,-0.25759 0.159,-0.49554 0.2269,-0.70487 0.068,-0.20934 0.1237,-0.38248 0.1287,-0.54518 v -0.004 c 0,-0.27904 0.1149,-0.63577 0.2304,-0.91777 0.058,-0.141 0.1157,-0.26277 0.1602,-0.3514 0.022,-0.0443 0.041,-0.0805 0.055,-0.10542 0.013,-0.0249 0.032,-0.0558 0.018,-0.0336 v -0.002 c 0.2453,-0.38423 0.3957,-0.93645 0.3421,-1.34617 -0.018,-0.13991 0.022,-0.23319 0.07,-0.30076 0.017,-0.0244 0.034,-0.0396 0.051,-0.0543 0,-6.3e-4 0,-10e-4 0,-0.002 z m 21.7159,2.79105 c -1.856,0.0434 -3.4058,0.36785 -4.7981,0.95343 -0.093,0.0405 -0.1342,0.15021 -0.09,0.24184 l 4.5842,9.42217 c 0.027,0.0554 0.08,0.0929 0.1395,0.10025 l -0.01,-5.2e-4 c 0.6155,0.11024 1.0625,0.64192 1.0625,1.26711 0,0.71372 -0.5757,1.28928 -1.2894,1.28933 -0.3224,0 -0.6321,-0.12124 -0.8692,-0.33797 -0.033,-0.0302 -0.076,-0.0471 -0.1209,-0.047 h -2.5058 c -0.098,-3.9e-4 -0.178,0.0778 -0.1798,0.1757 -0.045,2.7307 0.047,5.45207 -0.096,8.15867 -0.059,0.32888 -0.08,0.66253 -0.1484,0.95291 -0.069,0.29388 -0.1775,0.53562 -0.4165,0.71986 0,10e-4 0,0.002 0,0.004 0,0.001 0,0.002 0,0.003 -0.1016,0.07 -0.1351,0.17575 -0.1509,0.26924 0.023,-0.0411 0.061,-0.0722 0.1065,-0.0858 l -0.01,0.005 c 0,-0.002 0.01,-0.004 0.015,-0.006 l -0.1168,0.11834 c -4e-4,0.001 -7e-4,0.002 -10e-4,0.003 0.017,1e-5 0.17,0 0.17,0 0,0 -0.019,0.099 -0.027,0.14263 l -0.033,0.0217 c 0.01,0.004 0.02,0.002 0.029,0.006 -10e-5,4e-4 0,0.006 0,0.006 10e-5,1e-5 0.025,0.003 0.033,0.004 0,1.2e-4 0.01,0 0.01,0 v -0.002 c 1.472,0.6117 3.0469,0.94124 4.641,0.94723 6.7165,-1.1e-4 12.1656,-5.44964 12.1657,-12.16618 10e-5,-6.71671 -5.3729,-12.32321 -12.0877,-12.16618 z m -4.8999,23.20375 c 0,-0.015 0.011,-0.0291 0.019,-0.0419 l -0.019,0.0155 c 3e-4,-0.002 7e-4,-0.004 10e-4,-0.006 -0.01,0.0111 -0.011,0.0227 -0.015,0.0351 h 0.01 z m 0.1018,-0.11266 c -0.034,0.0142 -0.062,0.0383 -0.082,0.0698 z m 4.7155,-22.73143 v 0 c 6.5231,1.1e-4 11.8087,5.28329 11.8086,11.80652 -10e-5,6.5224 -5.2848,11.80739 -11.807,11.80858 -1.5083,-0.006 -2.9915,-0.33266 -4.3884,-0.89659 0.2542,-0.23672 0.4255,-0.51909 0.4961,-0.8201 0.08,-0.34086 0.098,-0.68805 0.154,-0.99219 5e-4,-0.008 5e-4,-0.0154 0,-0.0232 0.141,-2.66862 0.055,-5.33597 0.094,-7.99641 h 2.3301 c 0.2872,0.2226 0.6232,0.38499 0.9902,0.38499 0.9072,-7e-5 1.6469,-0.73923 1.6469,-1.64642 0,-0.79619 -0.5718,-1.48068 -1.3555,-1.62108 0,-0.001 -0.01,-0.002 -0.015,-0.002 h 0.096 l -4.4374,-9.11727 c 1.3974,-0.56065 2.8798,-0.88471 4.3868,-0.88471 z m -35.8764,0.23203 -0.01,5.2e-4 c -0.026,8e-4 -0.052,0.007 -0.076,0.0191 -0.017,0.009 -0.033,0.0202 -0.046,0.0336 -0.034,0.034 -0.064,0.0719 -0.09,0.11317 -0.011,0.018 -0.019,0.0377 -0.023,0.0584 -0.032,0.16496 -0.086,0.47662 -0.1994,1.29295 -0.3549,2.57459 -0.6816,5.1489 -1.1075,7.70702 -0.1198,0.71333 -0.1918,0.97721 -0.2382,1.38493 -0.01,0.0891 0.048,0.17166 0.1349,0.19327 l 0.4552,0.10955 c 0.072,0.0178 0.1435,-0.0109 0.1856,-0.0667 10e-5,-1.9e-4 3e-4,-3.2e-4 5e-4,-5.2e-4 5e-4,-6.9e-4 0,-0.001 0,-0.002 -4e-4,5.9e-4 0,9.7e-4 0,0.002 3e-4,-4.4e-4 0,-0.001 0,-0.002 0.014,-0.0216 0.023,-0.0501 0.026,-0.0548 l 5e-4,-5.2e-4 v -5.1e-4 h 5e-4 v 5.1e-4 0.002 c -0.01,0.0193 -0.014,0.0366 -0.025,0.0522 0,-10e-4 0,-0.003 0.01,-0.004 l 6e-4,-5.2e-4 5e-4,-5.1e-4 v -5.2e-4 l 5e-4,-5.2e-4 c 0.059,-0.077 0.065,-0.11926 0.096,-0.20722 0.031,-0.088 0.066,-0.20077 0.1039,-0.33176 0.075,-0.26197 0.1592,-0.59768 0.2263,-0.93793 v 0.002 c 0.2089,-1.02437 0.9346,-5.47973 1.1503,-6.90397 v -0.002 c 0.1296,-0.84114 0.2411,-1.58242 0.3091,-1.97301 0.017,-0.0969 0.03,-0.1714 0.043,-0.22996 0.022,-0.10306 -0.05,-0.2027 -0.1545,-0.21497 -0.2548,-0.0312 -0.5114,-0.0432 -0.7715,-0.0372 z m -1.3544,0.16898 c -0.032,0.002 -0.065,0.008 -0.1008,0.0155 -4.2609,1.14743 -7.8281,6.62353 -8.4238,12.77131 -0.3258,3.36382 0.296,6.33605 1.5824,8.42998 1.2863,2.09393 3.2598,3.30922 5.5758,3.1011 3.6901,-0.48418 6.0518,-3.48521 7.6781,-6.57583 0.2785,-0.90324 0.6607,-2.36538 0.7927,-3.05459 0.1238,-0.6477 0.2584,-1.57059 0.3029,-2.59209 0.047,-1.09049 0.01,-2.08733 -0.057,-2.83755 -0.031,-0.37511 -0.066,-0.68824 -0.098,-0.92191 -0.032,-0.23366 -0.054,-0.37237 -0.078,-0.45527 -0.1134,-0.39976 -0.4038,-0.65734 -0.6501,-0.90227 -0.2463,-0.24493 -0.4513,-0.46892 -0.5043,-0.80099 v -0.002 c -0.046,-0.2787 -0.018,-0.60301 0.1508,-1.26763 0.045,-0.17986 0.073,-0.27351 0.09,-0.37878 10e-5,-0.003 10e-5,-0.007 0,-0.01 0.053,-0.52078 -0.015,-0.87127 -0.1545,-1.41594 -0.1011,-0.39623 -0.2924,-0.65481 -0.4708,-1.03353 -0.048,-0.10222 -0.115,-0.21474 -0.1737,-0.31987 -0.059,-0.10513 -0.1085,-0.20848 -0.1173,-0.2403 -0.01,-0.0313 -0.026,-0.0598 -0.049,-0.0822 -0.5936,-0.56711 -1.2589,-0.99266 -1.9766,-1.26194 -0.058,-0.0217 -0.1224,-0.0117 -0.1715,0.0258 -0.021,0.016 -0.042,0.0335 -0.061,0.0527 -0.026,0.0266 -0.043,0.0603 -0.049,0.0971 -0.011,0.0701 -0.028,0.15944 -0.049,0.27182 -0.058,0.31958 -0.1416,0.81544 -0.1835,1.06246 -0.043,0.25746 -0.37,2.32532 -0.5116,3.21066 -0.1418,0.88566 -0.2622,1.61911 -0.3927,2.28927 -0.1305,0.67012 -0.2732,1.2805 -0.4222,1.91409 -0.1934,0.82114 -0.4011,1.39351 -0.4196,1.93167 0,0.0898 0.02,0.1633 0.035,0.20877 0.015,0.0455 0.02,0.0605 0.02,0.0703 -10e-5,0.1142 -0.01,0.15142 -0.02,0.1819 -0.012,0.0305 -0.045,0.0783 -0.1193,0.17983 -0.08,0.10854 -0.2286,0.16975 -0.385,0.17157 -0.6795,-0.0631 -1.5529,-0.34506 -1.7477,-0.40824 -0.073,-0.0238 -0.2199,-0.0978 -0.3302,-0.19534 -0.1103,-0.0975 -0.1799,-0.2085 -0.1799,-0.31626 10e-5,-0.20546 0.1245,-0.38904 0.3147,-0.46664 0.036,-0.0147 0.066,-0.041 0.086,-0.0744 v -5.2e-4 l 5e-4,-5.2e-4 c 0,-0.005 0.015,-0.0231 0.027,-0.0439 v -0.002 c 0.054,-0.0869 0.1774,-0.28743 0.2791,-0.66404 v -0.002 c 0.1645,-0.61918 0.2509,-1.23905 0.3338,-1.85932 v -0.004 c 0.1462,-0.93656 0.3526,-2.26348 0.5199,-3.64681 0.1674,-1.38481 0.2963,-2.82366 0.3865,-3.57601 0.01,-0.0602 0.01,-0.10403 0.014,-0.12919 3e-4,-0.006 3e-4,-0.0117 0,-0.0176 0.011,-0.0906 0.019,-0.16716 -0.018,-0.26148 -0.019,-0.0472 -0.057,-0.0985 -0.1075,-0.12919 -0.062,-0.0301 -0.1134,-0.0389 -0.1669,-0.0362 z m 1.4464,0.19276 v 0 c 0.1465,-6.7e-4 0.2913,0.01 0.4357,0.0212 0,0.0151 -0.01,0.0231 -0.01,0.0393 -0.07,0.40207 -0.1788,1.13987 -0.3085,1.98076 -0.2141,1.4146 -0.9456,5.90281 -1.1462,6.8864 v 0.002 c -0.065,0.32863 -0.1469,0.65457 -0.2191,0.90641 -0.036,0.12592 -0.07,0.23431 -0.098,0.31212 0,0.006 -0.01,0.009 -0.01,0.0109 v 0.002 5.1e-4 c -2e-4,10e-4 0,0.004 -0.01,0.009 l -0.1519,-0.0372 c 0.045,-0.32113 0.1013,-0.5681 0.2088,-1.20871 0.4275,-2.56734 0.7549,-5.14696 1.1095,-7.71891 0.1071,-0.76966 0.1544,-1.04082 0.1855,-1.20509 z m -1.5033,0.19327 v 0 c -10e-4,2.6e-4 0,7.6e-4 0,10e-4 -0.011,0.0568 -0.013,0.10627 -0.018,0.14521 -0.092,0.76574 -0.22,2.19726 -0.3865,3.57446 -0.1665,1.37713 -0.3733,2.70216 -0.5194,3.63854 v 0.004 c -0.083,0.6204 -0.1669,1.22578 -0.3245,1.8185 -0.092,0.34124 -0.1846,0.48358 -0.2382,0.56999 v 0.004 c 0.019,-0.01 0.039,-0.0187 0.059,-0.0269 l -0.088,0.0765 c 0.011,-0.0191 0.019,-0.0309 0.029,-0.047 v -0.003 c -0.2905,0.1449 -0.4779,0.44383 -0.478,0.77205 -10e-5,0.25039 0.1456,0.44684 0.3007,0.58394 0.1551,0.13711 0.3245,0.2248 0.4569,0.26769 0.1908,0.0619 1.0827,0.36062 1.834,0.42788 0.01,3e-4 0.012,3e-4 0.018,0 0.2515,-8e-5 0.5149,-0.0957 0.678,-0.31833 0.073,-0.0993 0.1262,-0.16457 0.1639,-0.25786 0.038,-0.0933 0.045,-0.18954 0.045,-0.31678 0,-0.0838 -0.024,-0.14586 -0.037,-0.18345 -0.013,-0.0376 -0.019,-0.0535 -0.018,-0.0837 0.015,-0.44968 0.2143,-1.02208 0.4119,-1.86138 0.1492,-0.6341 0.2918,-1.25008 0.4237,-1.92805 0.1321,-0.67807 0.2529,-1.4145 0.3948,-2.30064 0.1418,-0.88635 0.4696,-2.9697 0.5096,-3.20703 0.042,-0.24733 0.1268,-0.7419 0.1839,-1.05679 v -0.002 c 0.01,-0.0303 0.01,-0.0487 0.014,-0.076 0.5991,0.25037 1.1699,0.59051 1.6795,1.07435 0.032,0.083 0.068,0.16449 0.1152,0.2496 0.061,0.1097 0.1261,0.2202 0.1623,0.29714 0.192,0.40762 0.364,0.64511 0.447,0.97048 0.1366,0.53535 0.1936,0.81118 0.1467,1.28365 -0.012,0.0702 -0.038,0.16011 -0.084,0.34364 -0.1729,0.68284 -0.213,1.06771 -0.156,1.41387 0.072,0.44952 0.3499,0.74577 0.6035,0.99787 0.2535,0.2521 0.4808,0.46623 0.5602,0.74621 0,0.0173 0.036,0.1794 0.066,0.40618 0.031,0.22679 0.065,0.53386 0.096,0.90279 0.061,0.73785 0.1027,1.72082 0.057,2.79259 -0.044,0.9993 -0.1755,1.90773 -0.2966,2.54093 -0.1249,0.6526 -0.508,2.11796 -0.7814,3.00602 -1.8048,3.69894 -4.6169,6.08663 -7.369,6.33398 -2.1755,0.19549 -4.0066,-0.92296 -5.2405,-2.93161 -1.234,-2.00865 -1.8488,-4.90716 -1.5291,-8.20725 0.5817,-6.00471 4.0999,-11.31741 8.1085,-12.43438 10e-5,-3.1e-4 0,-7.2e-4 0,-10e-4 z m 32.8792,3.74602 v 0.3576 l -0.1778,-0.18965 v 0.0935 c -2e-4,0.0486 -2e-4,0.11672 0,0.19741 5e-4,0.1614 -2e-4,0.37653 0.01,0.60771 0.01,0.46235 0.023,0.97716 0.059,1.25936 v -0.008 c 0.064,0.83754 0.3042,1.20517 0.262,2.42982 v 0.002 c -0.02,0.72835 -7e-4,1.49764 0.2109,2.22415 0.022,0.0764 0.092,0.12916 0.1715,0.12919 h 2.1348 c 0.091,-5e-5 0.1671,-0.0679 0.1777,-0.15813 0.027,-0.22195 0.1115,-0.43224 0.2465,-0.61133 0.041,-0.0532 0.049,-0.12481 0.02,-0.18552 l -2.9435,-6.04717 c -0.03,-0.0616 -0.092,-0.1008 -0.1597,-0.10129 z m 0.185,0.96687 h 5e-4 l 2.5662,5.27358 c -0.099,0.15598 -0.1639,0.32626 -0.2051,0.50591 h -1.8594 c -0.1631,-0.63336 -0.2043,-1.31562 -0.1855,-1.98644 0.044,-1.27362 -0.2031,-1.69415 -0.262,-2.4691 10e-5,-0.003 10e-5,-0.007 0,-0.01 -0.03,-0.2384 -0.047,-0.76215 -0.055,-1.2206 -6e-4,-0.0356 4e-4,-0.0588 0,-0.0935 z m -19.5523,2.88664 c -0.018,0 -0.035,0.002 -0.053,0.008 v 0 c -0.041,0.0127 -0.082,0.029 -0.1251,0.0491 -0.1342,0.0422 -0.2522,0.14843 -0.293,0.29094 -0.039,0.13692 -0.013,0.28891 0.063,0.4408 0,-0.006 0,-0.0127 -0.01,-0.0191 l 0.016,0.0413 c 0,-0.007 -0.01,-0.015 -0.011,-0.0222 0.069,0.28862 0.057,0.62087 0.083,0.96531 0,0.11612 0.012,0.35338 0.022,0.62529 0.011,0.19543 0.2831,0.23334 0.3477,0.0486 0.1693,-0.50177 0.4361,-0.96491 0.785,-1.36322 0.059,-0.0676 0.059,-0.16858 0,-0.23616 l -0.693,-0.76998 c -0.022,-0.0241 -0.051,-0.0415 -0.082,-0.0506 -0.017,-0.005 -0.035,-0.008 -0.053,-0.008 z m 4.0839,0.20878 v 5.1e-4 0.002 c -0.091,-0.005 -0.1848,-0.005 -0.2775,0 -0.6322,-0.0157 -1.2333,0.17083 -1.7497,0.49248 -0.095,0.0587 -0.1135,0.18836 -0.039,0.2713 l 1.1937,1.32033 c 0.034,0.0374 0.082,0.059 0.1328,0.0589 0.019,4.3e-4 0.039,-0.002 0.057,-0.008 0.1025,-0.0343 0.2128,-0.0551 0.3297,-0.0605 0.05,-0.003 0.084,-0.008 0.1018,-0.008 0.068,2.7e-4 0.1295,-0.0375 0.1602,-0.0977 l 0.8222,-1.62316 c 0.051,-0.10204 0,-0.22528 -0.1153,-0.25373 -0.1992,-0.0504 -0.4062,-0.084 -0.6155,-0.0935 z m -4.1377,0.17776 v 0 l 0.5292,0.58601 c -0.1891,0.23305 -0.3082,0.50768 -0.4454,0.7736 -10e-5,-0.003 10e-5,-0.0112 0,-0.0139 v -0.006 c -0.025,-0.322 -0.01,-0.68258 -0.098,-1.04489 0,-0.0136 -0.01,-0.0269 -0.016,-0.0393 -0.055,-0.10208 -0.053,-0.16664 -0.045,-0.19534 0.01,-0.0287 0.017,-0.0389 0.055,-0.0506 0.01,-0.003 0.013,-0.006 0.019,-0.01 z m 3.8427,0.1819 h 0.01 c 0.01,2.4e-4 0.011,2.4e-4 0.016,0 0.085,-0.006 0.1714,-0.005 0.2558,0 0.1067,0.005 0.2116,0.0291 0.3168,0.047 l -0.6682,1.31258 c 0,9e-5 2e-4,-6e-5 -0.01,0 -0.1036,0.005 -0.2029,0.0305 -0.3013,0.0543 l -0.941,-1.0387 c 0.4124,-0.21507 0.8506,-0.38698 1.326,-0.37517 z m -2.4975,0.86352 c -0.062,0.0391 -0.095,0.1131 -0.081,0.18552 l -0.057,-0.11938 c -0.6621,0.8077 -0.9948,1.89439 -0.7364,2.94349 0.1534,0.77668 0.5969,1.45683 1.1932,1.95079 0.088,0.073 0.2213,0.0457 0.2734,-0.0563 l 0.8108,-1.59784 c 0.031,-0.0632 0.023,-0.13877 -0.022,-0.19326 -0.3407,-0.4245 -0.3143,-1.0455 -0.039,-1.53531 0.037,-0.067 0.028,-0.14995 -0.024,-0.20671 l -1.1854,-1.31258 -0.051,0.11524 c 0.01,-0.0686 -0.023,-0.13643 -0.082,-0.17363 z m 6.2368,0.0786 c -0.1225,0.002 -0.2249,0.1376 -0.1535,0.26665 0.126,0.22914 0.229,0.47135 0.3085,0.72088 0.071,0.21111 0.3866,0.12896 0.3457,-0.0899 0,-0.008 2e-4,-0.011 -0.01,-0.0191 -0.043,-0.22198 -0.08,-0.39557 -0.1447,-0.5395 -0.043,-0.0958 -0.1139,-0.1651 -0.1855,-0.23202 0,-10e-4 -2e-4,-0.003 -5e-4,-0.005 v -5.1e-4 c -10e-5,-2.5e-4 -9e-4,-0.001 0,-0.002 -2e-4,-2.5e-4 0,-0.001 0,-0.002 0,-10e-4 0,-0.002 -0.01,-0.004 v 0.002 c -0.02,-0.0183 -0.03,-0.049 -0.053,-0.0646 h 0.01 c -0.034,-0.0233 -0.07,-0.0332 -0.1044,-0.0326 z m -0.9488,0.15399 c -0.047,0.003 -0.093,0.0242 -0.1261,0.0641 h -5e-4 l -1.031,1.2268 c -0.099,0.11638 -0.016,0.29478 0.1365,0.29455 h 1.5663 c 0.1156,-1.9e-4 0.201,-0.10822 0.1741,-0.22065 -0.018,-0.0773 -0.039,-0.15481 -0.064,-0.2341 v -0.002 c -0.1041,-0.37591 -0.2738,-0.73122 -0.4961,-1.05109 -0.038,-0.0551 -0.099,-0.0813 -0.1592,-0.0775 z m -5.2493,0.25528 h 10e-4 c -10e-5,2.1e-4 -3e-4,3.1e-4 -5e-4,5.2e-4 z m 5e-4,10e-4 0.9545,1.05575 c -0.2488,0.52919 -0.2625,1.14912 0.062,1.65416 l -0.6429,1.26762 c -0.4398,-0.42643 -0.8195,-0.92743 -0.9374,-1.5291 1e-4,-0.003 1e-4,-0.007 0,-0.01 -0.2115,-0.85158 0.056,-1.72949 0.5638,-2.43861 z m 5.2178,0.24908 c 0.1358,0.23119 0.2714,0.46485 0.3421,0.72088 v 0.002 h -0.9493 z m -1.1638,1.83193 c -0.016,5.6e-4 -0.032,0.003 -0.047,0.008 -0.058,0.0168 -0.1031,0.0613 -0.1209,0.11886 -0.014,0.0455 -0.031,0.0893 -0.051,0.13281 v 5.2e-4 5.1e-4 l -5e-4,5.2e-4 v 5.2e-4 c 0,0.004 -0.01,0.008 -0.01,0.0124 v 5.1e-4 5.2e-4 5.2e-4 c -0.1929,0.56941 -0.7779,0.86322 -1.3637,0.84181 0,-9e-5 -0.01,-9e-5 -0.01,0 -0.068,9e-5 -0.13,0.0383 -0.1602,0.0992 l -0.8222,1.62109 c -0.05,0.0997 2e-4,0.22058 0.1095,0.25218 0.5953,0.17729 1.2367,0.19737 1.8532,0.01 1.3341,-0.35346 2.3533,-1.55315 2.5647,-2.89232 0.017,-0.10904 -0.067,-0.20778 -0.1778,-0.20723 z m 2.6407,0 c -0.01,2.5e-4 -0.014,9.8e-4 -0.021,0.002 -0.083,0.009 -0.1489,0.0749 -0.1581,0.15813 -0.2281,2.03549 -1.9458,3.57239 -3.9941,3.57239 -0.418,0 -0.8325,-0.0652 -1.2304,-0.19327 -0.084,-0.0274 -0.1747,0.01 -0.215,0.0879 l -0.3457,0.68162 c -0.043,0.0849 -0.013,0.18855 0.07,0.23616 l 0.3069,0.17983 c 0.176,0.1027 0.2336,0.31818 0.1308,0.49403 -0.1026,0.17574 -0.3203,0.23393 -0.4961,0.13126 l -1.6366,-0.95912 c -0.1193,-0.0699 -0.2697,0.0158 -0.2698,0.154 -9e-4,0.17484 -0.016,0.29631 -0.01,0.4532 -0.057,0.27705 -0.011,0.66221 0.057,1.0449 0.065,0.36674 0.1499,0.70494 0.2403,0.9064 0,-0.009 0,-0.017 0,-0.0253 l 0.016,0.0506 c 0,-0.008 -0.01,-0.0166 -0.012,-0.0253 0.031,0.1818 0.1026,0.4165 0.1834,0.63872 0.085,0.23268 0.1624,0.43171 0.2636,0.56224 1e-4,1.7e-4 8e-4,10e-4 0,0.002 0.013,0.0211 0.069,0.20813 0.073,0.39119 0,0.18897 -0.038,0.39383 -0.066,0.44339 -0.059,0.10284 -0.077,0.21792 -0.092,0.39636 -0.015,0.17844 -0.022,0.42149 -0.022,0.76584 v 0.92191 c 0,0.0221 -10e-5,0.044 0.012,0.0646 l 0.1778,0.447 c 0.09,0.22739 0.1894,0.6022 0.2087,0.7736 0.016,0.14508 0.032,0.24491 0.064,0.33383 0.016,0.0445 0.037,0.0886 0.078,0.12919 0.041,0.0406 0.1059,0.0695 0.1602,0.0739 0.189,0.0136 0.6704,0.0392 1.1213,0.0625 0.2254,0.0117 0.4424,0.0231 0.6093,0.031 0.167,0.008 0.2675,0.014 0.3163,0.014 2.0424,-0.037 4.0904,0.21084 6.1701,0.21084 0.5285,0.0534 1.0217,0.0833 1.4005,0.0879 0.192,0.002 0.3548,8e-5 0.4842,-0.0114 0.065,-0.006 0.1209,-0.0147 0.1715,-0.0258 0.05,-0.011 0.093,-0.0194 0.1504,-0.062 0.087,-0.0659 0.116,-0.13819 0.1468,-0.22118 0.031,-0.083 0.053,-0.17811 0.066,-0.27905 0.01,-0.0763 0.023,-0.15291 0.037,-0.20877 0.01,-0.0279 0.015,-0.0501 0.02,-0.0625 v -0.003 c 0,0.005 -0.01,0.0106 -0.014,0.016 0.01,-0.01 0.011,-0.0163 0.013,-0.0181 v -5.2e-4 h 5e-4 v 5.2e-4 h 6e-4 c 0,4.2e-4 -10e-5,10e-4 0,0.002 0.043,-0.0528 0.046,-0.0964 0.054,-0.13642 0.01,-0.0447 0.011,-0.0885 0.012,-0.13849 0,-0.0998 -10e-5,-0.21711 -0.019,-0.34159 -0.03,-0.24896 -0.084,-0.51894 -0.1643,-0.71313 -0.1212,-0.29369 -0.2489,-0.89837 -0.3339,-1.64641 v -0.006 c -0.1502,-1.04812 -0.4121,-2.15144 -0.9767,-3.07578 v -0.002 c -0.1598,-0.26411 -0.2912,-0.55274 -0.4294,-0.84594 -0.2591,-0.58623 -0.1523,-0.33588 -0.2656,-0.5917 -0.4928,-1.10289 -0.9861,-2.20255 -1.4025,-3.32796 v -0.006 c -0.093,-0.39894 -0.1641,-0.72656 -0.3085,-1.44901 -0.016,-0.084 -0.09,-0.14475 -0.1757,-0.14469 z m -2.5239,0.3576 h 0.01 1.371 c -0.2635,1.10598 -1.0988,2.10633 -2.2071,2.3983 v 5.2e-4 h -5e-4 c 0,3.7e-4 -0.01,4.7e-4 -0.01,0.001 l -5e-4,5.2e-4 c -0.4665,0.14242 -0.949,0.094 -1.416,-0.008 l 0.646,-1.27279 c -0.036,8.9e-4 -0.073,1.1e-4 -0.1091,-10e-4 h 0.1096 l -5e-4,10e-4 c 0.6781,-0.0168 1.3567,-0.38722 1.5937,-1.08676 0,-0.0112 0.01,-0.0218 0.014,-0.0331 z m 2.5746,0.22066 h 0.01 c 0.086,0.42169 0.1632,0.79758 0.2341,1.10174 l 5e-4,5.1e-4 v 5.2e-4 c 10e-4,0.006 0.01,0.0135 0.01,0.0196 v 5.1e-4 c 0.4236,1.14813 0.9239,2.2639 1.4196,3.37344 0.1149,0.25942 10e-5,-0.007 0.2656,0.59376 v 0.004 c 0.1373,0.29131 0.2752,0.59303 0.4496,0.88108 0.5243,0.85752 0.7785,1.91557 0.9255,2.94143 0.087,0.76291 0.2088,1.37325 0.3596,1.73839 0.054,0.13095 0.1117,0.39367 0.1385,0.61909 0.013,0.11271 0.019,0.21853 0.018,0.293 -5e-4,0.0285 -3e-4,0.0519 0,0.0677 0,-0.005 0.01,-0.0111 0.015,-0.0171 -0.01,0.008 -0.012,0.014 -0.016,0.0191 0,0.004 0,0.008 -0.01,0.0103 0,0.002 -6e-4,0.004 -10e-4,0.006 v 5.2e-4 h -6e-4 v 5.2e-4 l -5e-4,5.1e-4 h -5e-4 -5e-4 v -5.1e-4 -5.2e-4 -5.2e-4 -5.1e-4 c 4e-4,-0.003 0,-0.008 0.01,-0.0155 2e-4,-7.6e-4 3e-4,-0.001 5e-4,-0.002 -0.034,0.0396 -0.037,0.0628 -0.046,0.0904 -0.012,0.0313 -0.022,0.0629 -0.031,0.0997 -0.018,0.0736 -0.033,0.16156 -0.045,0.25166 -0.01,0.0763 -0.028,0.14802 -0.047,0.19947 -0.01,0.0248 -0.022,0.0444 -0.029,0.0558 0.01,-0.003 0.017,-0.006 0.018,-0.007 v 5.2e-4 c 0,0.001 -0.01,0.004 -0.014,0.0109 0,0.003 -0.01,0.005 -0.01,0.006 l -5e-4,5.1e-4 h -5e-4 -6e-4 v -5.1e-4 -5.2e-4 c 8e-4,-0.002 0,-0.005 0.01,-0.01 0,9e-4 -0.01,0.002 -0.01,0.003 -0.027,0.006 -0.07,0.0127 -0.125,0.0176 -0.1098,0.01 -0.2652,0.0141 -0.4496,0.0119 -0.3688,-0.004 -0.8584,-0.0345 -1.3865,-0.0884 -0.01,-2.7e-4 -0.011,-2.7e-4 -0.017,0 -2.0503,0 -4.0989,-0.24976 -6.1737,-0.21239 0,-6e-5 -0.1321,-0.004 -0.2972,-0.0119 -0.1662,-0.008 -0.3822,-0.0199 -0.6072,-0.0315 -0.4232,-0.0219 -0.8477,-0.0448 -1.049,-0.0584 -0.011,-0.0363 -0.027,-0.10333 -0.041,-0.22479 -0.027,-0.23724 -0.1255,-0.59865 -0.2305,-0.863 l -0.1659,-0.41599 v -0.88677 c 0,-0.34016 0.01,-0.57773 0.019,-0.73639 0.013,-0.15866 0.039,-0.23638 0.045,-0.24598 v -0.002 c 0.1015,-0.17771 0.1179,-0.40141 0.1132,-0.6289 0,-0.22748 -0.018,-0.43792 -0.1484,-0.60565 -0.025,-0.0324 -0.132,-0.24455 -0.2113,-0.4625 -0.079,-0.21795 -0.1486,-0.46256 -0.1695,-0.5979 0,-0.017 -0.01,-0.0332 -0.016,-0.0486 -0.054,-0.11233 -0.1564,-0.47739 -0.2207,-0.84026 -0.064,-0.36287 -0.091,-0.75245 -0.059,-0.91002 v -0.0527 -0.16382 l 1.3772,0.80461 c 0.3416,0.19949 0.7849,0.0837 0.9844,-0.25787 0.1991,-0.34081 0.083,-0.78435 -0.2579,-0.98444 l -0.1622,-0.0956 0.2108,-0.41599 c 0.3866,0.10903 0.7818,0.18552 1.1839,0.18552 2.0908,0 3.8206,-1.50019 4.2365,-3.51193 z m -8.0936,0.60151 c -0.097,0.003 -0.1746,0.0828 -0.1742,0.17983 0,0.0264 0,0.0658 0.01,0.11472 0,-0.0128 0.01,-0.0257 0.01,-0.0387 v 0.0765 c 0,-0.013 -0.01,-0.0258 -0.01,-0.0377 -0.021,0.10341 -0.011,0.20195 0.019,0.34417 0.029,0.14696 0.055,0.41431 0.055,0.55449 0,0.31785 0.089,0.86783 0.1834,1.19941 0.03,0.10904 0.153,0.16261 0.2538,0.1111 0.1056,-0.0533 0.2337,-0.0553 0.3457,0.0103 l 0.2361,0.13849 c 0.089,0.0519 0.2037,0.0177 0.2501,-0.0744 l 0.3148,-0.61909 c 0.038,-0.0773 0.016,-0.17096 -0.053,-0.22272 -0.5575,-0.4224 -0.9951,-0.98342 -1.2697,-1.62678 -0.029,-0.068 -0.096,-0.11159 -0.1695,-0.10955 z m -4.84,0.56637 c -0.082,-5.7e-4 -0.1565,0.0561 -0.1757,0.13901 -0.3591,1.58394 -0.9068,3.12387 -1.6211,4.57182 -1.1508,2.32411 -2.7878,4.51687 -4.9475,5.91643 -0.015,0.01 -0.029,0.0214 -0.041,0.0351 -0.09,0.10637 -0.1629,0.2005 -0.2186,0.27905 -0.028,0.0393 -0.051,0.0745 -0.07,0.10956 -0.019,0.0351 -0.043,0.0578 -0.043,0.14056 0,0.075 0.047,0.14205 0.1173,0.16795 0.9036,0.32698 2.272,0.37737 3.6287,0.3514 1.3567,-0.026 2.6981,-0.13513 3.4902,-0.15813 l 0.8129,-0.0233 c 0.043,-0.001 0.084,-0.0181 0.1153,-0.047 l 0.2284,-0.21291 c 0.137,-0.12707 0.2825,-0.24296 0.3984,-0.32401 0.058,-0.0405 0.1085,-0.073 0.1447,-0.092 0.022,-0.0119 0.044,-0.0148 0.045,-0.0155 v -5.2e-4 h -6e-4 c 0,-1.2e-4 -0.01,5.2e-4 -0.022,5.2e-4 0.1019,0 0.1661,-0.045 0.2227,-0.0899 0.057,-0.0449 0.1064,-0.10029 0.1504,-0.16019 0.088,-0.1198 0.1644,-0.25147 0.1644,-0.416 0,-0.021 0.01,-0.1199 0.027,-0.23048 0.018,-0.11058 0.042,-0.24008 0.068,-0.36121 0.036,-0.16464 0.034,-0.41307 0.023,-0.7519 -0.01,-0.33883 -0.034,-0.75031 -0.07,-1.16995 -0.073,-0.83928 -0.1776,-1.6849 -0.3219,-2.08411 -0.056,-0.15794 -0.089,-0.42853 -0.09,-0.96273 0,-0.27344 -0.01,-0.47222 -0.02,-0.61909 -0.014,-0.14659 -0.017,-0.24275 -0.1049,-0.34519 h 5e-4 5e-4 v -5.2e-4 -5.2e-4 c 0,-0.008 -0.032,-0.0525 -0.053,-0.10335 -0.026,-0.0616 -0.051,-0.13802 -0.07,-0.20877 -0.024,-0.09 -0.055,-0.17044 -0.09,-0.23823 -0.018,-0.0339 -0.036,-0.0644 -0.062,-0.0956 -0.021,-0.0247 -0.048,-0.0643 -0.1116,-0.0796 0.01,0.006 0.02,0.0115 0.029,0.0171 l -0.088,-0.0238 c 0.023,0 0.042,0.003 0.058,0.007 -0.4437,-0.2681 -0.6686,-0.88137 -0.8242,-1.48879 -0.08,-0.31033 -0.1409,-0.61447 -0.2207,-0.86352 -0.04,-0.12452 -0.084,-0.23473 -0.1442,-0.33176 -0.06,-0.097 -0.142,-0.18632 -0.2599,-0.22686 -0.01,-0.002 -0.014,-0.004 -0.021,-0.006 h -5e-4 c -0.012,-0.002 -0.023,-0.004 -0.035,-0.004 z m 5.0627,0.17053 c 0.2565,0.42202 0.5187,0.84168 0.9023,1.15601 l -0.1778,0.35501 -0.074,-0.0429 c -0.1423,-0.0831 -0.297,-0.0329 -0.4496,-0.0134 -0.075,-0.30351 -0.1584,-0.78681 -0.156,-0.99633 v -0.002 c 0,-0.1289 -0.024,-0.29884 -0.045,-0.45631 z m -5.0023,0.36484 h 6e-4 c -10e-5,3.3e-4 0,7e-4 0,10e-4 0.02,0.0457 0.038,0.0806 0.058,0.1416 0.07,0.21928 0.1351,0.52156 0.2171,0.84181 0.1622,0.63314 0.4006,1.35897 1.0097,1.71255 h 6e-4 l 5e-4,5.2e-4 5e-4,5.2e-4 c 0,0.003 0.01,0.0125 0.014,0.0263 0.019,0.0364 0.044,0.0999 0.062,0.16795 0.024,0.0874 0.054,0.17715 0.086,0.25425 0.032,0.0771 0.055,0.1349 0.1095,0.19895 0,-0.005 -0.01,-0.008 -0.01,-0.009 h -5e-4 v -5.2e-4 h -5e-4 v 5.2e-4 5.2e-4 h -5e-4 v 5.1e-4 l 5e-4,5.2e-4 c 0,0.0108 0.023,0.0653 0.032,0.15451 0.012,0.12411 0.018,0.31558 0.018,0.58395 6e-4,0.5466 0.026,0.84994 0.1096,1.08365 0.1033,0.28583 0.231,1.16502 0.3028,1.99265 0.036,0.41382 0.061,0.82084 0.07,1.15031 0.01,0.32947 0,0.59928 -0.016,0.66404 -0.028,0.12891 -0.053,0.26617 -0.072,0.38448 -0.019,0.11832 -0.033,0.20903 -0.033,0.28525 0,0.0156 -0.036,0.12714 -0.094,0.20516 -0.029,0.039 -0.061,0.0719 -0.084,0.0899 -0.01,0.008 -0.019,0.0108 -0.022,0.0119 0.01,-3.6e-4 0.014,-5.2e-4 0.022,-5.2e-4 -0.014,0 -0.021,9.7e-4 -0.022,0.001 l 6e-4,-5.2e-4 c -0.078,0.004 -0.1158,0.031 -0.168,0.0584 -0.057,0.0298 -0.1189,0.0687 -0.1855,0.11524 -0.1331,0.0931 -0.2849,0.21769 -0.4336,0.35554 l -0.1798,0.16588 -0.7442,0.0217 c -0.8129,0.0236 -2.144,0.13244 -3.486,0.15813 -1.2483,0.0239 -2.4407,-0.0656 -3.2562,-0.30696 0.035,-0.0444 0.064,-0.0835 0.1075,-0.13539 -0.01,0.005 -0.017,0.0111 -0.025,0.0165 l 0.041,-0.0351 c -0.01,0.006 -0.01,0.0125 -0.015,0.0186 2.2207,-1.44781 3.8823,-3.6841 5.0488,-6.03994 0.6772,-1.37284 1.1723,-2.83925 1.5369,-4.33514 -2e-4,-3.5e-4 -4e-4,-6.8e-4 -6e-4,-0.001 z m 23.9304,7.99744 c 0.01,5.2e-4 0.018,0.002 0.018,0.002 l 0.01,0.002 c 0,0 -0.01,0.0285 -0.01,0.047 -0.026,-0.003 -0.052,-3.6e-4 -0.075,0.007 z m -0.022,5.2e-4 h 0.01 v 0.002 c 0,6e-5 -0.01,-2e-5 -0.01,0 v -5.2e-4 -5.1e-4 c 10e-5,-5.1e-4 0,-10e-4 0,-10e-4 z" /></g></svg>
