<?xml version="1.0" encoding="UTF-8" standalone="no"?>
<!-- Created with Inkscape (http://www.inkscape.org/) -->

<svg
   width="63.105579mm"
   height="90.358315mm"
   viewBox="0 0 63.105579 90.358315"
   version="1.1"
   id="svg1"
   xml:space="preserve"
   xmlns="http://www.w3.org/2000/svg"
   xmlns:svg="http://www.w3.org/2000/svg"><defs
     id="defs1" /><g
     id="layer3"
     transform="translate(-936.19618,-236.86475)"><path
       id="path21"
       style="display:inline;opacity:1;fill:none;fill-opacity:1;fill-rule:evenodd;stroke:#000000;stroke-width:0.358;stroke-linecap:round;stroke-linejoin:round;stroke-dasharray:none;stroke-opacity:1"
       d="m 975.41038,237.04374 c -0.5421,0.006 -1.0879,0.11109 -1.6244,0.18793 -1.3623,0.26627 -2.1782,1.79949 -2.6896,2.98218 -0.5411,2.42652 -0.1532,4.94011 -0.1924,7.40835 -0.059,4.10709 0.7813,9.84425 0.8232,10.11983 0.036,0.0676 0.083,0.34036 0.1032,0.6068 l 0.037,0.48483 -0.2964,-0.0978 c -1.3514,-0.30497 -2.6775,-0.73466 -3.9273,-1.33999 -0.2934,-0.15129 -1.1197,-1.04704 -1.1197,-1.21381 0,-0.0657 -0.098,-0.26514 -0.2186,-0.44322 l -0.2189,-0.32379 0.03,-0.49522 c 0.031,-0.51643 0.2157,-0.77438 0.3839,-0.86631 0.5402,-0.29528 0.4657,-1.15947 0.6283,-1.74008 0.2531,-0.89304 0.2822,-1.07274 0.182,-1.13469 -0.09,-0.0555 -0.09,-0.32743 -0.04,-0.52936 0.035,-0.10135 0.062,-0.16196 0.085,-0.19124 0.027,-0.0351 0.2667,0 0.654,-0.42449 0.2314,-0.25312 0.6736,-0.86333 0.5006,-1.21358 -0.2332,-0.65041 -0.6873,-1.06803 -1.2147,-1.50265 -0.6508,-0.51594 -1.3767,-1.00748 -2.82505,-1.22533 -0.74379,-0.10925 -1.51741,-0.0861 -2.26105,0.033 -0.2515,0.0455 -1.59745,0.31919 -2.83506,1.19005 -0.2416,0.17001 -0.49949,0.35637 -0.74407,0.53607 -0.74683,0.44154 -1.1045,0.97187 -1.2407,1.78429 -0.006,0.0411 -0.008,0.0769 -0.007,0.10876 -0.046,0.29966 0.66063,0.95359 1.2071,1.29714 0.0895,0.0697 0.15248,0.12493 0.19182,0.17061 0.0476,0.0552 0.0608,0.0968 0.0839,0.2304 0,0.0238 0.006,0.0498 0.006,0.0774 0.006,0.56713 0.23289,1.05272 0.50637,1.52705 0.15389,0.1784 0.22807,0.44397 0.3937,0.60706 0.0639,0.0368 0.1955,0.15432 0.29252,0.26173 0.26563,0.29415 0.40389,0.16044 0.68255,0.30811 0.0814,0.0433 0.11564,0.0908 0.14258,0.16974 0.006,0.0591 0.01,0.13501 0.0157,0.23349 l 0.0211,0.35345 c -0.0422,0.0395 -0.10827,0.0609 -0.16189,0.0864 -0.15086,0.0725 -0.31752,0.24133 -0.49013,0.49576 -0.0711,0.0746 -0.14518,0.15573 -0.22343,0.24079 -0.19403,0.21087 -0.41335,0.44695 -0.80142,0.76756 -0.38809,0.32055 -0.94477,0.72551 -1.45097,1.04606 -0.50615,0.32061 -0.96181,0.5568 -1.61985,0.7424 -0.69332,0.26806 -1.56044,0.22207 -2.18525,0.65013 -0.58558,0.30432 -0.94601,0.76675 -1.29048,1.34081 -0.10535,0.17563 -0.20161,0.37563 -0.30225,0.56707 -0.24859,0.43056 -0.43565,0.84753 -0.64257,1.36483 -0.0789,0.19728 -0.11666,0.37877 -0.18148,0.56566 -0.14123,0.40984 -0.27981,0.82454 -0.40042,1.24855 -0.0373,0.14458 -0.0736,0.29285 -0.11044,0.44316 -0.0535,0.12733 -0.089,0.27386 -0.11942,0.48575 -0.0749,0.30226 -0.15297,0.60631 -0.23933,0.90067 -0.35231,1.05677 0.0773,0.1211 -0.7919,1.92882 -0.26201,0.54489 -0.65799,1.06116 -1.0827,1.68976 -0.0341,0.0417 -0.0662,0.0778 -0.0928,0.10541 -0.18901,0.28629 -0.36779,0.58201 -0.55923,0.8755 -0.20146,0.30983 -0.37077,0.55582 -0.56795,0.88081 -0.14409,0.10297 -0.73757,1.24616 -0.72589,1.2829 5.5e-4,0 0,0.006 0,0.008 -0.48325,0.66578 -0.70013,1.41834 -0.99882,2.18362 -0.17001,0.45875 -0.37937,1.07724 -0.54889,1.95485 -0.0476,0.37115 -0.12505,0.56746 -0.15097,0.86068 -0.0676,0.41687 -0.13214,0.85381 -0.19685,1.2907 h 2.6e-4 c -0.0243,0.11536 0.0206,0.23197 0.14091,0.38954 0.21925,0.28738 0.1613,0.61426 -0.16022,0.90288 -0.12916,0.11596 -0.2349,0.23998 -0.2349,0.27569 0,0.0357 -0.0693,0.0649 -0.15405,0.0649 -0.11136,0 -0.18278,0.0536 -0.25724,0.19296 0,0 0,0.006 -0.006,0.008 l -3.43493,-0.67135 c -0.23998,0.0455 -0.47768,0.10271 -0.7122,0.17224 -0.16011,0.0476 -0.55138,0.22921 -0.84558,0.44684 -0.40079,0.29647 -0.74775,0.63894 -1.03459,1.01251 -0.53704,0.8886 0,0.006 -0.53997,0.88276 v 2.7e-4 c -0.50289,1.06733 -0.57389,2.26928 -0.11184,3.34824 0.37769,0.88173 1.00737,1.56098 1.98114,1.966 0.83806,0.013 0.60691,-0.92378 0.22678,-1.13805 -0.84434,-0.57406 -1.12923,-1.46234 -1.06928,-2.45959 0.0427,-0.6372 0.29025,-1.21526 0.66859,-1.70064 0.36286,-0.43152 0.86652,-0.84791 1.32316,-1.10201 l 3.17877,0.6325 c 0.0125,0.0206 0.0233,0.0362 0.0319,0.0455 0.18889,0.91149 0.68286,1.68905 0.78741,2.5966 0.0563,0.53093 -0.0363,0.87285 0.25783,1.16293 0.47471,0.46795 0.0379,0.49944 1.65898,0.96723 1.31293,-0.11125 1.54679,-0.0624 2.29346,-0.14372 -0.2087,1.12868 0.10514,2.01182 0.35372,2.49616 -0.0704,0.28733 -0.13197,0.57422 -0.18008,0.86604 -0.19561,0.92534 -0.37931,1.73646 -0.69764,2.7277 -0.12576,0.3915 -0.13658,1.16067 -0.90235,1.52061 -0.22076,0.16699 -3.25344,-0.187 -6.93971,4.18874 -3.49645,4.39517 -4.92809,10.37063 -3.92338,15.90888 0.53066,2.71347 1.85989,5.42505 4.19967,6.97716 0.90846,0.58417 1.94624,0.93843 3.01016,1.05753 0.0298,0.009 0.1263,0.0331 0.65349,0.0433 0.54029,0.0764 0.75349,0.45637 0.40237,0.83579 -0.17965,0.19415 -0.28046,0.49073 -0.28046,0.82486 0,0.63926 -0.22358,-0.064 -0.18982,1.11153 0,0.91209 0.73428,1.64642 1.64642,1.64642 h 35.72884 c 0.187,0 0.3665,-0.0308 0.5338,-0.0878 1.0262,-0.94222 0.5886,-0.45994 1.0304,-1.04157 0.053,-0.16249 0.082,-0.33624 0.082,-0.51703 0,-0.61171 -0.3303,-1.14356 -0.8229,-1.42748 l -0.067,-0.48104 c -0.065,-0.35161 -0.2767,-0.70393 -0.2528,-1.06245 l 0.015,-0.0903 c 0.7106,0.10422 1.4281,0.15654 2.1466,0.15654 5.5764,-0.013 10.6581,-3.15923 13.095,-8.10762 0.08,-0.12034 0.1584,-0.26682 0.1796,-0.35935 0.033,-0.0642 0.065,-0.12873 0.097,-0.1935 0.022,-0.0319 0.048,-0.0852 0.074,-0.14794 0.7582,-1.76968 1.1498,-3.67117 1.1518,-5.59241 0,-7.95341 -6.5354,-14.40094 -14.5972,-14.40088 -1.6079,0 -3.2047,0.26211 -4.7259,0.77567 -0.073,-0.0966 -0.083,-0.38938 -0.1219,-2.79793 -0.048,-1.32392 -0.094,-2.65493 -0.3719,-3.95439 -0.1208,-0.47661 -0.079,-1.84045 0.063,-2.16961 0.6419,-0.39658 1.1844,-1.12447 1.5426,-2.07005 l 0.3568,-1.35785 c 0.1709,-1.06456 0.1198,-2.19006 -0.1451,-3.20338 -0.01,-0.0859 -0.029,-0.16033 -0.065,-0.23181 -0.086,-0.28706 -0.1886,-0.56026 -0.3067,-0.81593 0.039,-0.0303 0.091,-0.0525 0.156,-0.064 0.3049,-0.0683 0.5225,-0.30292 0.7782,-0.46785 1.0335,-0.88464 1.403,-2.28594 1.6509,-3.5512 0.059,-0.21093 -0.045,-0.65928 -0.1144,-0.9742 -0.2676,-1.21067 -1.4473,-3.20902 -2.3527,-4.13983 -0.7007,-0.69386 -1.3654,-1.54691 -2.1912,-2.08795 -0.2768,0 -0.3124,-0.43732 -0.2309,-2.84404 0.01,-0.1165 0,-0.32072 -0.01,-0.45383 -0.022,-0.3824 0.061,-2.58134 0.1308,-3.47962 0.073,-0.94818 0.1404,-1.89684 0.2226,-2.84432 0.037,-0.41605 0.079,-1.36401 0.095,-2.10668 0.2544,-4.42936 0.3226,-8.9729 0.035,-13.44544 -0.036,-0.31617 -0.086,-0.87426 -0.1116,-1.24037 -0.1386,-1.97714 -1.6707,-2.83588 -2.4363,-2.99452 -0.32,-0.0975 -0.6439,-0.13063 -0.9692,-0.12749 z m -3.8087,30.93225 c 0.1193,0 0.2741,0.16514 0.3668,0.43591 0.066,0.19404 0.1712,0.33121 0.3655,0.47817 0.5722,0.43278 0.6456,0.71848 0.6934,2.69946 0.1097,0.82464 -0.065,3.21053 -1.1106,3.4623 -0.1312,0 -0.275,0.0108 -0.3193,0.0233 -0.1735,0.0492 -0.6767,-0.97464 -1.0464,-2.45873 0.2158,-0.3779 0.4115,-0.7662 0.5858,-1.16493 0.2899,-0.52006 0.1561,-1.10879 0.1371,-1.68279 0.021,-0.4859 -0.1986,-1.45616 0.3162,-1.79235 0.01,-2.6e-4 0.01,-3.8e-4 0.011,-2.6e-4 z m -17.58666,3.56462 c 0.13159,-0.006 0.26016,0.12965 0.31233,0.36547 0.16963,0.76658 0.0476,2.29016 -0.23376,2.92066 -0.0858,0.1923 -0.13246,0.40209 -0.15606,0.45496 -0.0805,0.18051 -0.46037,0.74245 -0.53742,1.06002 -0.2784,1.1473 -0.48997,1.61335 -0.83579,1.83991 -0.20746,0.13593 -0.32125,0.42569 -0.32125,0.81961 0,0.17743 -0.0243,0.34869 -0.0548,0.38029 -0.14643,0.15297 -0.38078,1.22538 -0.41974,1.92097 -0.006,0.0707 -0.24869,0.63434 -0.41411,0.91663 l -2.17518,-0.43288 c -0.07,-0.22548 -0.0146,-0.57557 -0.10513,-0.73736 -0.16542,-0.29642 -0.35085,-0.389 -0.56232,-0.57487 -0.15562,-0.14291 -0.39571,-0.29138 -0.53969,-0.33392 -0.18203,-0.0535 -0.24967,-0.10232 -0.22651,-0.16271 0.0184,-0.0476 0.006,-0.12136 -0.0325,-0.16471 -0.0687,-0.0828 -0.0578,-0.45669 0.0168,-0.57741 0.0525,-0.0848 0.60361,-0.37136 0.71442,-0.37136 0.29258,0 2.07243,-1.45438 2.14727,-1.75464 0.0206,-0.0832 0.0871,-0.25999 0.14733,-0.39311 0.0603,-0.13316 0.1105,-0.32379 0.11158,-0.42363 0,-0.13522 0.0455,-0.20686 0.17337,-0.27964 0.26281,-0.14945 0.49414,-0.4949 0.58077,-0.86766 0.0853,-0.36692 0.23858,-0.61735 0.68818,-1.12436 0.46069,-0.51962 0.70667,-0.91728 0.78741,-1.27284 0.056,-0.2469 0.14312,-0.40366 0.35064,-0.63114 0.15183,-0.16639 0.32536,-0.36995 0.38558,-0.45242 0.06,-0.0822 0.12965,-0.12191 0.19853,-0.12386 z m -4.86631,11.71284 1.6772,0.33191 c -0.10729,0.24674 -0.29944,0.52444 -0.45436,0.72173 -0.0211,0.0271 -0.0439,0.0576 -0.0671,0.09 -0.28111,0.2805 -0.52558,0.58856 -0.72784,0.91711 l -2.19504,0.23885 c -0.1362,-0.0374 -0.22153,-0.37347 -0.26536,-0.43289 -0.10427,-0.14122 -0.053,-0.46821 0.10963,-0.69623 0.0636,-0.0895 0.11574,-0.23322 0.11574,-0.31963 0,-0.22895 0.21368,-0.42039 0.41437,-0.37163 0.49106,0.11936 1.10586,0.11054 1.27928,-0.0173 0.0864,-0.0639 0.091,-0.2732 0.11352,-0.46194 z m 1.76303,7.72404 c 0.52811,0.30941 1.12868,0.51432 1.7661,0.60257 0.10719,0.6009 0.17678,1.22582 0.10233,1.83543 -1.1295,0.39592 -1.86843,-2.06069 -1.86843,-2.28476 z m 11.90471,1.926 c 0.22869,0 0.44011,0.29597 0.44011,0.60068 0,0.15367 0.0536,0.24518 0.24188,0.41438 0.21379,0.17267 0.32298,0.41746 0.48375,0.63504 0.88177,1.16424 0.92988,1.85788 1.18138,2.23724 0.22671,0.55133 0.51071,1.07437 0.73461,1.62884 0.081,0.21243 0.1873,0.46805 0.2357,0.56789 0.17,0.35068 0.3366,1.2428 0.4001,2.01019 -0.1008,0.0443 -0.189,0.12008 -0.2491,0.22289 -0.2599,0.4449 0.17057,0.72587 0.2611,0.77857 -0.01,0.25389 -0.018,0.55853 -0.021,0.82632 v 2.7e-4 l -0.7626,1.50378 c -0.3897,-0.11628 -0.79424,-0.17531 -1.20094,-0.17531 -0.81549,10e-5 -1.6133,0.23765 -2.296,0.68368 l -0.58721,-0.64927 c 0.15627,-0.1435 0.29485,-0.28619 0.38197,-0.3758 0.30945,-0.34764 0.23216,-0.73229 0.15439,-1.15517 -0.0677,-0.32153 -0.14339,-0.70723 -0.16834,-0.85706 -0.0471,-0.28337 -0.18159,-0.70121 -0.45744,-1.42185 -0.16759,-0.39728 -0.22862,-0.82351 -0.32326,-1.2407 -0.27212,-1.15942 0.46465,-2.45093 0.47904,-2.9271 0.006,-0.64224 0.47606,-1.47846 0.49213,-1.50351 0.21704,-0.33987 0.35848,-0.89185 0.31455,-1.22755 -0.0492,-0.37612 0.23684,-0.57162 0.26454,-0.57444 z m 21.67163,3.16703 v 2.7e-4 c 6.6199,1.1e-4 11.9864,5.36667 11.9863,11.98664 -10e-5,6.61981 -5.3665,11.9862 -11.9863,11.98631 -2.19412,-0.008 -4.76866,-0.75041 -4.5594,-1.10759 0.5727,-0.43218 0.5263,-1.17246 0.6456,-1.81334 0.1436,-2.71694 0.051,-5.44004 0.096,-8.16471 h 2.5068 c 0.27,0.24679 0.623,0.38445 0.9902,0.38445 0.8104,-6e-5 1.4674,-0.65701 1.4674,-1.46747 0,-0.71069 -0.5092,-1.31922 -1.2088,-1.44454 h -3e-4 l -4.5849,-9.42218 c 1.471,-0.61865 3.0509,-0.9373 4.6468,-0.9373 z m -35.13326,0.62713 c -0.13687,0.73452 -0.23925,1.47538 -0.35279,2.21381 -0.21481,1.41878 -0.94352,5.89246 -1.14838,6.89658 -0.13198,0.66887 -0.32986,1.32235 -0.39122,1.40178 -0.006,0.006 -0.006,0.008 -0.0108,0.0114 l -0.45437,-0.1099 c 0.0449,-0.39511 0.11732,-0.65592 0.23782,-1.3738 0.42666,-2.56273 0.75257,-5.13984 1.10732,-7.71311 0.11335,-0.81479 0.16682,-1.12144 0.19793,-1.28236 0.19562,-0.17445 0.55546,-0.0676 0.81449,-0.0444 z m -2.0773,0.12869 c 0.0958,0 0.11671,0.071 0.0976,0.23099 -0.006,0.046 -0.0119,0.0948 -0.0184,0.14681 -0.091,0.75905 -0.21942,2.19368 -0.38646,3.57468 -0.16699,1.38096 -0.37282,2.70833 -0.51897,3.64488 -0.0834,0.62097 -0.16817,1.23501 -0.32937,1.84159 -0.097,0.3594 -0.20443,0.53261 -0.25811,0.61908 -0.0124,0.0206 -0.0222,0.0357 -0.0292,0.0476 -0.25708,0.10487 -0.4252,0.35486 -0.42531,0.63256 -1.1e-4,0.35815 0.42785,0.61501 0.63364,0.68168 0.19333,0.0627 1.07982,0.35507 1.79602,0.41919 0.20519,-6e-5 0.41303,-0.0797 0.53489,-0.24609 0.14707,-0.20081 0.17353,-0.22721 0.17364,-0.46865 0,-0.0936 -0.0578,-0.15292 -0.0536,-0.27288 0.0168,-0.49392 0.22007,-1.06565 0.41557,-1.89587 0.14913,-0.63385 0.29209,-1.24805 0.42331,-1.9221 0.13127,-0.67411 0.25063,-1.4079 0.39235,-2.2938 0.14172,-0.88584 0.46995,-2.9621 0.51167,-3.2095 0.0417,-0.24739 0.12532,-0.74283 0.18289,-1.06002 0.0206,-0.11223 0.0379,-0.20227 0.0503,-0.27602 0.0135,-0.0141 0.0276,-0.0265 0.0417,-0.0373 0.69359,0.26027 1.33858,0.67232 1.91626,1.2242 0.039,0.14209 0.21705,0.41112 0.30146,0.59028 0.18516,0.39317 0.36594,0.64051 0.45799,1.00131 0.13809,0.54122 0.20069,0.85397 0.15042,1.35255 -0.0141,0.0879 -0.0417,0.18029 -0.0878,0.36297 -0.17067,0.67373 -0.20411,1.02891 -0.15271,1.34134 0.12479,0.78158 0.96571,1.04498 1.15851,1.72472 0.0568,0.20037 0.3199,1.9952 0.22651,4.15746 -0.0439,1.0104 -0.17803,1.92616 -0.30059,2.56661 -0.12856,0.67195 -0.99707,3.15339 -0.99707,3.15339 -1.82314,3.74736 -4.46651,6.07665 -7.31363,6.33254 -4.49148,0.40361 -7.60911,-4.6714 -6.96346,-11.33531 0.58996,-6.0892 4.14533,-11.49915 8.29084,-12.6155 h 2.7e-4 c 0.0303,-0.009 0.0565,-0.013 0.0786,-0.0135 z m 32.80026,4.13646 h 4e-4 l 2.9424,6.04688 c -0.154,0.20417 -0.2512,0.44485 -0.2818,0.6982 h -2.1344 c -0.2028,-0.69652 -0.2241,-1.44881 -0.2039,-2.17016 0.043,-1.24913 -0.2002,-1.64381 -0.2614,-2.45006 -0.065,-0.5206 -0.064,-2.07898 -0.061,-2.12486 z m -19.36887,3.85293 0.69488,0.76842 c -0.36454,0.41605 -0.64326,0.90002 -0.82015,1.42413 -0.009,-0.27326 -0.0163,-0.51248 -0.0211,-0.63141 -0.026,-0.33706 -0.006,-0.68596 -0.0928,-1.01365 -0.13977,-0.26114 -0.0579,-0.44825 0.11547,-0.50155 0.0303,-0.0184 0.0673,-0.0282 0.12359,-0.046 z m 4.07748,0.20973 c 0.19615,0.009 0.3896,0.0395 0.57819,0.0872 l -0.82287,1.62294 c -0.1672,0.002 -0.32829,0.0354 -0.48933,0.0765 l -1.19318,-1.3198 c 0.48997,-0.30524 1.05601,-0.48088 1.65009,-0.46611 0.0927,-0.006 0.18527,-0.006 0.2771,-3.3e-4 z m -2.78338,1.22197 1.18588,1.31169 c -0.30491,0.54208 -0.33971,1.24156 0.0559,1.73451 l -0.80976,1.5975 c -0.56898,-0.4713 -0.99044,-1.11792 -1.13416,-1.85111 -0.24539,-0.98773 0.0696,-2.02146 0.70214,-2.79259 z m 6.23787,0.0803 c 0.079,0.0545 0.1373,0.12727 0.1839,0.23148 0.055,0.12283 0.094,0.28961 0.1385,0.52038 -0.083,-0.26043 -0.1908,-0.51242 -0.3224,-0.75186 z m -0.9407,0.15378 c 0.2117,0.30464 0.374,0.6424 0.4723,0.99823 0.024,0.0756 0.044,0.15183 0.062,0.22819 h -1.5659 z m -1.2049,2.33654 h 1.7717 c -0.2002,1.2684 -1.1781,2.41819 -2.4378,2.75006 -0.5804,0.17721 -1.18741,0.15832 -1.75319,-0.0102 l 0.82237,-1.62234 h 2.7e-4 c 0.65106,0.0238 1.31625,-0.30837 1.53815,-0.96333 0.0405,-0.0896 0.0567,-0.15369 0.0585,-0.15419 z m 2.6391,0 h 0.1596 c 0.1452,0.72622 0.2165,1.05786 0.3105,1.46071 0.4208,1.14049 0.919,2.2511 1.4148,3.3608 0.1145,0.25848 0,-0.006 0.2657,0.59532 0.1379,0.29252 0.2728,0.58721 0.4401,0.86349 0.5448,0.89109 0.8021,1.97227 0.9507,3.00956 0.086,0.75663 0.2106,1.36445 0.3468,1.69426 0.24885,0.52018 0.13602,0.99668 0.0475,1.51303 -0.023,0.17721 -0.081,0.33467 -0.1414,0.38028 -0.1253,0.0948 -1.0358,0.0838 -2.1009,-0.0249 -2.0653,0 -4.1138,-0.24896 -6.17267,-0.21169 -0.0984,0 -1.66687,-0.0801 -2.0345,-0.10648 -0.074,-0.006 -0.10838,-0.0984 -0.14009,-0.37861 -0.0233,-0.20432 -0.12185,-0.5726 -0.21952,-0.81847 l -0.17754,-0.44712 v -0.92107 c 0,-0.6845 0.0243,-0.96024 0.0886,-1.07268 0.12992,-0.22727 0.11715,-0.85743 -0.0211,-1.03567 -0.12629,-0.16288 -0.36633,-0.82254 -0.41584,-1.14287 -0.14859,-0.30994 -0.38288,-1.42878 -0.29414,-1.8634 -0.0147,-0.16065 0.006,-0.2785 0.0114,-0.48764 l 1.6383,0.95716 c 0.25864,0.15108 0.58845,0.0646 0.73958,-0.19409 0.15113,-0.25865 0.0646,-0.58845 -0.19404,-0.73958 l -0.30789,-0.18009 0.34506,-0.68086 c 0.41568,0.13375 0.84964,0.20188 1.28627,0.20188 2.13792,0 3.93442,-1.60643 4.17252,-3.73102 z m -8.03441,1.17999 c 0.28679,0.672 0.74413,1.25779 1.32652,1.69901 l -0.314,0.61962 -0.23684,-0.13842 c -0.16493,-0.0963 -0.35876,-0.096 -0.51675,-0.0162 -0.0881,-0.30838 -0.1809,-0.87562 -0.17787,-1.15007 0,-0.15827 -0.0238,-0.4239 -0.057,-0.59028 -0.0652,-0.32721 0.008,-0.41824 -0.0241,-0.42366 z m -4.84866,0.56567 c 0.51697,0.17775 0.36038,2.3077 1.44869,2.91482 0.039,0 0.10612,0.12932 0.14881,0.28743 0.0427,0.15811 0.11422,0.33029 0.15909,0.38283 0.0588,0.0688 0.0819,0.30545 0.0825,0.84726 5.4e-4,0.5404 0.0286,0.82816 0.0993,1.02399 0.24767,0.68503 0.46372,3.44693 0.36265,3.90574 -0.0549,0.25004 -0.0998,0.53422 -0.0998,0.6314 0,0.18014 -0.22477,0.4857 -0.35734,0.4857 -0.0931,0 -0.40188,0.21574 -0.68758,0.48066 l -0.22818,0.21168 -0.81177,0.0233 c -1.60497,0.0466 -5.3468,0.43527 -7.05264,-0.18202 0,-0.0487 0.11526,-0.20622 0.29079,-0.41444 2.19661,-1.42342 3.85007,-3.64173 5.01089,-5.98617 0.72059,-1.4606 1.27246,-3.0146 1.63468,-4.61237 z" /></g></svg>
