<?xml version="1.0" encoding="UTF-8" standalone="no"?>
<!-- Created with Inkscape (http://www.inkscape.org/) -->

<svg
   width="60.526726mm"
   height="82.999878mm"
   viewBox="0 0 60.526726 82.999878"
   version="1.1"
   id="svg1"
   xml:space="preserve"
   xmlns="http://www.w3.org/2000/svg"
   xmlns:svg="http://www.w3.org/2000/svg"><defs
     id="defs1" /><g
     id="layer7"
     transform="translate(-864.00662,-238.5536)"><path
       id="path28"
       style="display:inline;opacity:1;fill:#f9f9f9;fill-opacity:1;fill-rule:evenodd;stroke-width:0.356287;stroke-linecap:round;stroke-linejoin:round"
       d="m 898.49964,238.55359 c -0.0959,0 -0.15976,0.13202 -0.15782,0.45229 -0.29716,0.0943 -1.1382,0.53314 -0.57952,1.64199 0.33148,-0.32545 0.44379,0.38809 0.72205,-0.17479 0.12803,-1.09425 0.41572,-0.23496 0.79077,-0.48628 -0.14128,-0.7012 -0.54844,-1.43451 -0.77548,-1.43321 z m 6.03518,2.32115 -0.006,2.7e-4 c 0,-5e-5 0.005,0 0.005,0 0,-5e-5 0,-2.1e-4 0,-2.7e-4 z m 0,2.7e-4 c -0.11877,0.007 -0.27239,0.1276 -0.47018,0.40053 0.55469,0.089 -0.36956,1.56237 0.30789,2.38213 0.0382,0.5054 -0.13024,2.25598 -0.34236,2.00885 0.006,1.9182 0,1.72192 -0.056,3.4844 0.60031,1.15506 -0.16089,1.58085 0.18119,3.00835 -1.47791,1.39201 0.54231,2.20821 -0.72705,3.49749 1.06311,-0.22213 0.0162,1.76631 0.19316,2.96634 -0.44934,0.0188 -1.27658,0.30029 -1.57154,0.38637 0.66878,1.08864 0.28909,1.10728 0.82918,0.50131 0.46237,0.76293 0.6795,0.68698 0.0933,1.68066 0.98247,0.47223 -0.085,4.37649 0.0312,3.26507 -0.84793,0.30934 0.61087,1.34191 0.18787,1.61053 0,0.88482 -0.0339,2.68942 -0.42891,3.93308 0.54014,1.80148 -1.94056,0.97348 -0.73982,0.71004 0.0829,-1.34574 -1.04491,0.97644 -0.96648,0.4768 -1.11585,0.71542 -0.27148,-0.74849 -0.63296,-0.96029 1.25654,0.36687 -1.57778,-2.52497 0.0264,-2.02194 -0.16946,0.64507 -0.0194,0.95883 0.32259,0.79552 -0.23065,-1.16583 0.0501,-2.34982 0.11833,-4.24286 -0.2698,-0.84372 0.0714,-2.27612 -0.74515,-0.53971 -1.27178,-0.80726 0.0755,-0.79358 0.49937,-1.19998 -0.11833,-1.83299 -1.20585,0.74202 -1.06359,-1.11784 2.17147,-0.21503 -0.0453,0.0506 1.16518,-0.66608 -0.0242,-0.70012 -0.20226,-0.66377 -0.55307,-1.26263 -0.77952,-0.99486 -0.50482,-1.78343 -0.47573,-2.59559 1.2595,0.33924 0.55464,1.00122 1.67291,-0.12162 0.0639,-0.11786 -1.06468,-1.48342 -0.94946,-0.6942 -0.17555,1.60008 -0.69646,-0.66581 -0.54085,-1.54207 0.1478,-0.63969 -1.3891,-1.62281 0.26749,-2.11297 -0.50218,-0.16009 -0.67298,-1.06382 -0.63797,-1.34665 -1.54158,0.23877 0.90002,-1.56453 -0.44394,-1.51283 0.45924,-0.6016 -0.11823,-0.78248 0.47066,-1.40843 -2.10042,-0.40629 -1.15554,-1.52435 -1.48357,-2.53133 -1.58786,0.37527 -0.47239,4.11622 -0.39391,5.84897 0.11882,2.55369 0.14048,5.24451 1.02573,7.42718 0.36143,1.86903 -1.53307,-0.19568 -1.09586,0.94445 0.0474,-0.15674 0.12189,1.71282 -0.60904,1.09085 -0.77467,0.9353 -0.63877,2.8048 -1.80616,3.42257 -1.01706,0.0269 -2.57922,0.0442 -2.50742,1.02293 0.12733,0.95694 -0.47669,0.24955 -0.87092,0.55506 0.47561,0.59046 -0.23539,1.46979 -0.15368,1.75887 1.20316,0.0312 -0.42177,0.42908 0.75657,1.13901 -2.46731,0.39757 1.13852,1.18975 -0.74122,1.40509 -0.23468,-1.3474 -2.15711,0.25688 -3.13258,-0.34095 -1.76146,-0.0124 -1.89827,-2.48534 -0.28144,-1.77256 -0.41696,-0.34403 -1.37967,-1.03984 0.25499,-0.65466 0.26496,1.08331 -0.22628,1.07081 1.02573,1.15016 0.52986,-0.99342 1.14574,-2.06978 -0.32151,-2.41666 -0.98856,-1.19384 -1.14762,0.54095 -2.13635,1.05051 -0.68154,-0.44713 -0.62983,0.497 -0.66215,1.22529 -0.56826,2.02378 -0.36159,-0.10972 -1.41123,0 -0.13391,1.07157 -0.67195,-0.2077 -0.86403,0.60042 -0.68235,-1.03321 -1.22223,0.10094 -0.58394,-1.21888 -0.4119,-0.39154 0.65062,-1.91249 -0.85956,-1.83434 1.06995,-0.49953 3.01476,1.56249 2.80825,0.2391 -0.45424,-1.17261 -2.43196,-0.63451 -2.73532,-1.22836 -1.07173,0.0927 -0.69711,-0.16693 -0.994,-2.0186 -0.54074,-1.70377 -0.54397,-1.63127 -1.61161,-2.18143 0.0356,-0.48693 -1.03742,-0.84502 0.2516,0.60262 0.22348,1.55549 0.55673,2.93031 -0.28532,1.29602 -0.64906,-1.62561 -1.20553,0.53746 -0.12609,0.95835 2.06939,0.89985 -0.80732,1.51363 -0.37829,0.45369 0.0361,-0.60569 -2.17777,0.96185 -0.9319,1.74417 1.4449,-0.13046 1.5258,1.31212 0.15475,0.6956 -1.32424,-1.06899 -2.48339,1.19475 -1.5718,1.97906 1.302,1.39115 -2.2402,0.32437 -1.50674,0.90906 0.67104,0.72221 0.1087,1.1465 0.26889,2.40244 -2.05189,-0.75399 -0.064,0.73093 -0.0361,1.17967 0.6454,0.90729 -1.62701,1.54487 -0.66775,2.39436 -1.19039,0.0188 0.26528,2.33279 0.51273,1.09193 0.21379,-0.27853 0.41131,-0.54769 0.59735,-0.81194 -0.0747,0.0619 -0.1897,0.10034 -0.37106,0.10384 -0.53778,-0.3827 0.26463,-1.66778 0.63769,-1.68987 0.13471,-0.008 0.21368,0.14926 0.15254,0.57398 -0.31548,0.24389 -0.22229,0.62121 -0.31898,0.86844 0.87389,-1.25966 1.51239,-2.42279 2.50429,-3.96648 0.0595,-0.35679 0.15239,-0.60995 0.26588,-0.78636 -0.29302,0.28947 -0.61685,0.64729 -1.04469,1.22336 -0.4,0.93373 0.0113,1.1578 -0.86786,1.2679 -1.65168,-1.01215 0.4063,-1.73673 0.61486,-3.09943 0.68601,-0.42752 1.96059,-1.08385 0.27336,-1.15431 -0.73104,-1.1857 1.37827,-0.35943 0.95307,-1.6729 -0.0496,-0.62224 2.1859,-0.72781 1.67311,-1.34245 0.71429,-0.46296 0.19715,-0.19143 0.47907,-1.42712 -0.38464,-0.70513 -0.19079,-1.27566 0.0323,-1.28153 h 3.2e-4 c 0.18502,-0.005 0.39014,0.38459 0.30256,1.40956 -0.60538,1.64021 1.44969,2.99359 0.23522,3.52334 -1.41527,-0.48272 -0.82288,2.01845 -1.78144,1.72995 -0.20124,0.2007 -0.38405,0.36525 -0.56897,0.53665 0.10752,-0.0555 0.22155,-0.0773 0.33622,-0.0776 0.0563,-0.0689 0.11996,-0.10234 0.18292,-0.10412 0.0918,-0.005 0.18212,0.0611 0.24579,0.18093 0.38356,0.12162 0.67911,0.31478 0.61372,0.005 -0.11107,-1.55064 0.93255,0.5702 1.39874,0.16563 0.49059,0.46 2.44283,1.15134 2.8202,1.71072 0.72436,0.67049 1.88712,0.54251 2.53742,0.39751 -0.55275,-1.64807 1.55117,-0.22122 1.88416,0.67691 0.83295,-0.75555 0.30837,-0.3338 1.19497,0.17985 -0.035,-0.51176 2.0803,-1.05692 0.59123,0.31284 -0.27828,0.34995 -1.94208,0.26065 -2.71589,-0.2753 -0.62757,-0.68509 -0.77311,2.75083 -0.87066,0.46905 -2.00707,1.57638 1.98532,0.7326 0.19041,1.54175 -1.37159,-0.0442 2.24828,0.73712 0.18287,0.79136 -0.33783,1.52629 -0.13326,-0.96044 -0.65805,0.29755 -0.4251,-0.0757 -0.24648,-0.15992 -0.37296,-2.20896 -0.17726,0.73519 -1.46924,1.97557 -2.17389,0.8225 -0.32,-0.0753 -3.03426,0.58157 -2.36295,1.13152 0.61157,-0.009 0.94089,2.50521 2.45393,1.09446 0.90922,0.28349 1.97088,-0.20603 2.34539,-0.30842 0.99056,0.80763 1.71277,0.12641 0.60791,1.18328 0.46894,0.98027 -1.73016,0.49404 -1.67258,1.91529 0.52307,0.53708 -2.33317,1.29817 -2.42474,1.42157 -0.92215,0.50471 -2.08895,0.27347 -3.0579,-0.48213 -1.47286,-0.54473 -2.82764,1.91077 -3.56849,3.00059 0.21767,1.68837 -1.02993,0.76379 -1.68734,0.22101 -0.0479,0.0296 -0.0967,0.0541 -0.14559,0.0735 0.34952,0.10282 -0.0318,1.01027 -0.60985,0.58728 -0.51741,-0.0784 -1.69639,-0.89619 0.0818,-0.40441 0.0746,-0.0512 0.14209,-0.0907 0.20296,-0.12028 -0.42315,0.005 -0.85299,-0.2621 -1.22589,-0.47427 l -0.40802,0.0442 c -0.13557,-0.0372 -0.22051,-0.37172 -0.26414,-0.43086 -0.0642,-0.0869 -0.0691,-0.24438 -0.0253,-0.40554 -0.0581,-0.23625 0.009,-0.47357 0.25472,-0.66668 0.0334,-0.19951 0.22607,-0.35307 0.40775,-0.30896 0.0573,0.014 0.11592,0.0258 0.17565,0.0366 0.083,-0.0232 0.1729,-0.0447 0.26975,-0.0632 0.40344,-0.0253 0.69603,-0.0759 0.90238,-0.14392 0.0189,-0.0892 0.0259,-0.20097 0.0382,-0.30644 l 0.34042,0.0673 c 0.31936,-0.47938 -0.94575,-1.22324 -0.61206,-1.27231 -0.37985,-0.83866 -0.92231,1.64618 -1.43962,0.12356 0.70486,-0.88897 -0.54462,-1.32554 -0.77246,0.19655 -0.42229,2.87089 -1.19659,-0.31823 -1.80148,0.76821 -0.16843,0.4225 -0.24529,0.68428 -0.27056,0.87017 0.0902,0.27163 0.16348,0.54795 0.19682,0.83753 0.042,0.39557 -5e-5,0.68574 0.10019,0.92775 0.28639,0.25612 0.79842,0.54208 0.85568,0.8239 1.60364,0.36293 4.26677,-0.54909 4.85858,1.33496 0.80731,-0.12793 -0.22758,2.45425 0.68304,1.03214 -0.24632,3.0781 -1.93883,-3.46716 -1.47581,0.61765 0.29178,0.80866 -1.5007,2.79075 -0.48208,2.8166 1.30199,0.0996 0.76432,2.33796 -0.94779,1.6687 0.92069,0.86921 -0.82622,0.51478 -1.41344,1.12759 -0.53703,0.98178 -3.88871,2.14384 -2.9316,3.24557 0.56864,-0.57538 1.43725,-1.09285 2.20508,-1.32021 0.31742,-0.13934 0.63969,-0.25375 0.96562,-0.34155 h 2.7e-4 c 0.0302,-0.009 0.0563,-0.0129 0.0782,-0.0135 l 2.7e-4,2.7e-4 c 0.0954,0 0.11623,0.0706 0.0972,0.22989 0,0.0194 -0.005,0.0388 -0.008,0.0593 0.50481,0.16817 0.70787,0.72501 0.25413,1.87554 0.0839,0.91273 -0.21239,1.13087 -0.16337,2.31335 1.25718,-0.7117 -0.6802,-5.25545 1.94346,-4.84689 1.32467,-1.85636 -0.55803,2.11039 0.21206,2.61202 -0.6441,0.0232 -0.19569,2.52541 -0.68526,2.47316 -0.19509,1.92591 -0.22892,3.53094 -0.74709,4.97018 -0.52097,1.06139 -0.43182,2.78935 0.14915,0.81308 0.23011,-1.35489 1.08056,-3.89915 1.08811,-5.91436 0.21658,-0.60953 0.28591,-2.01527 0.51547,-3.09276 -0.35641,-0.7396 -0.0102,-1.68061 0.1673,-1.68599 0.10278,0 0.14894,0.30998 -0.0312,1.15909 0.0977,-0.30793 0.21858,-0.55835 0.37441,-0.71035 0.005,-0.0221 0.008,-0.0425 0.0108,-0.0618 0.0135,-0.014 0.0275,-0.0264 0.0415,-0.0372 0.0162,0.006 0.0323,0.0124 0.0479,0.0183 0.26856,-0.17301 0.62891,-0.0809 1.12478,0.43592 1.47393,0.52927 1.48482,2.42167 2.48706,2.97248 0.46549,1.24603 -0.33589,-2.50451 -0.11969,-2.98864 -0.22773,-0.42682 0.24789,-1.56512 0.29421,-1.74136 -0.23991,-0.71327 1.27695,-0.77796 1.31412,-1.65422 -0.78512,-0.69441 -0.49523,-1.62227 0.0701,-0.6998 0.84184,-0.53314 0.78695,0.13579 0.50853,1.42626 -0.4384,0.1414 -0.0426,0.46108 -0.78049,0.43092 1.52117,0.20058 1.14191,0.76906 1.13653,1.23445 0.67809,0.0541 -0.28866,0.78049 -0.0649,1.17439 0.87486,1.25051 -1.25352,2.25 0.47735,3.12335 2.64304,0.0888 -0.10235,1.11364 -0.0259,1.27566 -0.58243,0.80677 -3.23776,-0.31004 -2.83448,1.08778 1.69241,-0.0205 -0.0671,1.22158 1.39454,1.6651 -1.67344,0.31176 1.62507,0.8372 1.31352,1.05217 -0.55754,0.57715 -1.19508,0.40931 -1.2414,1.13842 0.91935,-0.45639 1.20219,-0.38443 1.59324,0.16956 -1.38478,1.00348 0.46226,1.71519 -0.29727,2.16161 1.42254,-0.67621 1.45093,1.10825 0.52662,1.62949 -0.34273,0.28279 -0.0118,1.36685 1.05638,1.91228 -0.42929,0.19784 -2.11168,-0.94343 -0.80219,0.6023 0.11096,1.42896 2.13839,1.43515 1.43154,1.72273 -2.01817,0.46215 0.11236,3.28505 0.67163,1.46995 -0.12147,0.43893 2.23362,-0.16041 1.41236,-0.18034 -0.32205,-0.55593 -0.35835,-1.42044 -0.19649,-2.11852 -0.0372,-0.27961 -0.0501,-0.5423 -0.0167,-0.70675 -0.0145,-0.15992 0.005,-0.27724 0.0113,-0.48542 l 0.44675,0.26081 c 0.34343,-0.3506 0.82578,-0.29932 1.36868,0.58006 0.11855,-0.0189 0.15405,-0.40069 0.2377,-0.88822 l -0.18567,-0.10853 0.34349,-0.67777 c 0.007,0 0.0135,0.005 0.0205,0.006 0.0884,-0.28359 0.2098,-0.56056 0.38416,-0.79131 h -2.7e-4 c -4.9e-4,0 0,0 -0.005,0 l 0.81862,-1.615 h 3.3e-4 0.0712 c 0.27493,-0.35066 0.76091,-0.5736 1.33919,-0.70007 0.0485,-0.0801 0.0891,-0.16666 0.12082,-0.25995 0.007,-0.0156 0.014,-0.0312 0.0205,-0.0469 -0.26501,0.0302 -0.34009,0.0226 -0.63241,0.25214 -0.083,0.028 -0.11244,0.23441 -0.23078,0.0983 -1.07081,-0.42079 -0.42611,-1.73964 -0.10826,-1.75365 0.1443,-0.006 0.22132,0.25688 0.0388,0.99654 0.40395,0.0793 1.54775,-0.91978 1.77144,0.23242 -0.0903,0.0253 -0.17247,0.0474 -0.24745,0.0657 h -0.55054 c -2.7e-4,0 0,0 0,0 h 1.7614 c -0.0156,0.0979 -0.0356,0.19493 -0.0601,0.29114 0.29668,0.0156 0.58787,0.0458 0.86177,0.086 0.0253,-0.12368 0.0452,-0.24929 0.0596,-0.37689 v -2.7e-4 h 0.1589 c 0.11392,0.56972 0.18206,0.89533 0.25165,1.20413 0.19924,0.0145 0.4321,0.10342 0.69032,0.34149 1.21296,3.46992 -0.36202,-1.59167 0.25521,-3.11914 0.26727,-0.11161 -0.58265,-0.23631 -1.14703,-0.64551 0.0788,0.0971 0.006,0.2098 -0.41589,0.28279 -0.006,-0.0291 -0.0135,-0.0523 -0.0205,-0.0787 0.0205,0.082 0.0404,0.17371 0.0612,0.28197 -0.0215,-0.0671 -0.0442,-0.13347 -0.069,-0.19929 -0.008,4.8e-4 -0.0162,0.005 -0.0242,0.005 -0.32275,-0.28822 -0.31155,-0.42423 -0.18061,-0.46705 -0.0151,-0.0291 -0.0307,-0.0585 -0.0469,-0.0874 0.0591,0.0404 0.1066,0.0917 0.14613,0.15836 -0.0178,-0.0296 -0.0366,-0.0575 -0.0579,-0.0816 0.021,-0.005 0.0436,-0.005 0.0671,-0.005 v -2.7e-4 c 0.13838,0 0.32033,0.0452 0.44061,0.11328 -0.2021,-0.1715 -0.34898,-0.38793 -0.36046,-0.66441 0.80161,-1.05115 1.1961,0.64346 2.18531,0.69974 0.99013,1.96814 1.52909,-0.89753 2.54109,0.22327 -1.43068,0.17883 -0.80311,0.63462 1.08638,0.24244 -1.7251,0.38653 0.37559,0.49501 -0.95221,0.95754 -1.51745,0.37015 -0.4147,0.53869 0.37322,0.60204 -0.22256,-1.11536 1.56464,-0.26685 0.7911,0.0732 1.06575,0.49533 -1.09467,1.58397 0.11522,2.26465 1.1152,1.58117 -0.45752,4.12727 0.3318,5.19151 1.50819,0.0221 0.20344,0.47562 0.52135,1.41317 0.93885,1.33469 0.3645,2.24629 1.90392,3.13229 0,0 0.005,0 0.005,0.005 -0.25919,-0.41443 -0.52038,-0.86958 -0.8776,-1.37175 -0.54484,-1.49478 0.0898,-2.36252 -0.71289,-3.61297 0.15249,-1.31999 0.46021,-3.8984 -0.25381,-4.33028 0.6859,-1.16788 -0.85735,-1.83946 0.32593,-2.89621 -0.37931,0.10821 -0.2307,-2.2939 -0.57844,-2.16888 -0.33374,-0.69366 -0.5374,-1.70797 0.72765,-1.65842 0.0614,-0.67841 0.31235,-0.89861 0.56891,-0.90992 0.42751,-0.0183 0.87157,0.54413 0.48321,0.53497 -1.00526,0.37883 0.63705,0.44072 0.71897,0.66415 -1.09408,0.40004 -0.66909,1.05842 -0.12857,0.8832 -0.45563,0.60441 -1.3675,0.15109 -0.45563,0.69533 -0.89032,0.4509 1.47802,2.24569 -0.10806,1.85577 -0.83419,0.0523 1.11488,1.20699 -0.2001,0.97612 0.76444,0.60226 -0.0178,1.99022 0.4565,2.0534 -0.11107,1.26457 -0.53724,-0.0248 -0.28365,1.36394 -0.60344,1.08509 0.6684,1.62777 0.70449,0.28694 0.52786,0.7361 0.72226,0.941 0.1353,1.50673 0.0786,1.10459 -0.64017,1.62777 0.55388,1.19357 -0.2398,0.70486 -0.12448,1.15005 -0.95193,1.00898 -0.57419,-0.17145 0.84512,0.7577 1.55068,0.60737 0.3979,0.27417 -1.26052,0.60209 0.0955,0.96729 0.43861,-1.29258 0.7696,1.02718 0.36573,1.53506 -0.51305,1.13373 0.55114,1.5996 -0.60818,1.53259 2.16512,0.6719 5.59533,0.90642 7.33395,0.46905 1.57541,-0.48106 -1.16238,-1.13244 -1.76948,-1.16852 -1.22293,-0.78232 -2.30172,0.96637 -2.77292,-0.10687 -1.2624,0.19897 -2.43152,-1.3878 -1.89724,-3.10084 0.37968,-1.36275 0.12938,-6.46172 0.43231,-7.91626 0.0334,-0.98076 0.92145,-0.76821 1.26671,-0.74677 2.5845,-0.0821 4.26624,-0.5666 2.51879,-1.36367 -0.35615,-1.41926 -0.87685,-2.24979 -1.20941,-2.83303 -0.0936,-0.97574 -0.52005,-1.45917 -1.1376,-2.31921 -0.25742,-1.12614 -0.61217,-1.77703 -1.11396,-1.79588 0.23463,-1.79361 -1.55247,-1.3069 -0.89571,-3.37053 -0.0479,-0.0996 0.53369,-0.43328 0.79439,-0.52221 0.9751,-0.50482 1.74713,-0.43808 2.61455,-0.69447 0.2,0.0674 2.5253,0.0382 3.2962,0.19456 0.33719,0.0388 1.07442,0.35485 1.32882,0.43118 0.82676,0.24454 4.4063,1.52908 2.5953,0.014 -1.0492,-0.904 -2.05558,-0.30735 -3.20735,-1.36028 -1.58807,-0.0748 -3.21772,-0.47906 -4.95629,-0.22186 -2.77226,1.38204 -2.85236,-1.62082 -2.83081,-3.77134 -0.29329,-0.28354 0.30918,-1.18931 -0.0816,-2.40857 -0.29124,-1.77029 -0.45682,-3.31042 0.40808,-4.70657 1.24172,-1.51611 1.48712,-4.46553 0.8281,-5.8696 0.0855,-0.0547 0.17048,-0.11182 0.25467,-0.17118 -0.005,-0.0108 -0.0102,-0.0221 -0.0151,-0.0329 0.0372,-0.0286 0.0859,-0.0501 0.14586,-0.0618 0.96783,-0.71887 1.80266,-1.75731 1.99576,-3.14145 1.31558,-2.49357 -2.30214,-0.58534 -2.48484,-0.0957 0.12959,0.18863 -2.63389,0.46905 -3.46792,1.17434 0.0866,0.0334 0.19353,0.0665 0.32313,0.0991 0.96077,-0.0199 2.57404,-1.27388 2.13355,-0.36547 -1.01324,0.43447 -2.39054,0.80182 -2.88339,1.30125 -0.0248,-0.29394 -0.20996,-1.15625 -0.87098,-1.095 0.005,-1.42977 1.96038,-1.35872 2.68942,-1.50868 0.54855,0.1408 0.20797,0.33019 -0.30783,0.54225 1.06931,-0.36029 2.36419,-0.56815 1.54983,-1.06166 -1.25659,0.40684 -3.58475,0.0259 -4.35285,1.28407 -1.70393,0.451 -0.71671,2.09999 -2.99058,1.46741 -2.38493,0.19095 -1.0218,-0.66339 -1.03909,-1.96539 -0.0873,-0.072 -0.20861,-0.25919 -0.32205,-0.49964 0.18761,0.8475 0.26932,1.75241 -0.16531,1.6261 0.29846,-2.5302 -1.51072,1.03386 -2.61062,0.3869 0.8915,-0.12755 0.24433,-1.53657 0.81663,-1.49725 -0.11106,-0.37128 -1.25115,-1.67781 -0.22795,-1.11784 0.8378,0.74122 -1.02406,-1.40784 0.49323,-0.94332 1.02148,0.27913 -0.55776,-0.93938 -0.0629,-1.30991 -0.84749,-0.70837 -0.10223,-1.04545 -0.27304,-1.85771 -0.65778,1.73107 -0.95613,-0.14032 -0.72985,-0.61373 0.6594,-0.56018 -0.14737,-1.17003 0.27363,-1.53819 1.0497,0.73142 0.91972,0.0731 0.34069,-0.54612 1.31659,-1.27884 1.17461,0.66489 1.58047,-0.41723 -0.18308,-0.69587 0.57634,-0.88003 0.24131,-1.25756 0.32448,0.29937 1.25896,-0.41545 1.41931,-1.38705 -0.0463,-0.94025 1.17046,-1.62238 1.17046,-2.8027 0.006,-0.007 0.0124,-0.007 0.0194,-0.007 l 2.7e-4,2.7e-4 c 0.21001,0 0.66398,2.20659 0.0621,2.47537 -0.37301,-1.62707 -2.26492,2.89879 -0.38917,0.79357 0.66883,-1.21059 0.45839,1.54288 0.83479,1.84684 -0.24315,1.02992 0.17355,1.94286 -0.17064,2.66938 -0.25268,1.1494 -0.80915,-0.23867 -1.02374,-0.35545 -1.2065,-0.7417 -1.32435,0.29636 -1.35058,1.60466 0.0615,-0.87103 0.16078,-1.57988 0.50018,-1.66035 0.005,-0.005 0.009,-0.005 0.0129,-0.008 0.005,-2.7e-4 0.008,-3.8e-4 0.0113,-2.7e-4 h 2.7e-4 c 0.008,0 0.0145,4.8e-4 0.0221,0 0.22693,-0.0151 0.55232,0.22639 1.02632,0.84006 0.86182,1.68357 0.7528,3.73497 0.49878,5.42808 0.40376,-0.0205 0.30503,-0.85046 0.74208,-0.91019 0.74095,-1.87285 0.59698,1.44258 -0.27276,1.69708 -1.41711,-0.13374 -0.6607,1.06527 0.47847,-0.17591 1.82259,-1.05827 1.13561,-1.08633 3.20016,-2.07953 0.0232,-0.0463 0.049,-0.0878 0.0777,-0.12555 -0.0772,-0.0118 -0.17608,-0.0624 -0.18093,-0.076 v -2.7e-4 -2.7e-4 -2.7e-4 -2.7e-4 -2.7e-4 l 2.7e-4,-3.2e-4 v -2.7e-4 -2.7e-4 l 3.2e-4,-2.7e-4 h 0.0113 c 0.83591,-0.82563 0.20215,-1.684 0.40613,-2.77765 0.30045,-0.28672 0.428,-0.73207 0.63796,-0.73207 h -2.7e-4 c 0.10999,0 0.24271,0.11936 0.43452,0.44702 1.10087,-0.56848 -0.81119,1.26887 0.48182,1.5404 0.64389,0.79255 -0.0296,1.07092 -0.77521,1.27706 0.80542,0.0479 1.63428,0.39272 1.16432,-0.39332 1.29796,-0.71439 -0.20905,-1.77164 -0.38604,-2.27192 1.05568,-0.50492 2.47854,-1.05778 0.3262,-0.66188 -1.04292,-0.20038 -0.9611,-0.80661 -1.17828,-1.71632 -0.47357,-1.59098 -0.0479,-4.49235 0.0399,-6.61524 -0.24012,-1.89197 -0.0285,-3.09227 0.31791,-4.40375 0.005,-2.88317 0.29625,-5.96467 0.19709,-8.99295 -4.9e-4,-0.16272 0,-0.32351 0,-0.48623 -0.23528,-0.97779 0.32738,-5.2437 -0.38524,-5.23745 z m -10.08353,64.76129 c 0.0129,0.0221 0.0253,0.0463 0.0372,0.0721 0.008,0.0183 0.0156,0.0399 0.0232,0.0601 -0.008,-0.0199 -0.014,-0.0426 -0.0221,-0.0604 -0.0119,-0.0264 -0.0248,-0.0496 -0.0382,-0.0719 z m -5.01416,-58.62593 c -1.52079,0.0741 -2.99171,0.3917 -4.23176,1.04717 -2.2416,0.58297 -0.9521,2.10349 0.45036,2.65684 -0.75054,0.865 0.066,1.84192 0.96168,2.81939 0.0678,0.0129 0.14123,0.0312 0.22828,0.0774 0.0811,0.0431 0.11483,0.0907 0.14166,0.16924 0.005,0.0458 0.008,0.10094 0.0118,0.16924 0.52049,0.57161 0.99573,1.13772 1.12624,1.67619 -1.21479,-0.94956 -0.80931,0.82207 -0.70815,-0.0969 2.08006,1.28003 0.0558,2.05831 -1.47829,2.90402 -0.27282,2.24683 2.77242,-1.90888 3.99039,-0.8637 0.2857,-0.58109 0.44756,1.51869 1.18135,1.09893 -0.14711,1.42012 2.64005,0.35033 2.25573,1.10307 0.52846,-0.45989 -0.46425,-0.47104 -0.0866,-1.09058 -0.5743,0.8483 -1.44991,0.1979 -1.23946,-1.19771 -1.01142,-0.4383 -0.26011,-0.77349 0.44174,-1.6623 -0.56261,-0.0649 -0.52302,-0.77451 -0.28058,-1.63892 0.028,-0.23759 0.0908,-0.41189 0.16725,-0.53476 0.26458,-0.77973 0.61992,-1.60115 0.81194,-2.15299 -0.0264,-0.035 -0.0501,-0.0702 -0.0713,-0.10552 -0.63533,1.13012 -1.18813,2.23885 -1.09166,2.34981 -0.20813,0.95253 -0.45052,2.37551 -1.9117,3.1017 0.0963,-0.20382 -0.61702,0.25155 -0.65973,0.24244 l -2.7e-4,-3.2e-4 h -2.7e-4 v -2.7e-4 l -2.7e-4,-2.7e-4 c 0,-0.0113 0.0522,-0.0568 0.17673,-0.15534 -0.17377,-0.56665 -1.53103,0.0253 -0.0415,-0.90379 -0.97348,0.34075 -2.59058,-2.31173 -1.90446,-1.83401 1.14886,0.66835 3.07137,1.08471 2.89653,-0.46737 -0.10374,-1.49026 1.94935,-0.21336 0.97894,-2.00299 0.73939,0.23749 0.99013,-1.20466 0.12055,-1.33523 0.25052,0.76514 -0.13924,1.25929 -0.54254,0.52189 -0.77505,-0.11188 -1.56798,-0.50923 -1.3202,-1.31159 -1.88987,-0.70696 0.58151,1.42993 -1.62556,1.00483 -0.93351,-0.80553 0.82094,-1.1445 -1.02988,-0.96389 -1.67721,0.0248 -0.39907,0.74294 -1.52316,0.89656 -0.76524,-1.33415 1.91556,-2.42834 3.49356,-2.4111 1.43859,0.31607 3.82285,0.088 1.09451,-0.23103 -1.72817,0.083 -2.09854,-0.15636 -2.34345,-0.40802 0.0892,-0.136 0.91805,-0.25935 1.88108,-0.28197 h -5.3e-4 c 0.96303,-0.0226 2.06036,0.0548 2.68718,0.32092 0.63338,0.43872 1.47226,-0.005 1.58047,1.3411 -1.01727,0.37624 -1.12791,1.30668 -1.03041,1.90086 0.20732,-1.2971 2.72378,-2.65361 0,-3.52502 -0.66172,-0.11009 -1.34159,-0.18663 -2.02337,-0.22127 -0.51127,-0.0259 -1.02368,-0.0285 -1.53059,-0.005 z m -3.4307,4.11655 c 0.24131,0.0517 0.49625,1.42389 0.0129,0.84949 -0.85148,-1.36524 -0.0388,-0.50185 -0.0129,-0.84949 z m 2.51437,0.9703 c 0.0549,0 0.11112,0 0.16757,0 0.75221,0.0496 1.5321,0.6357 -0.34349,1.10394 -0.31844,0.31053 -0.1778,-0.57618 -0.40112,-0.47206 -0.12949,-0.4357 0.19224,-0.61534 0.57704,-0.63355 z m 10.09546,3.58265 c 0.11058,0 0.25521,0.23145 0.34376,0.91768 l -0.15615,0.0905 -0.083,-0.081 2.7e-4,-2.7e-4 c -0.37339,-0.31085 -0.28322,-0.92689 -0.10493,-0.92689 z m -8.16121,1.48137 c 0.16935,-0.005 0.40355,0 0.71591,0.0188 0.6501,0.16369 0.91511,0.96545 0.53526,1.01824 -0.45468,-0.51235 -2.43682,-1.01076 -1.25117,-1.03715 z m 0.62875,8.71846 c -0.39859,0.008 -0.87808,1.33426 -0.59288,1.90279 -0.45719,0.93373 -0.59255,1.1612 0.55895,1.57073 h 2.7e-4 c 0.85398,-0.56547 -1.42389,-0.65989 0.16784,-1.02099 0.13579,-0.94241 -0.54026,-2.04301 0.096,-2.2688 -0.0681,-0.13041 -0.14753,-0.1854 -0.23022,-0.18373 z m 8.26032,2.74732 c 0.18976,5.4e-4 0.5311,0.6719 0.0533,1.01232 -0.23065,-0.75485 -0.17091,-1.01264 -0.0533,-1.01232 z m -17.04778,0.52302 c 0.31484,-0.0135 -0.0755,1.46989 -0.80359,1.07216 0.41206,-0.7939 0.67066,-1.06623 0.80359,-1.07216 z m 14.26097,2.90009 c -0.006,0.005 -0.0118,0.0108 -0.0183,0.0156 0.007,0.0178 0.014,0.0366 0.021,0.0559 0,-0.0242 0,-0.0479 -0.005,-0.0718 z m -15.47377,0.71563 c -0.20069,-0.005 0.35987,1.08622 0.77748,1.66316 0.4678,0.32593 0.29819,-1.78462 -0.17926,-1.10642 -0.33929,-0.39789 -0.5227,-0.55501 -0.59822,-0.55674 z m 26.48414,0.88542 c 0.0926,4.8e-4 0.23372,0.0275 0.44454,0.0869 0.47217,1.00941 0.26544,2.54 -0.90712,2.7086 -0.28882,0.19671 -0.43684,0.56471 -0.72151,0.72231 0.0956,-1.1375 0.76358,-1.33054 0.53024,-2.07812 1.06505,-0.66883 0.15399,-1.43967 0.65385,-1.43967 z m -30.72225,0.31763 c 0.0119,-5.4e-4 0.0242,-4.3e-4 0.0372,2.7e-4 0.34947,0.0178 1.15075,0.4551 0.31123,0.57952 v -2.7e-4 c -0.53234,-0.42153 -0.52431,-0.57133 -0.3485,-0.57952 z m 26.58179,0.26609 c -0.59983,0.24621 -1.09818,0.50864 -0.56417,0.7535 -0.0765,-0.32194 0.17689,-0.56094 0.56417,-0.7535 z m -11.05098,1.09338 c 0.46883,-0.0188 0.90033,0.31193 0.24799,0.98507 0.99669,-0.0248 1.34708,1.13932 -0.58707,0.70448 -0.98901,0.0953 -1.30347,0.60877 -0.3095,1.06581 -1.00151,0.0275 -1.71322,-0.7722 -2.56443,-1.30825 0.78265,0.35604 2.03148,-0.75846 2.54359,-0.76352 -0.0825,-0.44217 0.30476,-0.66877 0.66942,-0.68359 z m 12.91984,0.16224 c 0.01,-4.8e-4 0.0183,-4.3e-4 0.0264,0 0.27891,0.0151 -0.37629,0.58631 -1.21921,1.0608 1.32603,-0.2411 2.9128,-0.33326 0.60764,0.23495 0.55378,0.0113 1.9899,-0.0876 1.25315,1.00817 0.43252,1.03004 -0.3547,1.55812 -0.90799,1.79927 -0.0685,-0.75156 -0.59088,-1.20978 0.65499,-1.12899 -0.12098,-0.71439 -0.29044,-0.008 -0.48074,-0.92915 -0.53142,-0.55259 -0.13918,1.18102 -0.85449,-0.0787 -0.51467,-0.51682 -2.59479,-1.53824 -0.0827,-1.5808 0.54624,-0.26657 0.8614,-0.37834 1.00317,-0.3855 z m -8.40029,0.12443 c 0.64588,1.07986 1.26236,2.82128 1.37337,3.93895 0,1.48697 0.23808,3.21778 0.49237,4.38258 -0.84324,-0.98037 0.3422,1.80924 -0.16084,1.2846 -1.02794,0.0388 -1.18516,-1.1787 -2.01973,-2.08932 0.0566,-1.13739 -0.81755,-1.83757 -0.93998,-2.9093 -0.21082,-0.34112 0.65089,-2.1259 0.17592,-1.43962 -0.6329,-0.21696 -2.26444,1.42907 -1.43321,0.20431 0.23792,-1.16346 0.67481,-1.51638 0.4189,-2.11906 1.06311,-1.09004 -0.0979,1.29494 1.05772,-0.59789 -0.0178,-1.31756 1.15021,0.40349 1.03548,-0.65525 z m 3.49577,0.30061 c -1.37859,1.43267 0.24928,0.21993 0.009,1.29877 -0.56821,-0.56929 -1.49462,-1.03608 -0.009,-1.29877 z m 0.78663,0.7304 c 1.03752,0.43037 0.98355,0.8197 1.43434,1.29709 1.48847,-0.61523 1.52952,0.53325 1.57961,1.79205 -0.0156,0.61394 -0.92727,-0.41119 -0.40807,-0.8601 -0.50837,0.41632 -1.89617,-1.62879 -1.22137,-0.44286 0.87508,0.69371 -0.2559,1.28713 0.68305,1.73635 0.0735,0.54823 -1.05024,-0.0226 -0.98592,-0.36132 0.16778,-1.52327 -2.54135,-1.75424 -1.08164,-3.16121 z m -1.53038,0.61404 c 0.16536,0 0.38604,0.20172 0.51887,0.51882 0.21998,0.26523 -0.62461,0.89118 -0.62434,0.476 -0.21303,-0.71246 -0.0941,-0.99482 0.10547,-0.99482 z m -2.18672,0.88795 c -0.99061,0.92091 -1.29655,2.07268 0.30897,1.98127 -0.0541,-1.15635 -0.18718,-1.74212 -0.30897,-1.98127 z m -16.17017,0.11548 c -0.11047,0.005 -0.23921,0.0463 -0.38965,0.13364 -0.083,0.86979 1.09338,0.86834 0.95975,1.70458 0.007,0.18599 0.51003,0.049 0.21152,-0.0687 -0.11091,-0.38109 -0.0851,-1.73814 -0.7354,-1.76949 -0.0151,0 -0.0307,0 -0.0463,0 z m 17.73481,0.31096 c 0.11845,0 0.28031,0.0895 0.49625,0.29641 -0.76094,1.11978 0.76374,0.1916 -0.13832,1.44048 l -0.0426,0.23657 -0.18313,-0.0108 v 2.7e-4 c -0.26539,-0.0194 -0.70303,-1.97475 -0.13218,-1.9629 z m -7.91575,0.0356 c 0.2823,0.0135 0.47909,0.11775 0.47742,0.41001 0.0334,1.10292 -0.85581,-0.74628 -1.39041,0.5659 -0.72867,-0.69102 -1.28083,0.27077 -0.13024,0.56223 -0.0312,0.64943 -0.6301,0.51601 0.46678,0.76379 1.7471,0.28224 -0.27379,-0.27902 0.0232,-1.34105 1.76455,-0.50261 0.23059,1.94621 2.05676,0.803 1.09473,-0.46635 2.74598,-0.63489 2.31917,0.54532 -0.35712,0.65956 -1.08999,0.58485 -0.59789,1.02013 -0.3261,0.76389 -0.86592,0.0528 -1.07329,1.18969 0.0705,0.24637 -0.68715,1.13297 -2.42277,1.51837 -0.60085,1.08282 -1.12866,0.48876 -1.5613,0.0162 0.10164,0.19838 0.19887,0.52716 0.28753,1.02153 2.34218,1.94308 -1.01711,2.27154 -0.70223,3.94978 2.38607,0.6552 4.51834,-0.75388 6.84462,-0.81442 0.0874,-0.1666 0.24066,-0.26377 0.43338,-0.31624 -1.54007,0.16967 -3.10218,0.42025 -4.42712,1.11703 -2.00683,-1.54196 -1.00265,-2.49729 -0.36107,-3.5938 0.50952,-0.55733 2.58457,0.0759 2.6282,-1.25502 0.0415,-0.1282 0.10374,-0.23517 0.18147,-0.32346 -0.22634,0.10913 -0.48413,0.15939 -0.76239,0.10407 0.39191,-0.20792 0.11214,-1.04135 1.70991,-1.29543 -0.0156,0.22047 -0.22704,0.62919 -0.5673,0.9333 0.16332,-0.0637 0.34807,-0.0951 0.54058,-0.10186 1.09661,-0.0388 2.44687,0.71365 1.5376,0.76961 0.84814,0.54349 0.3889,1.34143 0.45789,1.74751 0.4781,-0.30897 0.88294,1.44129 0.80608,1.7007 -0.41572,0.0334 -0.8622,0.10465 -1.29516,0.14672 1.18409,-4.8e-4 2.95697,0.75059 2.27413,-0.57009 0.736,-0.19833 1.31251,1.32462 1.03656,2.65909 0.12216,1.06785 0.27745,2.1921 0.99788,2.71054 0.0474,-0.0108 0.0771,-0.0183 0.0938,-0.0237 -0.11015,0.0426 -0.74052,0.34543 -0.30481,1.30739 1.69579,0.34607 -0.56525,1.51476 0.27196,2.9004 0.34187,-0.20807 0.45622,1.4309 1.02153,2.49541 0.0724,0.82966 -1.02417,-0.39299 -0.64244,-1.26343 -0.89026,-0.79719 -0.92721,-2.62339 -1.3522,-2.91678 1.11331,-0.81712 -0.61933,-2.54529 -0.44594,-3.76024 -0.25617,-1.6714 -1.25142,-3.22446 -2.32837,-3.08021 -1.07739,0.0839 -1.78553,0.16439 -2.97221,0.50853 -0.72048,1.4651 -4.08872,1.15969 -2.80798,2.56807 -1.95458,-0.0339 1.00133,0.8399 -0.014,2.2151 -0.005,-0.78442 -0.44769,-1.57821 -1.37479,-1.14596 -0.12761,-0.39951 -0.48246,-0.60532 -0.81475,-0.72958 -0.005,-0.006 -0.009,-0.0119 -0.0135,-0.0178 0.0426,0.0613 0.0774,0.13294 0.0999,0.20964 0.41023,0.40565 0.85202,1.03914 1.06166,1.07884 0.6412,0.87243 0.95059,2.74113 1.39095,2.4403 0.21303,0.67696 1.80347,2.25722 1.22697,1.25288 -1.76229,-1.88411 -0.0178,-1.29414 -0.23442,-3.09556 -1.78507,0.106 0.72145,-1.59523 0.99988,-0.65078 1.63229,1.35699 1.18118,-1.49812 -0.27724,-0.75959 -0.47842,-0.54941 -2.52608,-1.41743 -0.8231,-1.52844 -0.582,-0.0221 1.43833,-0.22462 1.56793,-0.63102 -0.96207,-0.65536 0.73562,-1.38775 1.98407,-1.36976 v 0 c 0.28812,0.005 0.55232,0.0485 0.75437,0.14253 1.28341,-0.14544 1.76054,0.73551 1.90947,1.47942 0.60193,0.90378 -0.82158,3.4795 -0.1094,3.40894 0.50913,1.28449 0.72054,-1.57574 0.88154,0.13417 -0.95678,1.30507 0.72776,1.77713 -0.021,2.90515 0.46296,0.70066 2.29579,1.57127 0.82116,2.66519 -0.55906,0.90232 -2.36597,0.028 -1.97212,1.57487 -0.33746,-0.13978 -0.86624,-1.06193 -2.14912,-1.15096 -0.88379,-0.88106 -1.88464,-1.10545 -2.5135,-2.07118 -0.86705,0.1673 1.64069,2.26509 1.84408,2.44752 1.40978,0.0995 2.18181,0.35006 2.73279,1.24226 1.68265,0.85951 -2.38574,0.23948 -2.45221,0.91467 -1.69806,1.44522 -2.96747,-2.39958 -0.76659,-1.68012 0.15265,-0.63824 -1.00057,-1.2573 -1.80094,-1.77116 0.0199,2.26148 -2.61872,6.03825 -2.78575,7.09183 -0.39746,0.21513 -0.38583,-0.38615 -0.51882,-0.57537 l -0.71784,-0.87793 c -1.12393,0.40231 1.38624,1.71874 0.22935,2.07931 0,-0.10294 -0.0296,-0.20566 -0.0829,-0.30762 0.005,0.0999 -0.008,0.19515 -0.0436,0.28144 0.3652,1.25594 0.37613,1.32607 0.33735,2.72616 -1.22794,0.626 -0.6733,0.55905 -1.06721,2.24962 v 2.7e-4 c -1.30032,0.61997 -2.72556,-1.95041 -1.92703,-2.79521 -0.005,-0.0657 -2.2e-4,-0.11409 0.0108,-0.14306 -0.005,-0.0296 -0.006,-0.061 -0.008,-0.0935 0.0237,0.0559 0.049,0.11101 0.0751,0.16563 0.12809,-0.10121 0.29949,-0.16714 0.52001,-0.18513 0.25536,0.56245 0.70265,0.77736 0.85008,0.64771 -0.42241,-0.43549 -0.72916,-0.97957 -0.84734,-1.58241 -0.24427,-0.98323 0.0631,-2.05318 0.6928,-2.8208 0.0807,-0.0135 0.1562,0.005 0.23108,0.0307 0.006,-0.16013 0.13088,-0.31063 0.44421,-0.44868 0.12313,0.005 0.24718,-0.0248 0.36687,-0.0715 l -0.18147,-0.22187 c 0.46452,-0.28936 0.99788,-0.46177 1.55844,-0.46484 -0.10643,-0.3101 -0.53266,-0.36132 -1.54869,0.23549 -0.57484,-0.0811 -0.81475,-0.36617 -0.89963,-0.7521 l -0.28559,-0.31591 c 0.091,-0.0836 0.1764,-0.16687 0.24858,-0.23943 0.0194,-0.53681 0.14468,-1.15102 0.0799,-1.67177 -1.31907,-2.57335 -0.93879,-5.49056 0.3262,-7.985 -0.0291,-0.93039 0.11338,-1.25724 0.33627,-1.26952 -0.22574,-0.0652 -0.31887,-0.11015 -0.0765,-0.22601 -0.7438,-0.21702 -0.14995,1.79076 -0.71262,2.01548 -0.26522,1.07895 -0.92128,0.9507 -1.36528,1.43294 1.37115,0.16612 -0.35626,0.66894 0.77574,1.03241 -0.62293,0.009 -0.0485,1.80654 -0.50265,2.21095 0.68983,0.12082 0.40704,1.83272 0.2733,1.78586 h -2.7e-4 c -0.88617,-0.43226 0.12793,-1.05687 -0.84313,-0.66048 0.33412,-0.63565 -1.14525,-1.01787 -1.39287,-1.20526 0.52114,-0.59498 0.83322,-2.26767 0.0699,-2.48426 -0.61933,-2.14814 2.30946,0.55006 1.24091,-0.6294 -1.15452,-0.8232 -0.66112,-1.15624 -0.14252,-2.18445 0.69387,-0.56594 -1.39772,0.0674 -0.0512,-0.62099 0.20764,-0.41696 -0.79029,-0.61486 -1.64921,-0.881 1.22094,-1.48083 -0.84108,-0.32259 -1.14094,-1.34137 -1.01464,0.49248 -0.93567,-1.71578 -2.22932,-0.48903 -2.11114,-1.23074 2.35525,-0.0582 3.32265,0.0584 2.67396,1.63665 3.04428,-1.43962 3.66172,-3.33326 0.22768,-0.95328 0.62207,-2.2374 1.00289,-2.24655 v 0 c 0.014,-3.8e-4 0.0275,0 0.0409,0.005 -0.19806,-0.18212 -0.37134,-0.25004 -0.51688,0.0215 -0.59374,1.69315 -1.12285,3.78388 -1.93539,5.61154 -1.80912,-0.11602 -4.18296,-0.22887 -5.82139,-1.25034 -1.18947,0.49377 -0.66872,-0.1303 -1.29903,0.44114 -1.55511,-0.12211 -0.98081,-2.17179 0.21712,-1.77778 0.39714,-0.77526 1.44991,-0.22326 1.92671,0.35238 -0.29436,0.50411 3.30708,-0.44125 3.85763,-1.56157 1.64451,-0.31413 1.39351,-2.20675 2.94942,-2.69524 0.10186,-1.20714 0.0205,-1.09823 0.62768,-1.66116 1.00127,-1.28972 -0.44993,-1.59911 0.15001,-3.09529 0.2523,0.18303 1.2881,-0.22763 1.9092,-0.19816 z m 9.82964,1.65421 c 0.232,-0.005 0.6175,1.04819 0.47681,2.11131 -0.12007,0.5033 -0.29965,-0.52065 -0.55475,-0.5325 -0.15658,-1.14224 -0.0708,-1.57703 0.0779,-1.57881 z m -1.90333,0.59488 c 0.0129,-0.006 0.0393,0.2329 0.0835,0.879 -0.0388,0.57085 1.71088,1.32408 0.0323,1.27399 -0.0873,-0.46016 -0.14867,-2.13737 -0.11581,-2.15299 z m 3.67696,0.64992 c 0.0135,-0.007 0.0912,0.18093 0.2948,0.65105 0.58114,-0.62342 0.88622,0.49916 0.47847,0.72899 -1.59227,1.27884 1.41097,0.69619 -0.63435,1.38705 1.64155,0.34845 0.67502,0.74252 -0.14861,1.43709 0.009,-0.34457 -0.16106,-1.83336 0.17392,-2.25684 0.0939,-0.94795 -0.19498,-1.93318 -0.16423,-1.94734 z m -2.30386,0.6594 c 1.14638,1.13701 0.85013,1.57417 -0.44842,1.87608 -2.12407,-0.37091 0.94375,-0.78318 0.44842,-1.87608 z m -29.04106,0.3652 c 0.13929,-0.005 0.33837,0.2252 0.27029,0.56395 0.1415,0.21503 -0.34155,0.75307 -0.18179,0.2878 -0.30729,-0.60484 -0.22774,-0.84637 -0.0885,-0.85175 z m 9.12487,0.0361 c 0.40155,-0.005 1.2289,2.08027 0.5472,1.82652 0.29577,-0.77375 -1.31229,-1.38177 -0.73675,-1.392 0.0194,-0.30994 0.0921,-0.43452 0.18955,-0.43452 z m 1.18549,0.25159 c 0.3743,0.0124 0.94655,0.31683 1.13119,0.42036 1.61888,1.2247 0.56724,0.51041 0.59148,1.68346 -1.79011,-1.26779 -0.99605,0.38093 -1.84877,-1.11396 -0.38028,-0.7835 -0.20414,-1.00057 0.1261,-0.98986 z m 19.95238,0.83872 c 0.95517,-0.0318 -0.21464,1.05131 0.38023,1.6311 0.78458,-0.21798 -0.0162,0.76891 -0.7883,0.53137 -1.2184,-0.53352 0.2997,1.12086 -0.44675,0.75544 -0.22116,0.92452 -0.79826,-1.1906 -0.87038,-1.57099 0.53379,-1.03559 0.8399,0.35755 1.17434,-1.26009 0.23452,-0.0548 0.41443,-0.0822 0.55086,-0.0868 z m -29.23119,0.26582 v 2.7e-4 c 0.22009,-0.0113 0.40969,0.27917 0.28866,1.1738 0.14252,0.0539 -0.45111,0.29102 -0.3443,0.005 -0.76255,-0.30148 -0.31123,-1.16045 0.0556,-1.17962 z m 6.00905,0.40441 c 0.1387,0.006 0.26609,0.15459 0.36014,0.52108 -0.12513,0.81226 -0.57274,1.02863 -1.25002,1.30851 -0.2426,-0.0725 0.3945,-1.85275 0.88988,-1.82959 z m 23.945,1.92784 c 0.10342,0.005 0.17689,0.1213 0.19094,0.46932 0.29593,0.8657 0.14134,1.41155 1.17575,1.40509 0.11279,1.11536 1.68109,2.79192 -0.26943,2.93046 -0.29491,-0.17619 -1.08891,0.67427 -0.093,1.25482 -0.64782,0.52199 -1.43041,0.73174 -0.1122,1.27705 1.27824,0.12809 0.87405,1.16012 -0.10773,1.70824 -0.3716,-0.0781 0.43296,-0.76497 -0.33508,-0.85595 -1.12673,-0.31914 -0.65714,0.14527 -0.8671,-1.06742 -0.0883,-1.98311 -0.24272,-0.0646 -0.92436,-0.91913 -0.91402,-1.92073 0.80871,-3.51505 -0.2355,-3.53336 0.0841,-0.85358 0.21094,-2.25588 0.68946,-2.32838 0.1645,0.39935 0.62407,-0.34817 0.88822,-0.34074 z m -24.4622,0.15534 c 0.31877,0.008 0.69328,0.22952 0.1673,0.64077 -0.74897,-0.44319 -0.48601,-0.64885 -0.1673,-0.64077 z m 12.52653,1.77115 c 0.36811,1.17898 0.63549,1.27986 -0.45008,1.12673 -1.7e-4,0.17667 -0.23857,0.35189 -0.38825,0.20263 -0.86,-1.74432 0.72118,-0.17258 0.83833,-1.32936 z m 12.61678,0.77602 c -0.77575,-0.0124 -0.84346,0.44486 0.17872,1.2281 0.48305,-0.006 0.85444,-0.5137 0.46678,-1.14294 -0.24966,-0.0545 -0.46651,-0.0824 -0.6455,-0.0852 z m -25.17449,0.48709 c 1.16044,0.0615 1.54384,2.13307 1.08611,3.57516 -0.77758,0.27589 -1.76868,-1.00337 -1.937,-2.17254 0,0.30309 -0.0302,0.60117 -0.093,0.81086 0.99799,0.0988 -0.29614,0.6928 -0.66474,0.6928 0.44944,-0.89791 0.0146,-2.18488 -0.30115,-0.8142 -0.77402,-0.35211 -0.32555,-1.48729 0.60349,-1.21135 0.0817,-0.50347 0.16488,-0.69738 0.23743,-0.69199 0.0916,0.005 0.16639,0.32211 0.19957,0.72065 0.0253,-0.30757 0.12577,-0.58793 0.32453,-0.805 0.1973,-0.081 0.37893,-0.11317 0.54473,-0.10439 z m 1.57406,0.0974 c 0.009,-3.8e-4 0.0178,-4.3e-4 0.0275,0 0.18395,0.009 0.50594,0.17064 0.92495,0.52135 -0.17452,0.17306 -0.11548,0.65477 -0.50605,0.55641 -0.62843,-0.65789 -0.72005,-1.06564 -0.44648,-1.07776 z m 9.51091,2.57168 c 0.008,0 0.0151,0.005 0.0221,0.005 -0.007,0 -0.0135,-0.005 -0.0205,-0.005 z m 0.0312,0.007 c 0.009,0 0.0167,0.005 0.0248,0.008 -0.008,-0.005 -0.0167,-0.006 -0.0248,-0.008 z m 0.0307,0.0102 c 0.0727,0.0285 0.14053,0.0872 0.19623,0.16256 -0.056,-0.0754 -0.12341,-0.13407 -0.19623,-0.16256 z m -11.43266,0.48213 c 0.44109,-0.006 1.68023,1.68648 1.84182,0.40996 0.25946,0.96072 -0.26948,0.68159 -0.52076,1.44576 0.15093,-1.27544 -0.97698,-0.37161 -1.47581,-1.51977 -0.006,-0.23991 0.0528,-0.33347 0.15475,-0.33347 z m 0.0264,1.43375 c 0.44513,0 1.25896,0.29 0.98506,0.86484 -0.34376,0.21869 -0.39358,-0.38314 -0.66915,-0.32652 -0.78517,-0.35938 -0.66209,-0.5373 -0.31591,-0.53832 z m -2.74673,0.14032 c 0.57623,0 1.01226,0.2663 0.63295,0.87954 -0.77494,-0.46 -1.99916,0.62837 -2.11631,0.32232 -0.23027,-0.74639 0.74246,-1.19648 1.48336,-1.20186 z m 2.16026,0.21125 c 0.19488,0.007 0.42897,0.13514 0.68278,0.44895 0.41718,0.12454 1.90716,0.38319 2.16775,1.56739 -0.31252,0.83435 0.93783,1.73668 0.0528,1.9969 h -2.7e-4 c -0.43005,-1.24087 -1.52693,-1.55128 -2.29832,-2.39463 -1.50323,0.14715 -1.36545,-1.58387 -0.64303,-1.61834 0.0129,0 0.0253,0 0.0383,-2.7e-4 z m 1.93813,1.1571 c -0.39434,0.006 -1.44878,0.64998 -0.33067,0.69361 0.56266,-0.52496 0.53724,-0.69899 0.33067,-0.69361 z m 38.96449,1.39061 c -0.5034,-0.0162 0.4233,0.91143 0.6622,0.89295 1.2721,0.28656 1.4764,1.72876 2.5594,2.47009 0.2772,0.57845 0.8232,1.66235 1.5229,2.18558 -0.4642,1.10556 0.9852,1.91756 0.4373,3.93002 0,0 1.8579,0.46511 1.3447,-1.2665 -0.1004,-0.14005 -0.211,-2.08281 -0.6717,-2.80685 -0.4133,-0.52824 -0.8742,-2.12385 -1.2175,-1.88303 -0.3462,-0.68778 -1.0943,-0.73481 -1.1891,-1.18355 -1.3832,-0.6726 -1.6624,-2.06115 -3.2414,-2.29972 -0.086,-0.0248 -0.1536,-0.0366 -0.2062,-0.0388 z m -48.41582,0.98037 c -0.22968,0 -0.90308,0.45149 -1.34164,0.90686 -0.15589,1.20342 -1.83218,2.30849 -2.17535,4.00461 -0.13784,0.82482 0.54769,-0.27777 0.55895,0.15308 0.008,-0.0189 0.0167,-0.0382 0.0248,-0.0574 0.4684,-1.41614 1.35005,-2.62705 2.20368,-3.83425 0.80548,-0.86715 0.91989,-1.17407 0.72959,-1.17294 z m 12.4976,1.2971 c -0.0232,0 -0.0458,0.0183 -0.0679,0.056 -1.26381,0.18912 -1.3362,1.58963 0.30282,1.39255 0.29862,0.39062 0.0118,-1.46004 -0.2349,-1.44851 z m 24.26511,0.13999 c 0.11182,0 0.22704,0.19892 0.31898,0.7563 0.77403,0.48952 1.25815,3.45042 2.16668,4.67652 1.18705,0.61389 0.65202,3.58513 -1.43822,2.64795 -1.39917,0.49986 -0.96094,-1.72144 -1.10114,-2.43917 0.0823,-1.40763 -1.30135,-1.60272 -0.49437,-2.07592 -0.86112,-1.00278 -1.77163,1.77579 -1.30183,-0.78716 2.02076,0.81867 1.27129,-0.47029 1.45992,-1.38511 -0.10185,-0.32082 0.13483,-1.38781 0.38998,-1.39341 z m -20.7479,1.29241 c 0.19423,0 0.38502,0.16542 0.6636,0.64238 0.58297,1.3194 1.48406,-0.30422 1.71766,0.94197 -0.50147,1.77627 -1.03871,0.55313 -1.50361,1.70932 0.0533,0.0903 0.0804,0.22881 0.091,0.39498 0.005,-0.0189 0.009,-0.0372 0.0145,-0.0546 -0.008,-0.14048 0.0676,-0.23813 0.18486,-0.27417 0.0302,-0.0183 0.0671,-0.028 0.12303,-0.0458 h 2.7e-4 l 0.0285,0.0318 c 0.60031,0.0232 1.58456,1.51497 0.49517,1.89385 -0.34263,0.3143 -0.50223,0.39472 -0.61906,0.1715 -0.0102,0.0285 -0.0199,0.0571 -0.0296,0.0857 0,-0.0567 -0.005,-0.11209 -0.005,-0.16504 -0.0426,-0.11193 -0.0811,-0.27131 -0.12362,-0.48213 -0.0388,-0.18546 -0.0654,-0.3506 -0.0818,-0.49738 -0.0469,0.73088 -0.14678,1.50921 0.19068,1.37364 0.28359,0.43247 -0.1052,1.73786 0.0983,2.72836 0.08,0.44158 -0.73164,-0.096 -0.50632,-0.081 -1.61118,-0.34952 0.23845,-2.24267 -1.25342,-2.50488 -1.25411,-1.19632 1.58349,-1.22514 -0.33347,-1.39066 -1.40703,-0.0479 0.48882,-0.91585 -0.89936,-0.86845 0.5333,-1.42362 1.56604,-1.63816 0.32986,-2.81438 0.76142,-0.31258 1.09398,-0.78954 1.41764,-0.79493 z m -0.2035,0.59175 c -0.14301,0.005 -0.22111,0.15599 -0.0517,0.53024 0.43382,-0.0952 -0.0237,0.67739 0.49382,0.24497 0.15982,-0.42903 -0.21965,-0.78167 -0.44233,-0.77521 z m 17.14328,1.13233 c -0.0533,0.0226 -0.10886,0.0415 -0.16644,0.0576 -0.29889,0.18863 -0.49253,0.76142 -0.77575,0.60123 -2.15967,-1.132 -0.33245,-0.29356 0.77575,-0.60123 0.0517,-0.0329 0.10713,-0.0523 0.16644,-0.0576 z m -5.39996,0.62045 c 0.70561,0.0129 2.72712,0.48139 2.09374,0.77268 -0.57715,0.0922 -1.51557,0.14748 -1.86746,-0.44928 -0.5959,-0.24141 -0.54704,-0.32937 -0.22628,-0.3234 z m -2.43083,0.4342 c 0.47912,-0.0124 1.19363,0.73137 -0.0533,1.22282 -0.46447,-0.89592 -0.25402,-1.21474 0.0533,-1.22282 z m -28.64133,0.0793 c -0.058,0.006 -0.2015,0.21277 -0.47734,0.71036 0.40603,-0.28925 -0.72609,1.75085 -0.5687,2.21623 -0.50448,1.23784 -1.15354,2.28663 -0.85622,3.50131 -0.12728,1.51374 0.15874,2.5294 0.59628,4.07475 -0.25187,1.2232 0.26442,1.22546 0.94299,2.21542 0.57565,-0.0835 -0.93841,-2.10107 -0.61986,-2.30639 0.0827,-0.74193 0.0795,-1.53981 0.0688,-2.35903 -0.0734,-0.94434 -0.0644,-1.94233 0.0361,-2.97862 0.0736,-0.76034 0.19386,-1.50985 0.35577,-2.24181 0.10094,-1.07798 0.69641,-2.85231 0.52243,-2.83222 z m 28.02287,0.1993 c 0.207,0.005 0.35038,0.28392 0.16918,1.10421 -1.28341,0.0199 -0.59298,-1.11525 -0.16918,-1.10421 z m -0.6377,1.91475 c 0.073,0.10509 0.14005,0.21417 0.20065,0.32653 1.03461,0.0328 1.97114,1.34067 0.12835,1.52257 -0.86338,0.84744 -2.27068,-1.74062 -1.34918,-0.63662 l 0.0657,-0.0779 v -2.7e-4 c 0.14468,-0.32669 0.34091,-0.53891 0.55836,-0.66355 h 2.7e-4 z m 1.16125,0.18901 c 0.009,0.0275 0.0172,0.0567 0.0253,0.0874 -0.008,-0.0302 -0.0167,-0.0604 -0.0253,-0.0874 z m 28.80193,0.86791 c -0.2441,-0.006 -0.3965,0.18815 -0.1472,0.79271 -0.013,-0.0302 -0.022,-0.0469 -0.026,-0.0506 -1e-4,-1.1e-4 0,-4.8e-4 0,0 h -3e-4 -2e-4 -3e-4 c -0.03,0.0388 -0.9725,2.20815 0.061,2.65048 -0.597,0.0894 -0.7705,1.54525 -1.0577,2.1238 0.769,1.48207 -0.029,1.7153 -0.3251,2.89174 0.2336,-0.17366 1.1079,-1.02428 0.9522,-1.42066 1.0973,-0.97952 1.0869,-1.86617 0.9996,-3.27229 0.6287,-0.85487 0.5213,-2.52018 -0.2083,-2.9324 1.0202,-0.0237 0.2196,-0.76928 -0.2468,-0.78216 z m -30.97641,0.16391 c 0.005,0.006 0.0102,0.0124 0.0151,0.0189 0,-0.006 0.005,-0.0124 0.007,-0.0189 z m -11.00064,0.113 c -0.14463,0.005 -0.27826,0.40985 -0.33708,1.45933 0.0393,1.10189 -0.0581,2.61838 -0.74683,3.56848 -0.0167,1.44539 -1.63622,3.57592 -1.43795,3.90578 0.0952,0.30756 0.73094,-0.66279 0.49577,-0.94165 1.35155,-1.73878 0.8616,-1.65173 1.89638,-3.55146 0.57204,-0.42886 0.70034,-1.62211 0.63075,-2.66378 0.0307,0.85369 -0.1749,1.88938 -0.68752,1.75165 0.84717,-0.77828 -0.0178,-1.6101 0.20344,-2.76429 0.0458,-0.0361 0.0884,-0.0506 0.12831,-0.0506 0.14452,0.005 0.24896,0.23706 0.30675,0.5673 -0.0962,-0.72743 -0.28176,-1.28412 -0.45202,-1.28067 z m 5.44117,2.16662 h 2.6e-4 v 3.2e-4 h -2.6e-4 z m -10.63936,9.70218 c -0.76702,0.22612 -1.50539,0.81216 -1.80562,1.728 0.62428,-0.1541 1.70069,-0.58895 1.80562,-1.728 z m -7.93905,0.53551 c -0.46129,-0.0108 -0.82353,0.28311 -0.27837,0.92635 0.92603,0.47627 2.05324,1.14046 3.2592,1.18409 0.57494,0.39805 2.51609,-0.96228 0.9369,-0.56616 -0.74359,-0.52636 -1.8416,-0.88283 -3.15507,-1.20467 -0.17339,-0.21664 -0.48591,-0.33304 -0.76266,-0.33961 z" /></g></svg>
